<?xml version="1.0" encoding="UTF-8" standalone="no"?>
<!-- Created with Inkscape (http://www.inkscape.org/) -->

<svg
   xmlns:dc="http://purl.org/dc/elements/1.1/"
   xmlns:cc="http://creativecommons.org/ns#"
   xmlns:rdf="http://www.w3.org/1999/02/22-rdf-syntax-ns#"
   xmlns:svg="http://www.w3.org/2000/svg"
   xmlns="http://www.w3.org/2000/svg"
   xmlns:xlink="http://www.w3.org/1999/xlink"
   xmlns:sodipodi="http://sodipodi.sourceforge.net/DTD/sodipodi-0.dtd"
   xmlns:inkscape="http://www.inkscape.org/namespaces/inkscape"
   width="256"
   height="256"
   id="svg2"
   version="1.1"
   inkscape:version="0.48.1 r9760"
   sodipodi:docname="quake1+2.svg">
  <title
     id="title3063">Tango-style Quake I and II logos</title>
  <defs
     id="defs4">
    <linearGradient
       id="linearGradient3947">
      <stop
         style="stop-color:#3a5a1e;stop-opacity:1;"
         offset="0"
         id="stop3949" />
      <stop
         id="stop3957"
         offset="0.25"
         style="stop-color:#73ae3a;stop-opacity:1;" />
      <stop
         id="stop3955"
         offset="0.75"
         style="stop-color:#3a5a1e;stop-opacity:1;" />
      <stop
         style="stop-color:#3a5a1e;stop-opacity:1;"
         offset="1"
         id="stop3951" />
    </linearGradient>
    <linearGradient
       inkscape:collect="always"
       xlink:href="#linearGradient3947"
       id="linearGradient3953"
       x1="-1.5"
       y1="128"
       x2="257.5"
       y2="128"
       gradientUnits="userSpaceOnUse"
       gradientTransform="translate(445.03234,608.52113)" />
    <linearGradient
       inkscape:collect="always"
       xlink:href="#linearGradient3947-3"
       id="linearGradient3953-4"
       x1="-1.5"
       y1="128"
       x2="257.5"
       y2="128"
       gradientUnits="userSpaceOnUse"
       gradientTransform="translate(445.03234,608.52113)" />
    <linearGradient
       id="linearGradient3947-3">
      <stop
         style="stop-color:#c17d11;stop-opacity:1;"
         offset="0"
         id="stop3949-0" />
      <stop
         id="stop3957-7"
         offset="0.25"
         style="stop-color:#d5b582;stop-opacity:1;" />
      <stop
         id="stop3955-8"
         offset="0.75"
         style="stop-color:#c17d11;stop-opacity:1;" />
      <stop
         style="stop-color:#c17d11;stop-opacity:1;"
         offset="1"
         id="stop3951-6" />
    </linearGradient>
    <linearGradient
       y2="128"
       x2="257.5"
       y1="128"
       x1="-1.5"
       gradientTransform="matrix(0.8660254,0.5,-0.5,0.8660254,81.148743,-46.851256)"
       gradientUnits="userSpaceOnUse"
       id="linearGradient4042"
       xlink:href="#linearGradient3947"
       inkscape:collect="always" />
    <linearGradient
       inkscape:collect="always"
       xlink:href="#linearGradient3947-3"
       id="linearGradient4093"
       gradientUnits="userSpaceOnUse"
       gradientTransform="matrix(0.8660254,0.5,-0.5,0.8660254,81.148745,-46.851255)"
       x1="-1.5"
       y1="128"
       x2="257.5"
       y2="128" />
    <linearGradient
       inkscape:collect="always"
       xlink:href="#linearGradient3947-3"
       id="linearGradient4101"
       gradientUnits="userSpaceOnUse"
       gradientTransform="matrix(0.16237976,0.09375,-0.09375,0.16237976,15.21539,199.21539)"
       x1="-1.5"
       y1="128"
       x2="257.5"
       y2="128" />
    <linearGradient
       inkscape:collect="always"
       xlink:href="#linearGradient3947-3"
       id="linearGradient4127"
       gradientUnits="userSpaceOnUse"
       gradientTransform="matrix(0.10825317,0.0625,-0.0625,0.10825317,10.143593,218.14359)"
       x1="-1.5"
       y1="128"
       x2="257.5"
       y2="128" />
    <linearGradient
       inkscape:collect="always"
       xlink:href="#linearGradient3947-3"
       id="linearGradient4139"
       gradientUnits="userSpaceOnUse"
       gradientTransform="matrix(0.07442405,0.04296875,-0.04296875,0.07442405,6.9737202,229.97372)"
       x1="-1.5"
       y1="128"
       x2="257.5"
       y2="128" />
    <linearGradient
       inkscape:collect="always"
       xlink:href="#linearGradient3947-3"
       id="linearGradient4145"
       gradientUnits="userSpaceOnUse"
       gradientTransform="matrix(0.05412658,0.03125,-0.03125,0.05412658,5.0717965,237.0718)"
       x1="-1.5"
       y1="128"
       x2="257.5"
       y2="128" />
    <linearGradient
       inkscape:collect="always"
       xlink:href="#linearGradient3947"
       id="linearGradient4166"
       gradientUnits="userSpaceOnUse"
       gradientTransform="matrix(0.16237976,0.09375,-0.09375,0.16237976,15.215389,199.21539)"
       x1="-1.5"
       y1="128"
       x2="257.5"
       y2="128" />
    <linearGradient
       inkscape:collect="always"
       xlink:href="#linearGradient3947"
       id="linearGradient4173"
       gradientUnits="userSpaceOnUse"
       gradientTransform="matrix(0.10825317,0.0625,-0.0625,0.10825317,10.143593,218.14359)"
       x1="-1.5"
       y1="128"
       x2="257.5"
       y2="128" />
    <linearGradient
       inkscape:collect="always"
       xlink:href="#linearGradient3947"
       id="linearGradient4183"
       gradientUnits="userSpaceOnUse"
       gradientTransform="matrix(0.07442406,0.04296875,-0.04296875,0.07442406,6.9737199,229.97372)"
       x1="-1.5"
       y1="128"
       x2="257.5"
       y2="128" />
    <linearGradient
       inkscape:collect="always"
       xlink:href="#linearGradient3947"
       id="linearGradient4192"
       gradientUnits="userSpaceOnUse"
       gradientTransform="matrix(0.05412659,0.03125,-0.03125,0.05412659,5.0717963,237.0718)"
       x1="-1.5"
       y1="128"
       x2="257.5"
       y2="128" />
    <linearGradient
       inkscape:collect="always"
       xlink:href="#linearGradient3947-3"
       id="linearGradient3054"
       gradientUnits="userSpaceOnUse"
       gradientTransform="matrix(0.8660254,0.5,-0.5,0.8660254,-178.85125,-22.851255)"
       x1="-1.5"
       y1="128"
       x2="257.5"
       y2="128" />
    <clipPath
       clipPathUnits="userSpaceOnUse"
       id="clipPath3862">
      <path
         inkscape:connector-curvature="0"
         id="path3864"
         d="M 100,12.34375 C 71.310852,28.243604 52,57.952947 52,92 c 0,46.91303 36.648021,85.61882 84,91.28125 L 136,208 l 12,48 12,-48 0,-24.71875 C 207.35198,177.61882 244,138.91303 244,92 244,57.952947 224.68915,28.243604 196,12.34375 L 196,16 c 19.434,14.599292 32,37.82443 32,64 0,40.1057 -29.50793,73.33691 -68,79.125 L 160,112 c 2.54991,-3.69734 8.90346,-7.4041 11.1875,-8 L 160,104 l -24,0 -10.59375,0 c 2.50649,0.35039 7.74962,2.07991 10.59375,8 l 0,47.125 C 97.507928,153.33691 68,120.1057 68,80 68,53.82443 80.566002,30.599292 100,16 l 0,-3.65625 z M 125.40625,104 c -0.8355,-0.1168 -1.37019,-0.0881 -1.40625,0 l 1.40625,0 z m 45.78125,0 0.8125,0 c -0.0927,-0.12364 -0.38953,-0.11035 -0.8125,0 z"
         style="color:#000000;fill:none;stroke:#241703;stroke-width:3;stroke-linecap:butt;stroke-linejoin:miter;stroke-miterlimit:4;stroke-opacity:1;stroke-dasharray:none;stroke-dashoffset:0;marker:none;visibility:visible;display:inline;overflow:visible;enable-background:accumulate" />
    </clipPath>
    <filter
       inkscape:collect="always"
       id="filter3898">
      <feGaussianBlur
         inkscape:collect="always"
         stdDeviation="4.3565625"
         id="feGaussianBlur3900" />
    </filter>
    <clipPath
       clipPathUnits="userSpaceOnUse"
       id="clipPath3954">
      <path
         inkscape:connector-curvature="0"
         id="path3956"
         d="M 120,12.34375 C 91.310852,28.243604 72,57.952947 72,92 c 0,41.47923 28.63424,76.55017 68,88.03125 L 140,208 l 12,48 12,-48 0,-24.09375 c 1.32891,0.0523 2.65768,0.0937 4,0.0937 1.34232,0 2.67109,-0.0415 4,-0.0937 L 172,208 l 12,48 12,-48 0,-27.96875 C 235.36576,168.55017 264,133.47923 264,92 264,57.952947 244.68915,28.243604 216,12.34375 L 216,16 c 19.434,14.599292 32,37.82443 32,64 0,34.32876 -21.63147,63.6164 -52,74.96875 L 196,112 c 2.54991,-3.69734 8.90346,-7.4041 11.1875,-8 L 196,104 l -20,0 c -0.0927,-0.12364 -0.38953,-0.11035 -0.8125,0 L 164,104 l -2.59375,0 c -0.8355,-0.1168 -1.37019,-0.0881 -1.40625,0 l -30.59375,0 c 2.50649,0.35039 7.74962,2.07991 10.59375,8 l 0,42.96875 C 109.63147,143.6164 88,114.32876 88,80 88,53.82443 100.566,30.599292 120,16 l 0,-3.65625 z M 129.40625,104 c -0.8355,-0.1168 -1.37019,-0.0881 -1.40625,0 l 1.40625,0 z m 77.78125,0 0.8125,0 c -0.0927,-0.12364 -0.38953,-0.11035 -0.8125,0 z m -38.46875,3.53125 c 1.22623,1.12709 2.376,2.58446 3.28125,4.46875 l 0,47.90625 c -1.32278,0.065 -2.66109,0.0937 -4,0.0937 -1.33891,0 -2.67722,-0.0287 -4,-0.0937 L 164,112 c 1.08385,-1.57157 2.86223,-3.13133 4.71875,-4.46875 z"
         style="color:#000000;fill:none;stroke:#132601;stroke-width:3;stroke-linecap:butt;stroke-linejoin:miter;stroke-miterlimit:4;stroke-opacity:1;stroke-dasharray:none;stroke-dashoffset:0;marker:none;visibility:visible;display:inline;overflow:visible;enable-background:accumulate" />
    </clipPath>
    <filter
       inkscape:collect="always"
       id="filter3976">
      <feGaussianBlur
         inkscape:collect="always"
         stdDeviation="4.3565625"
         id="feGaussianBlur3978" />
    </filter>
    <clipPath
       clipPathUnits="userSpaceOnUse"
       id="clipPath3984">
      <path
         style="color:#000000;fill:none;stroke:#132601;stroke-width:3;stroke-linecap:butt;stroke-linejoin:miter;stroke-miterlimit:4;stroke-opacity:1;stroke-dasharray:none;stroke-dashoffset:0;marker:none;visibility:visible;display:inline;overflow:visible;enable-background:accumulate"
         d="M 40,12.34375 C 11.310852,28.243604 -8,57.952947 -8,92 c 0,41.47923 28.634235,76.55017 68,88.03125 L 60,208 l 12,48 12,-48 0,-24.09375 c 1.32891,0.0523 2.65768,0.0937 4,0.0937 1.34232,0 2.67109,-0.0415 4,-0.0937 L 92,208 l 12,48 12,-48 0,-27.96875 C 155.36576,168.55017 184,133.47923 184,92 184,57.952947 164.68915,28.243604 136,12.34375 L 136,16 c 19.434,14.599292 32,37.82443 32,64 0,34.32876 -21.63147,63.6164 -52,74.96875 L 116,112 c 2.54991,-3.69734 8.90346,-7.4041 11.1875,-8 L 116,104 96,104 c -0.0927,-0.12364 -0.38953,-0.11035 -0.8125,0 L 84,104 81.40625,104 C 80.57075,103.8832 80.03606,103.9119 80,104 l -30.59375,0 c 2.506492,0.35039 7.749623,2.07991 10.59375,8 l 0,42.96875 C 29.631471,143.6164 8,114.32876 8,80 8,53.82443 20.566002,30.599292 40,16 l 0,-3.65625 z M 49.40625,104 C 48.570753,103.8832 48.036057,103.91186 48,104 l 1.40625,0 z m 77.78125,0 0.8125,0 c -0.0927,-0.12364 -0.38953,-0.11035 -0.8125,0 z m -38.46875,3.53125 C 89.94498,108.65834 91.09475,110.11571 92,112 l 0,47.90625 c -1.32278,0.065 -2.66109,0.0937 -4,0.0937 -1.33891,0 -2.67722,-0.0287 -4,-0.0937 L 84,112 c 1.08385,-1.57157 2.86223,-3.13133 4.71875,-4.46875 z"
         id="path3986"
         inkscape:connector-curvature="0" />
    </clipPath>
  </defs>
  <sodipodi:namedview
     id="base"
     pagecolor="#ffffff"
     bordercolor="#666666"
     borderopacity="1.0"
     inkscape:pageopacity="0.0"
     inkscape:pageshadow="2"
     inkscape:zoom="1"
     inkscape:cx="-216.05453"
     inkscape:cy="115.38"
     inkscape:document-units="px"
     inkscape:current-layer="layer-quake-32"
     showgrid="true"
     gridtolerance="10"
     showguides="true"
     inkscape:guide-bbox="true"
     inkscape:window-width="1280"
     inkscape:window-height="757"
     inkscape:window-x="0"
     inkscape:window-y="26"
     inkscape:window-maximized="1">
    <inkscape:grid
       type="xygrid"
       id="grid2985"
       empspacing="8"
       visible="true"
       enabled="true"
       snapvisiblegridlinesonly="true"
       originx="0px"
       originy="0px"
       spacingx="0.5px"
       spacingy="0.5px" />
    <sodipodi:guide
       orientation="1,0"
       position="48,471.99378"
       id="guide3765" />
    <sodipodi:guide
       orientation="0,1"
       position="92,0"
       id="guide3767" />
    <sodipodi:guide
       orientation="1,0"
       position="22,245.5"
       id="guide3774" />
    <sodipodi:guide
       orientation="1,0"
       position="0,36"
       id="guide3776" />
    <sodipodi:guide
       orientation="0,1"
       position="-104,48"
       id="guide3778" />
    <sodipodi:guide
       orientation="0,1"
       position="34.5,22"
       id="guide3780" />
    <sodipodi:guide
       orientation="0,1"
       position="128,32"
       id="guide3782" />
    <sodipodi:guide
       orientation="1,0"
       position="32,-48"
       id="guide3784" />
    <sodipodi:guide
       orientation="1,0"
       position="16,-64"
       id="guide3786" />
    <sodipodi:guide
       orientation="0,1"
       position="32,16"
       id="guide3788" />
    <sodipodi:guide
       orientation="1,0"
       position="128,160"
       id="guide3790" />
    <sodipodi:guide
       orientation="0,1"
       position="144,128"
       id="guide3792" />
  </sodipodi:namedview>
  <metadata
     id="metadata7">
    <rdf:RDF>
      <cc:Work
         rdf:about="">
        <dc:format>image/svg+xml</dc:format>
        <dc:type
           rdf:resource="http://purl.org/dc/dcmitype/StillImage" />
        <dc:title>Tango-style Quake I and II logos</dc:title>
        <cc:license
           rdf:resource="data:text/plain,Redistribution%20and%20use%20in%20source%20and%20compiled%20forms%2C%20with%20or%20without%20modification%2C%20are%20permitted%20under%20any%20circumstances.%20No%20warranty." />
        <dc:date>2011-07-08</dc:date>
        <dc:creator>
          <cc:Agent>
            <dc:title>Simon McVittie</dc:title>
          </cc:Agent>
        </dc:creator>
        <dc:description>Based on the Tango colour palette and &lt;http://tango.freedesktop.org/Tango_Icon_Theme_Guidelines&gt;. Quake I and II box art on Wikipedia was used as a rough guide for the shape, but was not traced.</dc:description>
      </cc:Work>
    </rdf:RDF>
  </metadata>
  <g
     inkscape:label="shapes"
     inkscape:groupmode="layer"
     id="layer-shapes"
     transform="translate(0,-796.36218)"
     style="display:none">
    <rect
       style="color:#000000;fill:url(#linearGradient3953);fill-opacity:1;fill-rule:nonzero;stroke:#241703;stroke-width:3;stroke-linecap:butt;stroke-linejoin:miter;stroke-miterlimit:4;stroke-opacity:1;stroke-dasharray:none;stroke-dashoffset:0;marker:none;visibility:visible;display:inline;overflow:visible;enable-background:accumulate"
       id="rect3945"
       width="256"
       height="256"
       x="445.03235"
       y="608.52112"
       transform="matrix(0.8660254,0.5,-0.5,0.8660254,0,0)" />
    <rect
       style="color:#000000;fill:#babdb6;stroke:#2e3436;stroke-width:0.65465355;stroke-linecap:butt;stroke-linejoin:miter;stroke-miterlimit:4;stroke-opacity:1;stroke-dasharray:none;stroke-dashoffset:0;marker:none;visibility:visible;display:inline;overflow:visible;enable-background:accumulate"
       id="rect3813"
       width="96"
       height="23.999996"
       x="80"
       y="788.36218" />
    <path
       transform="matrix(1.090909,0,0,1.0454545,-11.636361,787.99854)"
       d="m 216,96 c 0,48.60106 -39.39894,88 -88,88 C 79.398942,184 40,144.60106 40,96 40,47.398942 79.398942,8 128,8 c 48.60106,0 88,39.398942 88,88 z"
       sodipodi:ry="88"
       sodipodi:rx="88"
       sodipodi:cy="96"
       sodipodi:cx="128"
       id="path3827"
       style="color:#000000;fill:#a40000;fill-opacity:1;stroke:#2e3436;stroke-width:1;stroke-linecap:butt;stroke-linejoin:miter;stroke-miterlimit:4;stroke-opacity:1;stroke-dasharray:none;stroke-dashoffset:0;marker:none;visibility:visible;display:inline;overflow:visible;enable-background:accumulate"
       sodipodi:type="arc" />
    <path
       sodipodi:type="arc"
       style="color:#000000;fill:#204a87;fill-opacity:1;stroke:#2e3436;stroke-width:1;stroke-linecap:butt;stroke-linejoin:miter;stroke-miterlimit:4;stroke-opacity:1;stroke-dasharray:none;stroke-dashoffset:0;marker:none;visibility:visible;display:inline;overflow:visible;enable-background:accumulate"
       id="path3811"
       sodipodi:cx="128"
       sodipodi:cy="88"
       sodipodi:rx="80"
       sodipodi:ry="80"
       d="m 208,88 c 0,44.18278 -35.81722,80 -80,80 C 83.81722,168 48,132.18278 48,88 48,43.81722 83.81722,8 128,8 c 44.18278,0 80,35.81722 80,80 z"
       transform="translate(0,788.36218)" />
    <rect
       style="color:#000000;fill:#4e9a06;stroke:#2e3436;stroke-width:1.27475488;stroke-linecap:butt;stroke-linejoin:miter;stroke-miterlimit:4;stroke-opacity:1;stroke-dasharray:none;stroke-dashoffset:0;marker:none;visibility:visible;display:inline;overflow:visible;enable-background:accumulate"
       id="rect3817"
       width="24"
       height="104"
       x="116"
       y="900.36218" />
    <path
       style="color:#000000;fill:#ce5c00;stroke:#2e3436;stroke-width:1.22474468;stroke-linecap:butt;stroke-linejoin:miter;stroke-miterlimit:4;stroke-opacity:1;stroke-dashoffset:0;marker:none;visibility:visible;display:inline;overflow:visible;enable-background:accumulate"
       d="m 104,900.36218 48,0 c -0.59345,-0.79129 -8.97788,3.61797 -12,8 -3.34189,4.8457 -21.9172,4.33535 -24,0 -3.79217,-7.89345 -11.85577,-8.35256 -12,-8 z"
       id="rect3819"
       inkscape:connector-curvature="0"
       sodipodi:nodetypes="ccssc" />
    <path
       style="color:#000000;fill:#fce94f;stroke:#2e3436;stroke-width:1.5;stroke-linecap:butt;stroke-linejoin:miter;stroke-miterlimit:4;stroke-opacity:1;stroke-dashoffset:0;marker:none;visibility:visible;display:inline;overflow:visible;enable-background:accumulate"
       d="m 116,1004.3622 24,0 0,0 -12,48 z"
       id="rect3821"
       inkscape:connector-curvature="0"
       sodipodi:nodetypes="ccccc" />
    <rect
       y="900.36218"
       x="100"
       height="104"
       width="24"
       id="rect4005"
       style="color:#000000;fill:#4e9a06;stroke:#2e3436;stroke-width:1.27475488;stroke-linecap:butt;stroke-linejoin:miter;stroke-miterlimit:4;stroke-opacity:1;stroke-dasharray:none;stroke-dashoffset:0;marker:none;visibility:visible;display:inline;overflow:visible;enable-background:accumulate" />
    <path
       sodipodi:nodetypes="ccssc"
       inkscape:connector-curvature="0"
       id="path4007"
       d="m 88,900.36218 48,0 c -0.59345,-0.79129 -8.97788,3.61797 -12,8 -3.34189,4.8457 -21.9172,4.33535 -24,0 -3.79217,-7.89345 -11.85577,-8.35256 -12,-8 z"
       style="color:#000000;fill:#ce5c00;stroke:#2e3436;stroke-width:1.22474468;stroke-linecap:butt;stroke-linejoin:miter;stroke-miterlimit:4;stroke-opacity:1;stroke-dashoffset:0;marker:none;visibility:visible;display:inline;overflow:visible;enable-background:accumulate" />
    <path
       sodipodi:nodetypes="ccccc"
       inkscape:connector-curvature="0"
       id="path4009"
       d="m 100,1004.3622 24,0 0,0 -12,48 z"
       style="color:#000000;fill:#fce94f;stroke:#2e3436;stroke-width:1.5;stroke-linecap:butt;stroke-linejoin:miter;stroke-miterlimit:4;stroke-opacity:1;stroke-dashoffset:0;marker:none;visibility:visible;display:inline;overflow:visible;enable-background:accumulate" />
    <rect
       style="color:#000000;fill:#4e9a06;stroke:#2e3436;stroke-width:1.27475488;stroke-linecap:butt;stroke-linejoin:miter;stroke-miterlimit:4;stroke-opacity:1;stroke-dasharray:none;stroke-dashoffset:0;marker:none;visibility:visible;display:inline;overflow:visible;enable-background:accumulate"
       id="rect4011"
       width="24"
       height="104"
       x="132"
       y="900.36218" />
    <path
       style="color:#000000;fill:#ce5c00;stroke:#2e3436;stroke-width:1.22474468;stroke-linecap:butt;stroke-linejoin:miter;stroke-miterlimit:4;stroke-opacity:1;stroke-dashoffset:0;marker:none;visibility:visible;display:inline;overflow:visible;enable-background:accumulate"
       d="m 120,900.36218 48,0 c -0.59345,-0.79129 -8.97788,3.61797 -12,8 -3.34189,4.8457 -21.9172,4.33535 -24,0 -3.79217,-7.89345 -11.85577,-8.35256 -12,-8 z"
       id="path4013"
       inkscape:connector-curvature="0"
       sodipodi:nodetypes="ccssc" />
    <path
       style="color:#000000;fill:#fce94f;stroke:#2e3436;stroke-width:1.5;stroke-linecap:butt;stroke-linejoin:miter;stroke-miterlimit:4;stroke-opacity:1;stroke-dashoffset:0;marker:none;visibility:visible;display:inline;overflow:visible;enable-background:accumulate"
       d="m 132,1004.3622 24,0 0,0 -12,48 z"
       id="path4015"
       inkscape:connector-curvature="0"
       sodipodi:nodetypes="ccccc" />
  </g>
  <g
     inkscape:groupmode="layer"
     id="layer-quake2-256"
     inkscape:label="quake2-256"
     style="display:inline">
    <path
       style="color:#000000;fill:url(#linearGradient4042);fill-opacity:1;fill-rule:nonzero;stroke:#132601;stroke-width:3;stroke-linecap:butt;stroke-linejoin:miter;stroke-miterlimit:4;stroke-opacity:1;stroke-dasharray:none;stroke-dashoffset:0;marker:none;visibility:visible;display:inline;overflow:visible;enable-background:accumulate"
       d="M 80,12.34375 C 51.310852,28.243604 32,57.952947 32,92 c 0,41.47923 28.634235,76.55017 68,88.03125 L 100,208 l 12,48 12,-48 0,-24.09375 c 1.32891,0.0523 2.65768,0.0937 4,0.0937 1.34232,0 2.67109,-0.0415 4,-0.0937 L 132,208 l 12,48 12,-48 0,-27.96875 C 195.36576,168.55017 224,133.47923 224,92 224,57.952947 204.68915,28.243604 176,12.34375 L 176,16 c 19.434,14.599292 32,37.82443 32,64 0,34.32876 -21.63147,63.6164 -52,74.96875 L 156,112 c 2.54991,-3.69734 8.90346,-7.4041 11.1875,-8 L 156,104 l -20,0 c -0.0927,-0.12364 -0.38953,-0.11035 -0.8125,0 L 124,104 l -2.59375,0 c -0.8355,-0.1168 -1.37019,-0.0881 -1.40625,0 l -30.59375,0 c 2.506492,0.35039 7.749623,2.07991 10.59375,8 l 0,42.96875 C 69.631471,143.6164 48,114.32876 48,80 48,53.82443 60.566002,30.599292 80,16 l 0,-3.65625 z M 89.40625,104 C 88.570753,103.8832 88.036057,103.91186 88,104 l 1.40625,0 z m 77.78125,0 0.8125,0 c -0.0927,-0.12364 -0.38953,-0.11035 -0.8125,0 z m -38.46875,3.53125 c 1.22623,1.12709 2.376,2.58446 3.28125,4.46875 l 0,47.90625 c -1.32278,0.065 -2.66109,0.0937 -4,0.0937 -1.33891,0 -2.67722,-0.0287 -4,-0.0937 L 124,112 c 1.08385,-1.57157 2.86223,-3.13133 4.71875,-4.46875 z"
       id="rect3945-8"
       inkscape:connector-curvature="0" />
    <path
       inkscape:connector-curvature="0"
       id="path3958"
       d="M 40,12.34375 C 11.310852,28.243604 -8,57.952947 -8,92 c 0,41.47923 28.634235,76.55017 68,88.03125 L 60,208 l 12,48 12,-48 0,-24.09375 c 1.32891,0.0523 2.65768,0.0937 4,0.0937 1.34232,0 2.67109,-0.0415 4,-0.0937 L 92,208 l 12,48 12,-48 0,-27.96875 C 155.36576,168.55017 184,133.47923 184,92 184,57.952947 164.68915,28.243604 136,12.34375 L 136,16 c 19.434,14.599292 32,37.82443 32,64 0,34.32876 -21.63147,63.6164 -52,74.96875 L 116,112 c 2.54991,-3.69734 8.90346,-7.4041 11.1875,-8 L 116,104 96,104 c -0.0927,-0.12364 -0.38953,-0.11035 -0.8125,0 L 84,104 81.40625,104 C 80.57075,103.8832 80.03606,103.9119 80,104 l -30.59375,0 c 2.506492,0.35039 7.749623,2.07991 10.59375,8 l 0,42.96875 C 29.631471,143.6164 8,114.32876 8,80 8,53.82443 20.566002,30.599292 40,16 l 0,-3.65625 z M 49.40625,104 C 48.570753,103.8832 48.036057,103.91186 48,104 l 1.40625,0 z m 77.78125,0 0.8125,0 c -0.0927,-0.12364 -0.38953,-0.11035 -0.8125,0 z m -38.46875,3.53125 C 89.94498,108.65834 91.09475,110.11571 92,112 l 0,47.90625 c -1.32278,0.065 -2.66109,0.0937 -4,0.0937 -1.33891,0 -2.67722,-0.0287 -4,-0.0937 L 84,112 c 1.08385,-1.57157 2.86223,-3.13133 4.71875,-4.46875 z"
       style="color:#000000;fill:none;stroke:#132601;stroke-width:3;stroke-linecap:butt;stroke-linejoin:miter;stroke-miterlimit:4;stroke-opacity:1;stroke-dasharray:none;stroke-dashoffset:0;marker:none;visibility:visible;display:inline;overflow:visible;filter:url(#filter3976);enable-background:accumulate"
       clip-path="url(#clipPath3984)"
       transform="translate(40,0)" />
  </g>
  <g
     inkscape:groupmode="layer"
     id="layer-quake2-48"
     inkscape:label="quake2-48"
     style="display:inline">
    <path
       inkscape:connector-curvature="0"
       id="path4160"
       d="m 15,210.31445 c -5.3792153,2.98123 -9,8.55173 -9,14.93555 0,7.77736 5.368919,14.35316 12.75,16.50586 l 0,5.24414 2.25,9 2.25,-9 0,-4.51758 c 0.249171,0.01 0.498315,0.0176 0.75,0.0176 0.251685,0 0.500829,-0.008 0.75,-0.0176 l 0,4.51758 2.25,9 2.25,-9 0,-5.24414 C 36.63108,239.60316 42,233.02736 42,225.25 42,218.86618 38.379216,213.29568 33,210.31445 L 33,211 c 3.643875,2.73737 6,7.09208 6,12 0,6.43664 -4.055901,11.92807 -9.75,14.05664 L 29.25,229 c 0.478108,-0.69325 1.669399,-1.38827 2.097656,-1.5 l -2.097656,0 -3.75,0 c -0.01738,-0.0232 -0.07304,-0.0207 -0.152344,0 l -2.097656,0 -0.486328,0 c -0.156656,-0.0219 -0.256911,-0.0165 -0.263672,0 l -5.736328,0 c 0.469967,0.0657 1.453054,0.38998 1.986328,1.5 l 0,8.05664 C 13.055901,234.92807 9,229.43664 9,223 c 0,-4.90792 2.356125,-9.26263 6,-12 l 0,-0.68555 z M 16.763672,227.5 c -0.156656,-0.0219 -0.256911,-0.0165 -0.263672,0 l 0.263672,0 z m 14.583984,0 0.152344,0 c -0.01738,-0.0232 -0.07304,-0.0207 -0.152344,0 z m -7.21289,0.66211 c 0.229918,0.21133 0.4455,0.48459 0.615234,0.83789 l 0,8.98242 c -0.248021,0.0122 -0.498954,0.0176 -0.75,0.0176 -0.251046,0 -0.501979,-0.005 -0.75,-0.0176 L 23.25,229 c 0.203222,-0.29467 0.536668,-0.58712 0.884766,-0.83789 z"
       style="color:#000000;fill:url(#linearGradient4166);fill-opacity:1;fill-rule:nonzero;stroke:#132601;stroke-width:1;stroke-linecap:butt;stroke-linejoin:miter;stroke-miterlimit:4;stroke-opacity:1;stroke-dasharray:none;stroke-dashoffset:0;marker:none;visibility:visible;display:inline;overflow:visible;enable-background:accumulate" />
  </g>
  <g
     inkscape:groupmode="layer"
     id="layer-quake2-16"
     inkscape:label="quake2-16"
     style="display:inline">
    <path
       style="color:#000000;fill:url(#linearGradient4192);fill-opacity:1;fill-rule:nonzero;stroke:#132601;stroke-width:1;stroke-linecap:butt;stroke-linejoin:miter;stroke-miterlimit:4;stroke-opacity:1;stroke-dasharray:none;stroke-dashoffset:0;marker:none;visibility:visible;display:inline;overflow:visible;enable-background:accumulate"
       d="m 5,240.77148 c -1.7930718,0.99375 -3,2.85058 -3,4.97852 0,2.59245 1.7896397,4.78439 4.25,5.50195 l 0,1.74805 0.75,3 0.75,-3 0,-1.50586 c 0.083057,0.003 0.166105,0.006 0.25,0.006 0.083895,0 0.166943,-0.003 0.25,-0.006 l 0,1.50586 0.75,3 0.75,-3 0,-1.74805 c 2.46036,-0.71756 4.25,-2.9095 4.25,-5.50195 0,-2.12794 -1.206928,-3.98477 -3,-4.97852 L 11,241 c 1.214625,0.91246 2,2.36403 2,4 0,2.14555 -1.351967,3.97602 -3.25,4.68555 L 9.75,247 c 0.1593693,-0.23108 0.556466,-0.46276 0.699219,-0.5 l -0.699219,0 -1.25,0 c -0.00579,-0.008 -0.024347,-0.007 -0.050781,0 l -0.6992187,0 -0.1621093,0 C 7.535672,246.493 7.502254,246.494 7.5,246.5 l -1.9121093,0 C 5.7445463,246.5219 6.072242,246.62999 6.25,247 l 0,2.68555 C 4.351967,248.97602 3,247.14555 3,245 c 0,-1.63597 0.785375,-3.08754 2,-4 l 0,-0.22852 z M 5.5878907,246.5 c -0.052219,-0.007 -0.085637,-0.006 -0.087891,0 l 0.087891,0 z m 4.8613283,0 0.05078,0 c -0.0058,-0.008 -0.02435,-0.007 -0.05078,0 z m -2.404297,0.2207 C 8.121561,246.7911 8.193422,246.88223 8.25,247 l 0,2.99414 c -0.082674,0.004 -0.166318,0.006 -0.25,0.006 -0.083682,0 -0.1673263,-0.002 -0.25,-0.006 L 7.75,247 c 0.067741,-0.0982 0.1788893,-0.19571 0.294922,-0.2793 z"
       id="path4186"
       inkscape:connector-curvature="0" />
  </g>
  <g
     inkscape:groupmode="layer"
     id="layer-quake2-22"
     inkscape:label="quake2-22"
     style="display:inline">
    <path
       style="color:#000000;fill:url(#linearGradient4183);fill-opacity:1;fill-rule:nonzero;stroke:#132601;stroke-width:1;stroke-linecap:butt;stroke-linejoin:miter;stroke-miterlimit:4;stroke-opacity:1;stroke-dasharray:none;stroke-dashoffset:0;marker:none;visibility:visible;display:inline;overflow:visible;enable-background:accumulate"
       d="m 6.875,235.06079 c -2.4654737,1.3664 -4.125,3.91954 -4.125,6.84546 0,3.56462 2.4607545,6.57853 5.84375,7.56519 l 0,2.40356 1.03125,4.125 1.03125,-4.125 0,-2.07056 c 0.114203,0.005 0.228394,0.008 0.34375,0.008 0.115356,0 0.229547,-0.004 0.34375,-0.008 l 0,2.07056 1.03125,4.125 1.03125,-4.125 0,-2.40356 c 3.382995,-0.98666 5.84375,-4.00057 5.84375,-7.56519 0,-2.92592 -1.659526,-5.47906 -4.125,-6.84546 l 0,0.31421 c 1.670109,1.25463 2.75,3.25054 2.75,5.5 0,2.95013 -1.858955,5.46703 -4.46875,6.44263 l 0,-3.69263 c 0.219133,-0.31774 0.765141,-0.63629 0.961426,-0.6875 l -0.961426,0 -1.71875,0 c -0.008,-0.0106 -0.03348,-0.009 -0.06982,0 l -0.961426,0 -0.2229,0 c -0.0718,-0.01 -0.117751,-0.008 -0.12085,0 l -2.6291503,0 c 0.2154015,0.0301 0.6659831,0.17874 0.9104003,0.6875 l 0,3.69263 C 5.9839546,246.34203 4.125,243.82513 4.125,240.875 c 0,-2.24946 1.0798906,-4.24537 2.75,-5.5 l 0,-0.31421 z m 0.8083497,7.87671 c -0.071801,-0.01 -0.1177509,-0.008 -0.1208497,0 l 0.1208497,0 z m 6.6843263,0 0.06982,0 c -0.008,-0.0106 -0.03348,-0.009 -0.06982,0 z m -3.305908,0.30347 c 0.105379,0.0969 0.204187,0.2221 0.281982,0.38403 l 0,4.11694 c -0.113676,0.006 -0.228687,0.008 -0.34375,0.008 -0.115063,0 -0.230074,-0.002 -0.34375,-0.008 l 0,-4.11694 c 0.09314,-0.13506 0.245973,-0.2691 0.405518,-0.38403 z"
       id="path4177"
       inkscape:connector-curvature="0" />
  </g>
  <g
     inkscape:groupmode="layer"
     id="layer-quake2-32"
     inkscape:label="quake2-32"
     style="display:inline">
    <path
       style="color:#000000;fill:url(#linearGradient4173);fill-opacity:1;fill-rule:nonzero;stroke:#132601;stroke-width:1;stroke-linecap:butt;stroke-linejoin:miter;stroke-miterlimit:4;stroke-opacity:1;stroke-dasharray:none;stroke-dashoffset:0;marker:none;visibility:visible;display:inline;overflow:visible;enable-background:accumulate"
       d="m 10,225.54297 c -3.5861435,1.98748 -6,5.70115 -6,9.95703 0,5.18491 3.5792793,9.56877 8.5,11.00391 l 0,3.49609 1.5,6 1.5,-6 0,-3.01172 c 0.166114,0.007 0.33221,0.0117 0.5,0.0117 0.16779,0 0.333886,-0.005 0.5,-0.0117 l 0,3.01172 1.5,6 1.5,-6 0,-3.49609 c 4.92072,-1.43514 8.5,-5.819 8.5,-11.00391 0,-4.25588 -2.413856,-7.96955 -6,-9.95703 L 22,226 c 2.42925,1.82491 4,4.72805 4,8 0,4.29109 -2.703934,7.95205 -6.5,9.37109 L 19.5,238 c 0.318739,-0.46217 1.112933,-0.92551 1.398437,-1 L 19.5,237 17,237 c -0.01159,-0.0155 -0.04869,-0.0138 -0.101563,0 L 15.5,237 15.175781,237 C 15.071344,236.9854 15.004507,236.989 15,237 l -3.824219,0 c 0.313312,0.0438 0.968703,0.25999 1.324219,1 l 0,5.37109 C 8.703934,241.95205 6,238.29109 6,234 c 0,-3.27195 1.57075,-6.17509 4,-8 l 0,-0.45703 z M 11.175781,237 C 11.071344,236.9854 11.004507,236.989 11,237 l 0.175781,0 z m 9.722656,0 L 21,237 c -0.01159,-0.0155 -0.04869,-0.0138 -0.101563,0 z m -4.808593,0.44141 c 0.153279,0.14088 0.297,0.32306 0.410156,0.55859 l 0,5.98828 c -0.165347,0.008 -0.332636,0.0117 -0.5,0.0117 -0.167364,0 -0.334653,-0.003 -0.5,-0.0117 L 15.5,238 c 0.135481,-0.19645 0.357779,-0.39141 0.589844,-0.55859 z"
       id="path4169"
       inkscape:connector-curvature="0" />
  </g>
  <g
     inkscape:groupmode="layer"
     id="layer-quake-256"
     inkscape:label="quake-256"
     style="display:inline">
    <path
       style="color:#000000;fill:url(#linearGradient4093);fill-opacity:1;fill-rule:nonzero;stroke:#5f3b01;stroke-width:3;stroke-linecap:butt;stroke-linejoin:miter;stroke-miterlimit:4;stroke-opacity:1;stroke-dasharray:none;stroke-dashoffset:0;marker:none;visibility:visible;display:inline;overflow:visible;enable-background:accumulate"
       d="M 80,12.34375 C 51.310852,28.243604 32,57.952947 32,92 c 0,46.91303 36.648021,85.61882 84,91.28125 L 116,208 l 12,48 12,-48 0,-24.71875 C 187.35198,177.61882 224,138.91303 224,92 224,57.952947 204.68915,28.243604 176,12.34375 L 176,16 c 19.434,14.599292 32,37.82443 32,64 0,40.1057 -29.50793,73.33691 -68,79.125 L 140,112 c 2.54991,-3.69734 8.90346,-7.4041 11.1875,-8 L 140,104 l -24,0 -10.59375,0 c 2.50649,0.35039 7.74962,2.07991 10.59375,8 l 0,47.125 C 77.507928,153.33691 48,120.1057 48,80 48,53.82443 60.566002,30.599292 80,16 l 0,-3.65625 z M 105.40625,104 c -0.8355,-0.1168 -1.37019,-0.0881 -1.40625,0 l 1.40625,0 z m 45.78125,0 0.8125,0 c -0.0927,-0.12364 -0.38953,-0.11035 -0.8125,0 z"
       id="rect3999"
       inkscape:connector-curvature="0" />
    <path
       style="color:#000000;fill:none;stroke:#5f3b01;stroke-width:3;stroke-linecap:butt;stroke-linejoin:miter;stroke-miterlimit:4;stroke-opacity:1;stroke-dasharray:none;stroke-dashoffset:0;marker:none;visibility:visible;display:inline;overflow:visible;filter:url(#filter3898);enable-background:accumulate"
       d="M 100,12.34375 C 71.310852,28.243604 52,57.952947 52,92 c 0,46.91303 36.648021,85.61882 84,91.28125 L 136,208 l 12,48 12,-48 0,-24.71875 C 207.35198,177.61882 244,138.91303 244,92 244,57.952947 224.68915,28.243604 196,12.34375 L 196,16 c 19.434,14.599292 32,37.82443 32,64 0,40.1057 -29.50793,73.33691 -68,79.125 L 160,112 c 2.54991,-3.69734 8.90346,-7.4041 11.1875,-8 L 160,104 l -24,0 -10.59375,0 c 2.50649,0.35039 7.74962,2.07991 10.59375,8 l 0,47.125 C 97.507928,153.33691 68,120.1057 68,80 68,53.82443 80.566002,30.599292 100,16 l 0,-3.65625 z M 125.40625,104 c -0.8355,-0.1168 -1.37019,-0.0881 -1.40625,0 l 1.40625,0 z m 45.78125,0 0.8125,0 c -0.0927,-0.12364 -0.38953,-0.11035 -0.8125,0 z"
       id="path3832"
       inkscape:connector-curvature="0"
       clip-path="url(#clipPath3862)"
       transform="translate(-20,0)" />
  </g>
  <g
     inkscape:groupmode="layer"
     id="layer-quake-16"
     inkscape:label="quake-16"
     style="display:inline">
    <path
       style="color:#000000;fill:url(#linearGradient4145);fill-opacity:1;fill-rule:nonzero;stroke:#5f3b01;stroke-width:1;stroke-linecap:butt;stroke-linejoin:miter;stroke-miterlimit:4;stroke-opacity:1;stroke-dasharray:none;stroke-dashoffset:0;marker:none;visibility:visible;display:inline;overflow:visible;enable-background:accumulate"
       d="m 5,240.77148 c -1.7930718,0.99374 -3,2.85058 -3,4.97852 0,2.93207 2.2905014,5.35118 5.25,5.70508 l 0,1.54492 0.75,3 0.75,-3 0,-1.54492 c 2.959498,-0.3539 5.25,-2.77301 5.25,-5.70508 0,-2.12794 -1.206928,-3.98478 -3,-4.97852 L 11,241 c 1.214625,0.91246 2,2.36402 2,4 0,2.5066 -1.844246,4.58356 -4.25,4.94532 L 8.75,247 c 0.1593695,-0.23108 0.5564662,-0.46276 0.6992182,-0.5 l -0.6992182,0 -1.5,0 -0.6621095,0 C 6.7445465,246.5219 7.072242,246.62999 7.25,247 l 0,2.94532 C 4.8442457,249.58356 3,247.5066 3,245 c 0,-1.63598 0.785375,-3.08754 2,-4 l 0,-0.22852 z M 6.5878905,246.5 c -0.052218,-0.007 -0.085637,-0.006 -0.087891,0 l 0.087891,0 z m 2.8613277,0 0.050778,0 c -0.00582,-0.008 -0.024342,-0.007 -0.050778,0 z"
       id="path4141"
       inkscape:connector-curvature="0" />
  </g>
  <g
     inkscape:groupmode="layer"
     id="layer-quake-22"
     inkscape:label="quake-22"
     style="display:inline">
    <path
       inkscape:connector-curvature="0"
       id="path4135"
       d="m 6.875,235.06079 c -2.4654737,1.36639 -4.125,3.91954 -4.125,6.84546 0,4.03159 3.1494394,7.35787 7.21875,7.84448 l 0,2.12427 L 11,256 l 1.03125,-4.125 0,-2.12427 c 4.06931,-0.48661 7.21875,-3.81289 7.21875,-7.84448 0,-2.92592 -1.659526,-5.47907 -4.125,-6.84546 l 0,0.31421 c 1.670109,1.25463 2.75,3.25053 2.75,5.5 0,3.44658 -2.535838,6.30239 -5.84375,6.79981 l 0,-4.04981 c 0.219133,-0.31774 0.765141,-0.63629 0.961425,-0.6875 l -0.961425,0 -2.0625,0 -0.9104006,0 c 0.215402,0.0301 0.6659834,0.17874 0.9104006,0.6875 l 0,4.04981 C 6.6608378,247.17739 4.125,244.32158 4.125,240.875 c 0,-2.24947 1.0798906,-4.24537 2.75,-5.5 l 0,-0.31421 z m 2.1833494,7.87671 c -0.0718,-0.01 -0.1177508,-0.008 -0.1208494,0 l 0.1208494,0 z m 3.9343256,0 0.06982,0 c -0.008,-0.0107 -0.03347,-0.009 -0.06982,0 z"
       style="color:#000000;fill:url(#linearGradient4139);fill-opacity:1;fill-rule:nonzero;stroke:#5f3b01;stroke-width:1;stroke-linecap:butt;stroke-linejoin:miter;stroke-miterlimit:4;stroke-opacity:1;stroke-dasharray:none;stroke-dashoffset:0;marker:none;visibility:visible;display:inline;overflow:visible;enable-background:accumulate" />
  </g>
  <g
     inkscape:groupmode="layer"
     id="layer-quake-48"
     inkscape:label="quake-48"
     style="display:inline">
    <path
       inkscape:connector-curvature="0"
       id="path4097"
       d="m 15,210.31445 c -5.3792153,2.98123 -9,8.55173 -9,14.93555 0,8.79619 6.871504,16.05353 15.75,17.11523 l 0,4.63477 2.25,9 2.25,-9 0,-4.63477 C 35.128496,241.30353 42,234.04619 42,225.25 42,218.86618 38.379216,213.29568 33,210.31445 L 33,211 c 3.643875,2.73737 6,7.09208 6,12 0,7.51982 -5.532737,13.75067 -12.75,14.83594 L 26.25,229 c 0.478108,-0.69325 1.669399,-1.38827 2.097656,-1.5 l -2.097656,0 -4.5,0 -1.986328,0 c 0.469967,0.0657 1.453054,0.38998 1.986328,1.5 l 0,8.83594 C 14.532737,236.75067 9,230.51982 9,223 c 0,-4.90792 2.356125,-9.26263 6,-12 l 0,-0.68555 z M 19.763672,227.5 c -0.156656,-0.0219 -0.256911,-0.0165 -0.263672,0 l 0.263672,0 z m 8.583984,0 0.152344,0 c -0.01738,-0.0232 -0.07304,-0.0207 -0.152344,0 z"
       style="color:#000000;fill:url(#linearGradient4101);fill-opacity:1;fill-rule:nonzero;stroke:#5f3b01;stroke-width:1;stroke-linecap:butt;stroke-linejoin:miter;stroke-miterlimit:4;stroke-opacity:1;stroke-dasharray:none;stroke-dashoffset:0;marker:none;visibility:visible;display:inline;overflow:visible;enable-background:accumulate" />
  </g>
  <g
     inkscape:groupmode="layer"
     id="layer-quake-32"
     inkscape:label="quake-32"
     style="display:inline">
    <path
       style="color:#000000;fill:url(#linearGradient4127);fill-opacity:1;fill-rule:nonzero;stroke:#5f3b01;stroke-width:1;stroke-linecap:butt;stroke-linejoin:miter;stroke-miterlimit:4;stroke-opacity:1;stroke-dasharray:none;stroke-dashoffset:0;marker:none;visibility:visible;display:inline;overflow:visible;enable-background:accumulate"
       d="m 10,225.54297 c -3.5861435,1.98748 -6,5.70115 -6,9.95703 0,5.86413 4.5810027,10.70235 10.5,11.41015 l 0,3.08985 1.5,6 1.5,-6 0,-3.08985 C 23.418997,246.20235 28,241.36413 28,235.5 c 0,-4.25588 -2.413856,-7.96955 -6,-9.95703 L 22,226 c 2.42925,1.82491 4,4.72805 4,8 0,5.01321 -3.688491,9.16711 -8.5,9.89063 L 17.5,238 c 0.318739,-0.46217 1.112933,-0.92551 1.398437,-1 L 17.5,237 l -3,0 -1.324219,0 c 0.313312,0.0438 0.968703,0.25999 1.324219,1 l 0,5.89063 C 9.6884913,243.16711 6,239.01321 6,234 c 0,-3.27195 1.57075,-6.17509 4,-8 l 0,-0.45703 z M 13.175781,237 C 13.071344,236.9854 13.004507,236.989 13,237 l 0.175781,0 z m 5.722656,0 L 19,237 c -0.01159,-0.0155 -0.04869,-0.0138 -0.101563,0 z"
       id="path4123"
       inkscape:connector-curvature="0" />
  </g>
</svg>
