/* XPM */
static char *q3ta[] = {
/* columns rows colors chars-per-pixel */
"32 32 216 2",
"   c black",
".  c #040404",
"X  c #0D0202",
"o  c #090A09",
"O  c #0D100D",
"+  c #160606",
"@  c #1B100E",
"#  c #131614",
"$  c #161212",
"%  c #1B1B18",
"&  c #1F201D",
"*  c #1B2222",
"=  c #260302",
"-  c #220A0A",
";  c #2B110E",
":  c #281515",
">  c #320100",
",  c #320908",
"<  c #320E0B",
"1  c #3B0301",
"2  c #3F0705",
"3  c #371616",
"4  c #391110",
"5  c #3D191A",
"6  c #311E20",
"7  c #2C2420",
"8  c #292A26",
"9  c #2C2F2C",
"0  c #2F2B34",
"q  c #352B26",
"w  c #392F36",
"e  c #38302B",
"r  c #333533",
"t  c #303038",
"y  c #373A36",
"u  c #38333E",
"i  c #3F3A36",
"p  c #383C3A",
"a  c #3F3D3A",
"s  c #3E4644",
"d  c #440502",
"f  c #460806",
"g  c #4B0400",
"h  c #421312",
"j  c #411F1E",
"k  c #441A18",
"l  c #4B1413",
"z  c #4E1817",
"x  c #4D1C1B",
"c  c #550400",
"v  c #540A05",
"b  c #500B08",
"n  c #5B0603",
"m  c #5E0A05",
"M  c #59130E",
"N  c #541412",
"B  c #541817",
"V  c #5A1312",
"C  c #5B1915",
"Z  c #5E1E1B",
"A  c #4A2322",
"S  c #4D2C2F",
"D  c #42312C",
"F  c #413631",
"G  c #4A3C36",
"H  c #562120",
"J  c #552726",
"K  c #5B302C",
"L  c #553638",
"P  c #650602",
"I  c #660902",
"U  c #640A06",
"Y  c #670D03",
"T  c #6A0902",
"R  c #6A0905",
"E  c #6A0C06",
"W  c #6E0A02",
"Q  c #6E0A05",
"!  c #6E0D07",
"~  c #6A110D",
"^  c #621512",
"/  c #601717",
"(  c #631916",
")  c #621E1B",
"_  c #6B1512",
"`  c #6D1A16",
"'  c #6A1D1B",
"]  c #700600",
"[  c #720B05",
"{  c #740800",
"}  c #760903",
"|  c #7A0B05",
" . c #7E0A04",
".. c #751106",
"X. c #73130E",
"o. c #76100A",
"O. c #7C140D",
"+. c #7E1711",
"@. c #791815",
"#. c #7E1F1C",
"$. c #70201E",
"%. c #672726",
"&. c #642E2D",
"*. c #673937",
"=. c #6B3031",
"-. c #762723",
";. c #7C3534",
":. c #40423C",
">. c #4C403D",
",. c #534038",
"<. c #57453E",
"1. c #63473E",
"2. c #414241",
"3. c #444948",
"4. c #4C4644",
"5. c #4A4C45",
"6. c #4C4D4B",
"7. c #4B514D",
"8. c #4D5456",
"9. c #5B4942",
"0. c #554B55",
"q. c #52514B",
"w. c #525551",
"e. c #535A59",
"r. c #5F5151",
"t. c #585D5C",
"y. c #5E6263",
"u. c #60444E",
"i. c #664B45",
"p. c #69544B",
"a. c #605B55",
"s. c #68595A",
"d. c #774C49",
"f. c #715C52",
"g. c #795951",
"h. c #66596A",
"j. c #7B6158",
"k. c #666B69",
"l. c #686560",
"z. c #646A7A",
"x. c #6D706C",
"c. c #6B7579",
"v. c #746B64",
"b. c #786E71",
"n. c #76756A",
"m. c #757A78",
"M. c #707E8B",
"N. c #7C8280",
"B. c #79858E",
"V. c #850E07",
"C. c #8C0F05",
"Z. c #82130C",
"A. c #85170F",
"S. c #8C130B",
"D. c #8D180F",
"F. c #8D1E17",
"G. c #9C0D06",
"H. c #94130A",
"J. c #971608",
"K. c #9A150B",
"L. c #951910",
"P. c #961D15",
"I. c #9E1B12",
"U. c #91241B",
"Y. c #8B2E25",
"T. c #81302C",
"R. c #A8180C",
"E. c #A61E16",
"W. c #B7170B",
"Q. c #AE2214",
"!. c #BA2112",
"~. c #A83021",
"^. c #8D4A4A",
"/. c #81685D",
"(. c #886D62",
"). c #8F6F65",
"_. c #8A736A",
"`. c #8C7D7B",
"'. c #957669",
"]. c #A85854",
"[. c #AC766D",
"{. c #CC180A",
"}. c #CD2515",
"|. c #F01004",
" X c #E86260",
".X c #998277",
"XX c #AA8879",
"oX c #B68F7F",
"OX c #888885",
"+X c #828F91",
"@X c #8D908E",
"#X c #82939D",
"$X c #9D948C",
"%X c #979995",
"&X c #8C9BA5",
"*X c #9DA09D",
"=X c #8DA4B6",
"-X c #9FADB5",
";X c #A9A49D",
":X c #A6AAA5",
">X c #A4B4BB",
",X c #AFB2B0",
"<X c #ABBCC6",
"1X c #BCC2C0",
"2X c #B5CAD9",
"3X c #C49B8B",
"4X c #D1A999",
"5X c #D0B0A5",
"6X c #FC9E9D",
"7X c #E7C4B5",
"8X c #C3CED3",
"9X c #C2E2F5",
"0X c #D7E2E2",
"qX c #FBD4CC",
"wX c #FFE3D3",
"eX c #F2F9F9",
/* pixels */
"@.@.x K ^.3X[.;.-.$._ ~ o.S.W.{.|.|.{.R.L.+._ ^ M M C =.`.6.m.1X",
"@.+.( A S *.L %.-.$._ ~ o.J.{.|.|.|.{.W.L.+.` / V N B &.x.a m.*X",
"+.A.S.^ j j &.-.$.' ` ~ o.K.{.|.|.|.{.W.P.@.` / V l z &.n.:.a.OX",
"A.S.H.V #.P.~.#.) ' ` _ X.S.W.{.|.|.{.E.F.#.' / B l z K n.:.2.l.",
"S.K.R.E. X6X XE.' ) ( _ X.Z.K.W.W.W.R.P.#.$.$.) B l x J /.N.w.m.",
"G.G.R.I.5XeX5XU.@./ / ^ ~ X.Z.D.L.L.F.#.-.%.&.%.H z k A r.OX1X,X",
"G.G.H.d.+X#X@Xj.#.( C C ^ ~ X.@.+.#.#.-.=.*.*.L S A 5 3 L t.:X%X",
"C.G.@.N.<X0X+X+Xs.) B N V ^ ^ _ ` $.%.*.i.u.u.u.L S 5 - j t.t.6.",
" .V.) e.m.>X3.8.8.J B N N N N V ( ' &.i.s.h.h.h.0.G 6 $ 3 4.& $ ",
"} } B 7.r & s 8.i H B z z l l l B Z &.u.z.M.B.B.z.0.0 : D y.8 8 ",
"I n H 7.o . % 7.>.N C l h h 4 h l z H L z.#X2X2X=Xz.w 6 5.& 8 a ",
"n c L 8 o o @ 6.y.j M l h 4 4 4 4 h z J u.z.=X9X9Xz.u <.8 O :.w.",
"n l r o $ 7 9.p.y.y.A x h 4 4 < < < 4 z A L 0.z.8.t s.4.O % 7.y.",
"U >.& 7 D <.XXoX9.6.y.<.J k 4 < - - + - 3 5 j 5 5 s.6.% # % p x.",
"L y % p.i.(.4X3Xj.G a.N.m.*.J x k 3 , = = - 4 S `.6.& & 8 8 r e.",
"+Xr F oX'.XX4X3Xg.,.,.e q.N.m.b.l.L 1.i.i.r.`.*Xx.9 s a :.p 2.y.",
"k.p e 4X3X3X'.f.q 7 q D <.G 4.v.+X+XB.v.$X;Xl.i 7 e.7.7.e.e.t.c.",
"e.s & 3X4X7X5X/.<.,.F 9.f.p.<.G G i a q :.% & % 8 c.7.3.y.+XN.#X",
"k.2.# /.4X7X7X3X).f.p.f.j.f./.f.p.,.F e 7 7 e q l.c.e.3.c.+X#XeX",
"m.r # F 4X7XqXoXXXXX'._._.(._.'.f.f.p.f.p.i.<.>.&X+Xe.8.+XB.<X<X",
"N.y & % XX7X7XXX[.[.).)._.(.(._./.i.i.j./.f.G l.-XN.2.k.&X&X<X&X",
"c.y 9 & /.3Xp.p.g.1.,.,.<.i.i.f._./.p.p.j.i.G &X&X9 y B.#X<X>X-X",
"m.9 & 8 >.)././.g.1.G F q q D ,./.(.f.i.p.9.a.<X&Xz.z.&X&X<X=Xc.",
"y.8 # 9 y XX4X3XoXoX'.g.i.,.e 7 p.j.p.<.9.1.m.>X<X8X2X2X<X=X4.- ",
"t.8 & 9 & [.4XXXXXXXXX[.).j.p.<.9.p.<.<.9.9.,.k.y.8.OX1X>X4.X = ",
"7.9 # + P ].XX).(./.j.g.j./.(.f.9.9.<.9.9.,.G 9.3.* 8 <.3 X = > ",
"o   = A.C.#./.j.j./.(.j.).'./.f.p.<.9.p.<.L ' O.%.; - = = > > c ",
"  = F.S.] X.XX5X7X5X3X_._./.j.f.p.<.9.1.%.A.K.L.D.X.n d > > g } ",
", F.Z.n P P [.wXqX7X5X4XXX_._.g.a.G *.U.R.!.I.D.o.n d 1 > E C.d ",
"S.| T P T c ;.7X7X4X5X5X3X.X(.p.*.Y.Q.}.!.I.A.! n d 2 1 ! K.g > ",
"[ T I I W E v j..X_..X$X(.y.i.Y.E.}.}.E.D.O.U v f 2 2 o.R.I > J.",
"Y I P T Q ! m , ; - - ; B ;.Q.!.}.E.A.X.o.U v f f f O.!.m 1 ..}."
};
