/* XPM */
static char * quake332_xpm[] = {
"32 32 230 2",
"  	c None",
". 	c #6A0303",
"+ 	c #830909",
"@ 	c #9B1212",
"# 	c #B01F1F",
"$ 	c #C52D2D",
"% 	c #610505",
"& 	c #831414",
"* 	c #D53939",
"= 	c #6B0505",
"- 	c #8F1E1E",
"; 	c #E34343",
"> 	c #760808",
", 	c #9A2828",
"' 	c #EC4A4A",
") 	c #820808",
"! 	c #850B0B",
"~ 	c #630202",
"{ 	c #A53333",
"] 	c #F14F4F",
"^ 	c #8E0A0A",
"/ 	c #650202",
"( 	c #850A0A",
"_ 	c #A01818",
": 	c #7E0C0C",
"< 	c #490000",
"[ 	c #B23E3E",
"} 	c #F15151",
"| 	c #9B0A0A",
"1 	c #8A0D0D",
"2 	c #A01414",
"3 	c #820F0F",
"4 	c #AC2525",
"5 	c #3D0202",
"6 	c #BE4A4A",
"7 	c #EF5050",
"8 	c #AB0B0B",
"9 	c #A71313",
"0 	c #7E0808",
"a 	c #9D2424",
"b 	c #B74040",
"c 	c #310000",
"d 	c #CA5757",
"e 	c #EC4E4E",
"f 	c #B30B0B",
"g 	c #B11111",
"h 	c #8B0A0A",
"i 	c #941010",
"j 	c #DC3C3C",
"k 	c #AF3636",
"l 	c #992424",
"m 	c #821212",
"n 	c #D36161",
"o 	c #E94A4A",
"p 	c #BC0A0A",
"q 	c #841010",
"r 	c #971919",
"s 	c #CB1616",
"t 	c #710707",
"u 	c #A10C0C",
"v 	c #D23131",
"w 	c #EA4C4C",
"x 	c #E25F5F",
"y 	c #D96363",
"z 	c #D05D5D",
"A 	c #CA5555",
"B 	c #C34B4B",
"C 	c #C04646",
"D 	c #BA4242",
"E 	c #A02626",
"F 	c #6D0606",
"G 	c #DC6A6A",
"H 	c #E54545",
"I 	c #C30909",
"J 	c #560303",
"K 	c #9C2222",
"L 	c #BD4040",
"M 	c #C14242",
"N 	c #C24444",
"O 	c #C94B4B",
"P 	c #CD4B4B",
"Q 	c #CF4343",
"R 	c #CF2F2F",
"S 	c #D11F1F",
"T 	c #BE1111",
"U 	c #270000",
"V 	c #780808",
"W 	c #C01818",
"X 	c #DB2F2F",
"Y 	c #E85A5A",
"Z 	c #EB6B6B",
"` 	c #EE7878",
" .	c #F69797",
"..	c #C55050",
"+.	c #690909",
"@.	c #E47070",
"#.	c #E13F3F",
"$.	c #C70808",
"%.	c #590505",
"&.	c #BE4545",
"*.	c #F58686",
"=.	c #E95F5F",
"-.	c #E34D4D",
";.	c #DB3939",
">.	c #D52525",
",.	c #CA1414",
"'.	c #B20A0A",
").	c #880909",
"!.	c #4C0505",
"~.	c #1C0000",
"{.	c #5A0404",
"].	c #750808",
"^.	c #8B0909",
"/.	c #A60A0A",
"(.	c #C00E0E",
"_.	c #D01616",
":.	c #EC7575",
"<.	c #B54141",
"[.	c #590808",
"}.	c #E26969",
"|.	c #DD3939",
"1.	c #C50808",
"2.	c #520404",
"3.	c #AD3737",
"4.	c #EB6666",
"5.	c #CF0D0D",
"6.	c #BE0A0A",
"7.	c #A30A0A",
"8.	c #800909",
"9.	c #5A0606",
"0.	c #370202",
"a.	c #180000",
"b.	c #7D0A0A",
"c.	c #C61010",
"d.	c #E86868",
"e.	c #A33232",
"f.	c #440404",
"g.	c #D65757",
"h.	c #D83333",
"i.	c #BB0909",
"j.	c #3E0303",
"k.	c #9C2A2A",
"l.	c #E65858",
"m.	c #C70D0D",
"n.	c #680909",
"o.	c #200000",
"p.	c #700606",
"q.	c #BD0F0F",
"r.	c #E35B5B",
"s.	c #922626",
"t.	c #3C0202",
"u.	c #C94646",
"v.	c #D32C2C",
"w.	c #B10A0A",
"x.	c #370101",
"y.	c #9A2222",
"z.	c #E04949",
"A.	c #BF0D0D",
"B.	c #4A0404",
"C.	c #B30F0F",
"D.	c #DC4B4B",
"E.	c #831C1C",
"F.	c #3A0000",
"G.	c #BD3636",
"H.	c #CD2525",
"I.	c #A50B0B",
"J.	c #300000",
"K.	c #941A1A",
"L.	c #D83A3A",
"M.	c #B40D0D",
"N.	c #3E0202",
"O.	c #A80E0E",
"P.	c #D53C3C",
"Q.	c #761313",
"R.	c #B12929",
"S.	c #C91F1F",
"T.	c #970B0B",
"U.	c #8B1313",
"V.	c #CE2B2B",
"W.	c #A50D0D",
"X.	c #9E0D0D",
"Y.	c #CD2E2E",
"Z.	c #690D0D",
"`.	c #A41E1E",
" +	c #C51919",
".+	c #890A0A",
"++	c #830E0E",
"@+	c #C51F1F",
"#+	c #920B0B",
"$+	c #930C0C",
"%+	c #C52323",
"&+	c #5C0808",
"*+	c #981414",
"=+	c #C01313",
"-+	c #7A0909",
";+	c #7E0909",
">+	c #BD1616",
",+	c #810A0A",
"'+	c #870909",
")+	c #BB1919",
"!+	c #4E0505",
"~+	c #8C0D0D",
"{+	c #BB0F0F",
"]+	c #6F0707",
"^+	c #B51111",
"/+	c #800808",
"(+	c #B21414",
"_+	c #440202",
":+	c #840808",
"<+	c #B70D0D",
"[+	c #610606",
"}+	c #B01111",
"|+	c #5E0505",
"1+	c #A81414",
"2+	c #3C0101",
"3+	c #B40F0F",
"4+	c #560505",
"5+	c #AB1313",
"6+	c #4B0404",
"7+	c #991010",
"8+	c #410303",
"9+	c #760707",
"0+	c #A81313",
"a+	c #400303",
"b+	c #770707",
"c+	c #620202",
"d+	c #961010",
"e+	c #380000",
"f+	c #7B0808",
"g+	c #620101",
"                                                                ",
"                                .                               ",
"                                +                               ",
"                                @                               ",
"                                #                               ",
"                                $ %                             ",
"                              & * =                             ",
"                              - ; >                             ",
"                              , ' )                             ",
"        ! ~                   { ] ^                   / (       ",
"      _ : <                   [ } |                     1 2     ",
"    3 4 5                     6 7 8                       9 0   ",
"    a b c                     d e f                       g h   ",
"    i j k l m                 n o p                 q r 9 s t   ",
"      u v w x y z A B C D E F G H I J K L M N O P Q R S T 0 U   ",
"        V | W X H Y Z `  ...+.@.#.$.%.&.*.=.-.;.>.,.'.).!.~.    ",
"            {.].^./.(._.:.<.[.}.|.1.2.3.4.5.6.7.8.9.0.a.        ",
"                    b.c.d.e.f.g.h.i.j.k.l.m.n.o.                ",
"                    p.q.r.s.t.u.v.w.x.y.z.A.B.                  ",
"                      C.D.E.F.G.H.I.J.K.L.M.N.                  ",
"                      O.P.Q.  R.S.T.  U.V.W.c                   ",
"                      X.Y.Z.  `. +.+  ++@+#+                    ",
"                      $+%+&+  *+=+-+  ;+>+,+                    ",
"                      '+)+!+  ~+{+]+    ^+]+                    ",
"                      /+(+_+  :+<+[+    }+|+                    ",
"                        1+2+  0 3+4+    5+!+                    ",
"                        i       }+6+    7+8+                    ",
"                        9+      0+a+    b+                      ",
"                        c+      d+e+                            ",
"                                f+                              ",
"                                g+                              ",
"                                                                "};
