/* XPM */
/*
  converted from chex.svg
  (c) 2015 Alexandre Detiste
  license under the terms of the GPL-2
  or any later version
*/
static char *chex[] = {
/* columns rows colors chars-per-pixel */
"64 62 67 1 ",
"  c #B67229",
". c #BD752B",
"X c #BE722E",
"o c #BF6D34",
"O c #BF7031",
"+ c #C17D24",
"@ c #C1772C",
"# c #C77E29",
"$ c #C3782C",
"% c #C16E35",
"& c #C67036",
"* c #C87137",
"= c #C6871E",
"- c #C7881E",
"; c #CA8D1B",
": c #C98B1C",
"> c #CB8D1C",
", c #CE8D1E",
"< c #D18F1E",
"1 c #CD901A",
"2 c #D09417",
"3 c #D59A15",
"4 c #D49817",
"5 c #D69916",
"6 c #D99F14",
"7 c #DA9E15",
"8 c #D1911B",
"9 c #D29519",
"0 c #D6961A",
"q c #D3911C",
"w c #D7AA06",
"e c #DEA80E",
"r c #DBA211",
"t c #DAA013",
"y c #DDA311",
"u c #DEA212",
"i c #DEA511",
"p c #DCA114",
"a c #E3AF0A",
"s c #E1A90E",
"d c #E0A80F",
"f c #E3AD0C",
"g c #E4AD0C",
"h c #E4AE0D",
"j c #EAB706",
"k c #E9BA03",
"l c #EBB905",
"z c #E4B109",
"x c #E6B10B",
"c c #ECB608",
"v c #ECB808",
"b c #C48222",
"n c #C78620",
"m c #CD8723",
"M c #C88324",
"N c #C98226",
"B c #CB8821",
"V c #CE8A22",
"C c #F4C003",
"Z c #F4C202",
"A c #F5C302",
"S c #F7C402",
"D c #F8C402",
"F c #F9C702",
"G c #FBC901",
"H c #FCCA00",
"J c #FFCC00",
/* pixels */
"wkkkkkkkkkkkkkkklkkkkkkkkkkkkkkkkkkkkkkklkkkkkkkkkkkkkkkkkkkkkkw",
"kJJJJJJJJJJJJJJJJJJJJJJJJJJJJJJJJJJJJJJJJJJJJJJJJJJJJJJJJJJJJJJk",
"kJJJJJJJJJJJJJJJJJJJJJJJJJJJJJJJJJJJJJJJJJJJJJJJJJJJJJJJJJJJJJJk",
"kJJJJJJJJJJJJJJJJJJJJJJJJJJJJJJJJJJJJJJJJJJJJJJJJJJJJJJJJJJJJJJk",
"kJJJJJJJJJJJJJJJJJJJJJJJJJJJJJJJJJJJJJJJJJJJJJJCffhhhggggghJJJJk",
"kJJJJ=MMMMMMMMMMsJJb$$$$$$$$$$tJJ1$$$$$$$$$$>JJu*&********$JJJJk",
"kJJJJ$**********uJJ#****&*****pJJ>**********BHJu**********$JJJJk",
"kJJJJ$**********uJJ#**********7JJV**********BJJu**********$JJJJk",
"kJJJJ$**********uJJ#**********7JJ,&*********BJJu**********$JJJJk",
"kJJJJ$**********uJJ#**********7JJ,**********BJJu**********$JJJJk",
"kJJJJ$**********uJJ#**********7JJ,**********BJJu**********$JJJJk",
"kJJJJ$**********uJJ#**********7JJ,**********BJJu**********$HJJJk",
"kJJJJ$**********uJJ#**********7JJ,**********BJJu**********$JJJJk",
"kJJJJ$**********uJJ#**********7JJ,**********BJJu**********$JJJJk",
"kJJJJ$**********uJJ#**********7JJ,**********BJJi**********$JJJJk",
"kJJJJ$**********pJJ#**********7JJ,**********BJJt%%%%%%%%%%.JJJJk",
"kJJJJ28888888888zJJippppppppppcJJhppppppppppsJHHSCCASSACAAAJJJJl",
"kJJJJJJJJJJJJJJJJJJJJJJJJJJJJJJJJJJJJJJJJJJJJJJHJJJJJJJJJHJJJJJk",
"kJJJJzaaaaaaaaaaCJJsiiiiiiiiiivJJxiiiiiiiiiihJJhVVVVVVVVVV1JJJJk",
"kJJJJ$**********uJJ#**********7JJ,**********BJJu*&&&****&*$JJJJk",
"kJJJJ$**********uJJ#**********7JJ,**********BJJu********&&$JJJJk",
"kJJJJ$**********uJJ#**********7JJ,**********BJJu*********&$JJJJk",
"kJJJJ$**********uJJ#**********7JJ,**********BJJu**********$JJJJk",
"kJJJJ$**********uJJ#**********7JJ,**********BJJu**********$JJJJk",
"kJJJJ$**********uJJ#**********7JJ,**********>HJu**********$JJJJv",
"kJJJJ$**********uJJ#**********7JJ,**********BJJu**********$JJJJk",
"kJJJJ$**********uJJ#**********tJJ,*********&BJJu**********$JJJJk",
"kJJJJ$**********uJJ#**********7JJ,*********&BJJp**********$JJJJk",
"kJJJJ$**********uJJ#**&&**&***tHJ>*&*&**&&*&BJJp****&&****$JJJJk",
"kJJJJ@&&&&&&&&&&uJJ+.&&.&@&.&.tJJ>&.&.&$.&$&-JJxV11VV>V11V1JJJJk",
"kJJJJljjjjjjjjjjSJJJJJJJJJJJJJJJJJJJJJJJJJJJJJJJJJJJHJJGJJJJJJJk",
"kJJJJJJJJJJJJJJJJJJJJJJJJJJJJJJJJJJJJJJJJJJJJJJGlvlllcllvllGJJJk",
"lJJJJiVVV1V1V1V<3JHpNNNNNNNNNN<JJzNNNNNNNNNN+JJFo&&&&&&&&&%hJJJl",
"lJJJJ9**********VJJ0**********MJJe**********&GJSO&*********hJJJk",
"lJJJJ8**********mHJ0**********NJJe&*********oGJF%**********hJJJk",
"kJJJJ8**********mJJ0**********NJJe**********OGJS%**********hJJJk",
"kJJJJ8**********mJJ0**********NJJe**********OGJS%**********hJJJk",
"kJJJJ8**********mJJ0**********NJJe**********OGJF%**********hJJJk",
"kJJJJ8**********mJJ0**********NJJe*********&OGJF%*********&hJJJk",
"kJJJJ9**********mJJ0**********NJJe*********&OGJF%*********&xJJJk",
"kJJJJ8**********mJJ0**********NJJe**********&GJF%**********hHJJl",
"kJJJJ1**********mJH0**********NJJe**********oGJS%**********hHHJk",
"kJJJJ8**********mJJ0******&&**NGJe**********OGJS%*&***&**&*fJJJk",
"kJJJJpVVVVVVVVVV4JJh0000000000pGJv00000000009JJJzfaaaxazfzxSJJJk",
"kJJJJJJJJJJJJJJJJJJJJJJJJJJJJJJJJJJJJJJJJJJJJJJJJJJJJJJJJJJJJJJk",
"kJJJJJJJJJJJJJJJJJJJJJJJJJJJJJJJJJJJJJJJJJJJJJJJJJJJJJJJJJJJJJJk",
"kJJJGt3033033434hJJ4<<<<<<<<8<eJJi88<<<<<<<<0JJi.OXXXXO.XX GJJJk",
"kJJJJN**********3JJN*********&0JJ0**********MHJe***&*****&OGJJJk",
"kJJJJ#&*********3JJN**********0JJ0**********NJJd**********OGJJJk",
"kJJJJ#**********4JJN**********0JJ0**********NJJd**********OGJJJk",
"kJJJJ#**********3JJN**********0JJ0**********NJJd**********&GJJJk",
"kJJJJN**********4JJN**********0JJ0**********NJJd**********OGJJJk",
"kJJJJ#**********3JJN**********0JJ0**********NJJd********&&OGJJJk",
"kJJJJ#**********0JJN**********0JJ0**********NJJd*********&OGJJJk",
"kJJJJ#&*********3JJN**********0JJ0**********NJJd**********OGJJJk",
"kJJJJ#&*********3JJN**********0JJ0**********NJJd**********OGJJJk",
"kJJJGN**********4JJN&********&0JJ0&*********NJJs******&&**&GJJJk",
"kJJJGMNN###N####pJJ9VVVVVVVVVViJJeVVVVVVVVVV9JJlrrrrrrrrrrtJJJJk",
"kJJJGJJJGJJJJJGGJJJJJJJJJJJJJJJJJJJJJJJJJJJJJJJJJJJJJJJJJJJJJJJk",
"kJJJJJJJJJJJJJJGJJJJJJJJJJJJJJJJJJJJJJJJJJJJJJJJJJJJJJJJJJJJJJJk",
"kJJJJJJJJJJJJJJJJJJJJJJJJJJJJJJJJJJJJJJJJJJJJJJJJJJJJJJJJJJJJJJk",
"wkkkkkkkkkkkkkkkkkkkkkkkkkkkkkkkkkkklkkkkkkkkkkkkkkkkkkkkkkkkkkw"
};
