/* XPM */
static char * draci_xpm[] = {
"65 66 17 1",
" 	c None",
".	c #7F7F7F",
"+	c #D3D3D3",
"@	c #075B00",
"#	c #079B00",
"$	c #078B00",
"%	c #00AA00",
"&	c #EFEFEF",
"*	c #000000",
"=	c #575757",
"-	c #B4AC00",
";	c #E4D800",
">	c #9C9C00",
",	c #9F603A",
"'	c #754F2A",
")	c #C7C72B",
"!	c #BF7A4A",
"                                                                 ",
"                                                                 ",
"                                                                 ",
"                                                                 ",
"                                                                 ",
"                                                                 ",
"                                                        .+       ",
"                                     @    @             .+       ",
"                                     @@@ @@@             .       ",
"                                     @#@@@$@            .+       ",
"                                     @##@$$$$          .+        ",
"                                  @  @@#@$$%%$$     . .+         ",
"                                  @@@$@#@$%%%%%$   .+            ",
"                                @ @$$@##%@%%%###$  .             ",
"                                @@$$###%%%##@@#+@  .+            ",
"                                @$$$##%%%##+&&$**$   .           ",
"                                 @$###%%%#@&**$@$$$$$ .+         ",
"                                @@$###%%%%#@*###%%%%$$$+.        ",
"                                @@$$##%%%%%%%%%%%%%%%==$         ",
"                                 @$$###%%%%%%%%%%%%%===$         ",
"                                  @$###%%%$@%%%%%%%$=#=$         ",
"                                  @$$##%%%%$@@@@%%%%#$$          ",
"                                 @@$$$##%%%%$$$$@@@@@@           ",
"                                   @@$$#%%%%%%%$$@@              ",
"                                     @$##%%%@@@@@                ",
"                                      @$#%%%%@                   ",
"                                    @ @$#%%%@@                   ",
"                                    @@$$#%%%@                    ",
"                                  @@@$$##%%@@                    ",
"                              @ @@@$$$##%%--                     ",
"                             @@@@@$$$##%%-;>                     ",
"                           @@@$$@$$###%%%-;>                     ",
"                        @ @@$$$@$$##@%%%-;>                      ",
"                       @@@@$$$$@$##@%%%--;>                      ",
"                       @$$$$$$@$$##@%%--;>@                      ",
"                     @@$$$$$$$@$##@%%%-;;>@@                     ",
"                    @@$$$$$$$#@$##@%--;;>%@@                     ",
"                  > >>$$$$$###@$#@%--;;>%%@@                     ",
"                  >>>>>$$$###%@$$@--;;>%%%@$@                    ",
"                 >>--->>$###%%%@$#@;>>%%%%@$@                    ",
"                 >>----->###%,'@$#@>%%%%%@@$$@                   ",
"                 >>----)->#%'''@$$@%%%%%%@@$$#@                  ",
"           @      >----)))>,'!,'@$$@%>>>> @$$#@                  ",
"           @@ @  >----)))))!''',@$@@>---> @@#@@                  ",
"          @@@ @@>>----))---;,,'@@$$@--))>  @@@                   ",
"          @$$@@@$>>---)--$$@;;@@@$$$@))>                         ",
"          @$$$$$##>---)-@$%%@;;@@@@@-))>                         ",
"          @@$$$###>>---)@$$%@;;;;>---)>                          ",
"           @#####%%>>--))@$#%@;;;>--->                           ",
"            @#%%%%$@>>-))@$$#%@;;>>->@                           ",
"             @@@@@@  >-));@$#%@;;;;>$@                           ",
"                      >>)@@$#%@;;>>$@                            ",
"                       @@@$$#%@@$$$$@                            ",
"                      @@$$$#%@$$$$@@@@@                          ",
"                     @@$$@@@@@@$$@$$@@#@                         ",
"                     @$$@##@@#@@$$$$$$$@                         ",
"                     @@$$#####@@@@@@@@@                          ",
"                      @@@@@@@@@                                  ",
"                                                                 ",
"                                                                 ",
"                                                                 ",
"                                                                 ",
"                                                                 ",
"                                                                 ",
"                                                                 ",
"                                                                 "};
