/* XPM */
static char *inherit[] = {
/* columns rows colors chars-per-pixel */
"64 64 234 2 ",
"   c #191930",
".  c #0E0E1A",
"X  c #366B04",
"o  c #386E04",
"O  c #356906",
"+  c #3A7304",
"@  c #3E7A04",
"#  c #3C760C",
"$  c #3D7615",
"%  c #396E17",
"&  c #3E7529",
"*  c #3C7137",
"=  c #407E04",
"-  c #407B0A",
";  c #437F18",
":  c #42782A",
">  c #262648",
",  c #2D2C55",
"<  c #30305C",
"1  c #343464",
"2  c #37366A",
"3  c #38376C",
"4  c #393A6C",
"5  c #373969",
"6  c #3C3E71",
"7  c #396648",
"8  c #3D714F",
"9  c #3E426C",
"0  c #3E4273",
"q  c #3A5B7B",
"w  c #3C697A",
"e  c #3E6B6C",
"r  c #46595F",
"t  c #4B7552",
"y  c #434A6C",
"u  c #465567",
"i  c #414674",
"p  c #434C7B",
"a  c #474C7C",
"s  c #47517A",
"d  c #515F6E",
"f  c #477B65",
"g  c #546A76",
"h  c #45797C",
"j  c #516F6D",
"k  c #61796D",
"l  c #61717E",
"z  c #428305",
"x  c #468A04",
"c  c #44840B",
"v  c #488E07",
"b  c #4B9405",
"n  c #4E9A05",
"m  c #4F9A0A",
"M  c #4D960A",
"N  c #519C0D",
"B  c #509B07",
"V  c #458613",
"C  c #4E9515",
"Z  c #539C13",
"A  c #549C1A",
"S  c #539618",
"D  c #5BA119",
"F  c #569A26",
"G  c #478336",
"H  c #599A35",
"J  c #4D9125",
"K  c #639D38",
"L  c #619C2B",
"P  c #5DA22A",
"I  c #65A62A",
"U  c #63A43C",
"Y  c #68A835",
"T  c #70AE36",
"R  c #74B13A",
"E  c #60A51F",
"W  c #588B47",
"Q  c #599844",
"!  c #589455",
"~  c #528851",
"^  c #659854",
"/  c #659C4B",
"(  c #68A648",
")  c #7BB446",
"_  c #6AA658",
"`  c #7CB35C",
"'  c #76B255",
"]  c #72AD4D",
"[  c #5A9367",
"{  c #4D817D",
"}  c #5D9378",
"|  c #53896E",
" . c #639969",
".. c #74966A",
"X. c #669B76",
"o. c #6C886F",
"O. c #77A968",
"+. c #7CB466",
"@. c #76AB76",
"#. c #7CB177",
"$. c #6DA474",
"%. c #86B957",
"&. c #82B667",
"*. c #86BA75",
"=. c #3B5B85",
"-. c #3B5D8B",
";. c #3B5F90",
":. c #3D628C",
">. c #3C6294",
",. c #3C6699",
"<. c #3D699D",
"1. c #3E7285",
"2. c #3E6DA3",
"3. c #3E6FA8",
"4. c #3F71A9",
"5. c #3F71A5",
"6. c #4C5B84",
"7. c #485684",
"8. c #545B89",
"9. c #505F90",
"0. c #42618C",
"q. c #4C648B",
"w. c #4E688A",
"e. c #51668C",
"r. c #52698E",
"t. c #457B85",
"y. c #486997",
"u. c #536C94",
"i. c #556E9A",
"p. c #5A6895",
"a. c #4A749B",
"s. c #56719B",
"d. c #5E7586",
"f. c #646C98",
"g. c #65719D",
"h. c #667287",
"j. c #4174AE",
"k. c #4B79A8",
"l. c #577AA4",
"z. c #4679B1",
"x. c #4B7DB4",
"c. c #4376B0",
"v. c #406DA5",
"b. c #6679A4",
"n. c #53888C",
"m. c #66998C",
"M. c #6E9492",
"N. c #78AA87",
"B. c #78A799",
"V. c #6EA191",
"C. c #5C8CA9",
"Z. c #5182B7",
"A. c #5584B9",
"S. c #5C8ABD",
"D. c #5887BA",
"F. c #4F80B0",
"G. c #618CBC",
"H. c #798DB4",
"J. c #6893B9",
"K. c #7891BA",
"L. c #6E8DA8",
"P. c #77A3B6",
"I. c #7DA8AE",
"U. c #5D8BC0",
"Y. c #618EC0",
"T. c #6591C2",
"R. c #6A95C4",
"E. c #6F99C8",
"W. c #6D98C7",
"Q. c #739DCA",
"!. c #759CC6",
"~. c #7BA3CE",
"^. c #78A1CB",
"/. c #7FA6D1",
"(. c #8DBA83",
"). c #94BB88",
"_. c #86B499",
"`. c #88B4A6",
"'. c #93BCA9",
"]. c #82ACBB",
"[. c #93B2BA",
"{. c #8491AE",
"}. c #96C38F",
"|. c #9BC3A9",
" X c #9DC3B8",
".X c #A5CAB9",
"XX c #ABD1B5",
"oX c #A5CAA9",
"OX c #A2C59F",
"+X c #86AAC9",
"@X c #8CB3C5",
"#X c #96BBC8",
"$X c #80A7D0",
"%X c #84AAD3",
"&X c #89AED5",
"*X c #8AAED8",
"=X c #8EB2D9",
"-X c #8FB2D3",
";X c #92B5DB",
":X c #96B8DD",
">X c #9ABBDD",
",X c #96B5D5",
"<X c #93AED1",
"1X c #A5B9D6",
"2X c #9CBDE1",
"3X c #96B8E0",
"4X c #809AC1",
"5X c #9CC1C8",
"6X c #9CC0D2",
"7X c #A9CACA",
"8X c #B5D6CA",
"9X c #A7C7D8",
"0X c #B8D7D9",
"qX c #B2D0CC",
"wX c #A3C3E5",
"eX c #A8C7E6",
"rX c #ACCAEA",
"tX c #A9C8E6",
"yX c #B1CEEC",
"uX c #B5D1EE",
"iX c #BDDAE8",
"pX c #BAD5F1",
"aX c #BED8F3",
"sX c #B7D2F0",
"dX c #B3CFF0",
"fX c #C3DCF6",
"gX c #C6DFF9",
"hX c #C1DCEA",
"jX c #C8E2ED",
"kX c #CCE3FB",
"lX c #CAE2F6",
"zX c #D0E7FD",
"xX c #D3E9FF",
"cX c None",
/* pixels */
"cXcXcXcXcXcXcXcXcXcXcXcXcXcXcXcXcXcXcXcXcXcXcXcXcXcXcXcXcXcXcXcXcXcXcXcXcXcXcXcXcXcXcXcXcXcXcXcXcXcXcXcXcXcXcXcXcXcXcXcXcXcXcXcX",
"cXcXcXcXcXcXcXcXcXcXcXcXcXcXcXcXcXcXcXcXcXcXcXcXcXcXcXcXcXcXcXcXcXcXcXcXcXcXcXcXcXcXcXcXcXcXcXcXcXcXcXcXcXcXcXcXcXcXcXcXcXcXcXcX",
"cXcXcXcXcXcXcXcXcXcXcXcXcXcXcXcXcXcXcXcXcXcXcXcXcXcXcXcXcXcXcXcXcXcXcXcXcXcXcXcXcXcXcXcXcXcXcXcXcXcXcXcXcXcXcXcXcXcXcXcXcXcXcXcX",
"cXcXcXcXcXcXcXcXcXcXcXcXcXcXcXcXcXcXcXcXcXcXcXcXcXcXcXcXcXcXcXcXcXcXcXcXcXcXcXcXcXcXcXcXcXcXcXcXcXcXcXcXcXcXcXcXcXcXcXcXcXcXcXcX",
"cXcXcXcXcXcXcXcXcXcXcXcXcXcXcXcXcXcXcXcXcXcXcXcXcXcXcXcXcXcXcXcXcXcXcXcXcXcXcXcXcXcXcXcXcXcXcXcXcXcXcXcXcXcXcXcXcXcXcXcXcXcXcXcX",
"cXcXcXcXcXcXcXcXcXcXcXcXcXcXcXcXcXcXcXcXcXcXcXcXcXcXcXcX3 3 2 2 3 3 cXcXcXcXcXcXcXcXcXcXcXcXcXcXcXcXcXcXcXcXcXcXcXcXcXcXcXcXcXcX",
"cXcXcXcXcXcXcXcXcXcXcXcXcXcXcXcXcXcXcXcXcXcXcX2 4 i a 8.f.f.f.f.f.8.a i 4 2 cXcXcXcXcXcXcXcXcXcXcXcXcXcXcXcXcXcXcXcXcXcXcXcXcXcX",
"cXcXcXcXcXcXcXcXcXcXcXcXcXcXcXcXcXcXcXcX3 0 a h.{.1X1X7X.X|.OX X9X1X1X+X{.g.7.i 2 cXcXcXcXcXcXcXcXcXcXcXcXcXcXcXcXcXcXcXcXcXcXcX",
"cXcXcXcXcXcXcXcXcXcXcXcXcXcXcXcXcXcX5 0 8._.(.).|.}.' Y D D Z A ( @X>X>X6X3X-XK.p.a 5 cXcXcXcXcXcXcXcXcXcXcXcXcXcXcXcXcXcXcXcXcX",
"cXcXcXcXcXcXcXcXcXcXcXcXcXcXcXcX5 6 f.[.OXOXqX7X( n n n B n n n H @X;X&X&X*X&X=X,X!.f.i 2 cXcXcXcXcXcXcXcXcXcXcXcXcXcXcXcXcXcXcX",
"cXcXcXcXcXcXcXcXcXcXcXcXcXcXcX4 6.].8XoX|.rXuXyX X] B B B B B n @.>X;X=X*X/./././.%X&XK.9.6 cXcXcXcXcXcXcXcXcXcXcXcXcXcXcXcXcXcX",
"cXcXcXcXcXcXcXcXcXcXcXcXcXcX6 h.}.8X` Y K Y .XhXpX XZ n n n A ( [.2X>X;X;X=X/./.J.X./ @.B.d.0 3 cXcXcXcXcXcXcXcXcXcXcXcXcXcXcXcX",
"cXcXcXcXcXcXcXcXcXcXcXcXcXi o.).) ' +.7X|.] ] 7XaX+.N N U #.|.wX5X[.6X3X=X*X*XP.P m A N I @.M.0 4 cXcXcXcXcXcXcXcXcXcXcXcXcXcXcX",
"cXcXcXcXcXcXcXcXcXcXcX2 y ..%.R +.*.7XiX}.*.XXhXfX+.B ' 0XuXdXwX#.N.wX3X:X=XI.! m Q [ n A } O.( u 3 cXcXcXcXcXcXcXcXcXcXcXcXcXcX",
"cXcXcXcXcXcXcXcXcXcXcXy ..%.&.|.iXfX}.` 8X0XzXkXkX8X' 8XaXpXuXyX9X9XwX3X3X-X( n N m.X.Z n N D Y ^ u 3 cXcXcXcXcXcXcXcXcXcXcXcXcX",
"cXcXcXcXcXcXcXcXcXcXi o.%.R 7XfXlXiXU n ] XXxXzXzXkXfXgXgXaXpXuXyXrXeX5XB.6X$._ P V.V.A n n n N T ^ y 3 cXcXcXcXcXcXcXcXcXcXcXcX",
"cXcXcXcXcXcXcXcXcX4 k %.I Z +..XhX}.D n b ` jXxXxXxXxXkXlXfXaXsXyXrXwX`._ @X@XN.B.V.H n n n n n Z T ^ 4 cXcXcXcXcXcXcXcXcXcXcXcX",
"cXcXcXcXcXcXcXcX3 d &.T B B b I *.N n n b N }.xXxXxXxXkXkXgXaXpXuXrX5X#.U _ _ F H F n n n n n n n Z T j 4 cXcXcXcXcXcXcXcXcXcXcX",
"cXcXcXcXcXcXcXcXy O.) N B n n B N n N Y ) *.oXzXxXxXxXxXkXgXfXaXuXyXeX5XO.P n n n n n b b b b n b B D / d 3 cXcXcXcXcXcXcXcXcXcX",
"cXcXcXcXcXcXcX4 k %.D n B n n n B B I &.XXxXXXjXxXxXxXxXxXlXgXaXpXyXrX6X( C n M b b b b b b b b b b B I W 9 cXcXcXcXcXcXcXcXcXcX",
"cXcXcXcXcXcXcXy +.T m n n n n n B B E ) 0XxXzXxXxXxXxXxXxXkXgXfXpXuXrX5X( b M S b C b b v b v b v b b Z Y r 4 cXcXcXcXcXcXcXcXcX",
"cXcXcXcXcXcX6 k ) D n n n n n n B R 8XjXxXxXxXxXxXxXxXxXxXkXgXaXpXyXN.P C F N.B.H Q J v v v v b b v x b L W 9 cXcXcXcXcXcXcXcXcX",
"cXcXcXcXcXcXi O.T n m n n n n Z *.0XxXxXxXxXxXxXxXxXxXxXkXkXgXaXpXyX' b A `.3X=XI.[ ! Q H x v v v v v x S K r 3 cXcXcXcXcXcXcXcX",
"cXcXcXcXcX3 d %.D n n m n n n ' jXxXxXxXxXxXxXxXxXxXxXxXxXkXfXaXpXyX_.U @.#X@X@X+X^.P.B.P.G J M v v x v M L t 9 cXcXcXcXcXcXcXcX",
"cXcXcXcXcX6 o.R N B B n n n P XXxXxXxXxXxXxXxXxXxXxXxXxXkXkXfXaXuXyXtXN.( H C J X././.!.W.J.C.G x x x x v S K 5 cXcXcXcXcXcXcXcX",
"cXcXcXcXcXy ..T B B n n n Y XXkXxXxXxXxXxXxXxXxXxXxXxXxXkXgXfXpXuXyX_.C v v x x M } } Q } n.| V x z x x x V K u cXcXcXcXcXcXcXcX",
"cXcXcXcXcXy %.E n D I O.P #.aXlXlXzXxXxXxXxXxXxXxXxXxXkXlXfXaXsXuX'.F x x x c x z x z x x c c z z z z V ; v L t 4 cXcXcXcXcXcXcX",
"cXcXcXcX3 g ) A U `.5XrX X XaXfXgXlXzXxXxXxXxXxXxXkXkXlXgXaXiXsX5XP x x x x x x x z z z c z V ~ V z z G t t K t 4 cXcXcXcXcXcXcX",
"cXcXcXcX4 k ) A `.wXeXtXyXyXpXaXfXgXlXkXkXkXkXkXkXlXgXgXaXpXsXyX@.x x x c x z z z z = z = = c { ~ = z ; 8 1.| j 6 cXcXcXcXcXcXcX",
"cXcXcXcX5 o.R I ,X2X6XeXrXyXuXpXaXfXfXlXgXkXlXgXgXgXfXaXaXsXyX7XH x x z z z z z = = = = = = = G t.; = = c ; f s.6 cXcXcXcXcXcXcX",
"cXcXcXcX5 o.R A `.`._ 6XeXrXyXdXsXpXaXaXfXfXfXfXaXaXaXpXuXyXyX5XF z x x x z z = = = = = = = @ @ | 8 = = = = j s.6 cXcXcXcXcXcXcX",
"cXcXcXcX2 L.&.N A A U ,XwXeXrXyXyXsXsXpXpXpXaXpXpXpXsXyXyXrXrXI.V x z c z = z = = = @ @ @ @ + @ & n.$ @ @ t a.s.i cXcXcXcXcXcXcX",
"cXcXcXcX2 {.#X$.P m A O.6XwXeXeXrXrXyXyXuXuXuXdXdXdXdXrXrXeXwXN.x x z z z z = @ @ @ @ @ @ + @ + # h * & e >.a.i.6 cXcXcXcXcXcXcX",
"cXcXcXcX2 H.>X&XP.B.( P -X2X5XO.|.tXtXrXyXyXyXyXrXrXeXeXwXwXwX[.J z z z = @ = @ @ @ @ + @ + + + @ * : * :.,.a.u.6 cXcXcXcXcXcXcX",
"cXcXcXcX3 b.;X%X/.;XI._ @.B.U n A ( ( |.eXeXeXrXeXeXeXeXwX2X2X:X..c z z = = @ @ @ + + + + + + + + # $ # 8 ,.a.u.4 cXcXcXcXcXcXcX",
"cXcXcXcX3 g.;X$X/./.=X@XN._ m n n n n _ wXwXwXeXeX2X2X2X2X6X:X:X-X^ z = - V # @ @ + + + + + o + + + @ $ w >.y.q.6 cXcXcXcXcXcXcX",
"cXcXcXcX4 e.,X$X/././.=X-X@.m n n n n Z _ `.2X2X2X2X3X3X:X;X;X=X&X+X! [ X.L.m.| # + + + o o o o o o o * >.>.u.7.4 cXcXcXcXcXcXcX",
"cXcXcXcXcXs +X$X/./././.~.U n n n n n n n U @X3X3X3X:X:X;X=X&X%X%X+X^.^.Q.Q.E.C.: + + o o o O X o o % w >.:.s.s 4 cXcXcXcXcXcXcX",
"cXcXcXcXcX0 ^./.Q.^././.V.D n n n n n n n N U B.@X;X*X=X*X*X*X/.$X~.~.Q.E.W.R.C.$ + o o O O O O o X e >.;.:.u.i cXcXcXcXcXcXcXcX",
"cXcXcXcXcX4 b./.Q.Q.~./.X.m n n n n n n n n n N ( B./.%X%X/./.~.~.Q.Q.E.W.R.T.S.f + o o O O O O X * :.>.-.y.q.4 cXcXcXcXcXcXcXcX",
"cXcXcXcXcX3 8.+X!.E.Q.Q./ b n n n n B n n n n n b M [ /././.^.^.Q.Q.W.R.T.T.Y.U.h # o X O O O O O 7 >.-.-.u.s 4 cXcXcXcXcXcXcXcX",
"cXcXcXcXcXcX6 K.Q.R.W.E.X.m n n n n n n n n n m b b Q /.~.~.^.Q.Q.W.R.T.Y.U.S.D.t.# o X O O O O O 7 >.-.0.u.0 4 cXcXcXcXcXcXcXcX",
"cXcXcXcXcXcX3 p.Q.W.Y.R.J.H n n n n n m n n n m n C m.^.Q.E.E.E.R.R.T.Y.U.A.U.U.k.& o o X X X X O 7 ;.-.w.6.4 cXcXcXcXcXcXcXcXcX",
"cXcXcXcXcXcXcXi K.Q.Y.Y.T.} m n m n n n n n n n b ! W.E.W.R.R.T.T.Y.S.S.U.A.z.x.a.& o o o X X X o 7 -.6.u.i 4 cXcXcXcXcXcXcXcXcX",
"cXcXcXcXcXcXcX6 9.!.R.G.S.S.[ Z n n n n m n n n b [ R.R.T.T.T.Y.S.S.D.D.A.x.x.x.t.# + o o o o o o 7 =.w.7.4 cXcXcXcXcXcXcXcXcXcX",
"cXcXcXcXcXcXcXcX6 C.!.S.S.U.S.[ m n n n n n n n b ! Y.Y.Y.Y.S.S.D.D.D.Z.x.x.z.z.1.# + + o + o O 7 q 0.q.i 4 cXcXcXcXcXcXcXcXcXcX",
"cXcXcXcXcXcXcXcX4 7.J.J.D.D.D.D.Q m n n n n n n M } U.U.S.D.D.A.A.Z.x.x.x.z.c.4.1.$ @ + + + + 7 =.6.r.s 4 cXcXcXcXcXcXcXcXcXcXcX",
"cXcXcXcXcXcXcXcXcX4 y.W.S.Z.Z.Z.~ n n n m n n J ! Z.D.D.A.A.Z.Z.x.x.x.z.c.4.4.4.<.& @ + + + + * =.q.6.4 cXcXcXcXcXcXcXcXcXcXcXcX",
"cXcXcXcXcXcXcXcXcXcX6 i.T.D.x.x.~ n n n n n A n.Z.Z.Z.Z.Z.x.x.x.z.z.c.j.4.3.2.2.,.8 - + = + # e w.6.4 4 cXcXcXcXcXcXcXcXcXcXcXcX",
"cXcXcXcXcXcXcXcXcXcXcX6 i.J.D.x.| M n n n n J F.F.F.x.x.x.z.z.c.c.j.4.3.2.2.2.<.,.w # = + o : w.q.9 4 cXcXcXcXcXcXcXcXcXcXcXcXcX",
"cXcXcXcXcXcXcXcXcXcXcX4 6 i.G.x.t.M B n n n ~ F.x.x.c.c.c.c.c.4.4.4.2.2.2.<.,.>.>.=.% = = : j 6.0 4 cXcXcXcXcXcXcXcXcXcXcXcXcXcX",
"cXcXcXcXcXcXcXcXcXcXcXcXcX4 p.G.X.N n B n C h 4.4.4.4.4.4.4.4.2.2.2.2.,.<.>.>.;.-.=.& : t j 6.0 4 cXcXcXcXcXcXcXcXcXcXcXcXcXcXcX",
"cXcXcXcXcXcXcXcXcXcXcXcXcXcX6 7. .I Z N G t.3.4.4.4.2.2.2.2.2.<.<.,.,.,.>.;.-.-.-.=.w g e.s 4 4 cXcXcXcXcXcXcXcXcXcXcXcXcXcXcXcX",
"cXcXcXcXcXcXcXcXcXcXcXcXcXcXcX3 y W Y I { 2.2.2.3.4.2.<.2.<.,.,.,.>.>.;.:.-.-.=.7.0.q.7.0 4 cXcXcXcXcXcXcXcXcXcXcXcXcXcXcXcXcXcX",
"cXcXcXcXcXcXcXcXcXcXcXcXcXcXcXcX1 4 r | C.l.k.y.<.,.,.,.>.,.>.>.>.>.-.-.=.-.0.q.e.q.p 4 5 cXcXcXcXcXcXcXcXcXcXcXcXcXcXcXcXcXcXcX",
"cXcXcXcXcXcXcXcXcXcXcXcXcXcXcXcXcXcX1 6 0 9.s.l.k.a.a.,.,.>.:.0.-.0.0.q.w.e.e.6.a 4 5 > cXcXcXcXcXcXcXcXcXcXcXcXcXcXcXcXcXcXcXcX",
"cXcXcXcXcXcXcXcXcXcXcXcXcXcXcXcXcXcXcXcX, 5 0 p 6.u.s.s.s.s.s.u.u.u.r.e.6.p 0 4 < > cXcXcXcXcXcXcXcXcXcXcXcXcXcXcXcXcXcXcXcXcXcX",
"cXcXcXcXcXcXcXcXcXcXcXcXcXcXcXcXcXcXcXcXcXcX> , 1 4 0 i p p p p p 0 4 4 1 , >   cXcXcXcXcXcXcXcXcXcXcXcXcXcXcXcXcXcXcXcXcXcXcXcX",
"cXcXcXcXcXcXcXcXcXcXcXcXcXcXcXcXcXcXcXcXcXcXcXcXcX    > > , , , > > >   . cXcXcXcXcXcXcXcXcXcXcXcXcXcXcXcXcXcXcXcXcXcXcXcXcXcXcX",
"cXcXcXcXcXcXcXcXcXcXcXcXcXcXcXcXcXcXcXcXcXcXcXcXcXcXcXcXcXcXcXcXcXcXcXcXcXcXcXcXcXcXcXcXcXcXcXcXcXcXcXcXcXcXcXcXcXcXcXcXcXcXcXcX",
"cXcXcXcXcXcXcXcXcXcXcXcXcXcXcXcXcXcXcXcXcXcXcXcXcXcXcXcXcXcXcXcXcXcXcXcXcXcXcXcXcXcXcXcXcXcXcXcXcXcXcXcXcXcXcXcXcXcXcXcXcXcXcXcX",
"cXcXcXcXcXcXcXcXcXcXcXcXcXcXcXcXcXcXcXcXcXcXcXcXcXcXcXcXcXcXcXcXcXcXcXcXcXcXcXcXcXcXcXcXcXcXcXcXcXcXcXcXcXcXcXcXcXcXcXcXcXcXcXcX",
"cXcXcXcXcXcXcXcXcXcXcXcXcXcXcXcXcXcXcXcXcXcXcXcXcXcXcXcXcXcXcXcXcXcXcXcXcXcXcXcXcXcXcXcXcXcXcXcXcXcXcXcXcXcXcXcXcXcXcXcXcXcXcXcX",
"cXcXcXcXcXcXcXcXcXcXcXcXcXcXcXcXcXcXcXcXcXcXcXcXcXcXcXcXcXcXcXcXcXcXcXcXcXcXcXcXcXcXcXcXcXcXcXcXcXcXcXcXcXcXcXcXcXcXcXcXcXcXcXcX"
};
