<?xml version="1.0" encoding="UTF-8" standalone="no"?>
<!-- Created with Inkscape (http://www.inkscape.org/) -->
<svg
   xmlns:svg="http://www.w3.org/2000/svg"
   xmlns="http://www.w3.org/2000/svg"
   xmlns:xlink="http://www.w3.org/1999/xlink"
   xmlns:inkscape="http://www.inkscape.org/namespaces/inkscape"
   version="1.0"
   width="48"
   height="48"
   id="svg11300">
  <defs
     id="defs3">
    <linearGradient
       id="linearGradient6250">
      <stop
         id="stop6252"
         style="stop-color:#9ea09c;stop-opacity:1"
         offset="0" />
      <stop
         id="stop6254"
         style="stop-color:#474745;stop-opacity:1"
         offset="1" />
    </linearGradient>
    <linearGradient
       x1="3.9374206"
       y1="16.132629"
       x2="37.15823"
       y2="16.382629"
       id="linearGradient6256"
       xlink:href="#linearGradient6250"
       gradientUnits="userSpaceOnUse" />
    <linearGradient
       id="linearGradient6066">
      <stop
         id="stop6068"
         style="stop-color:#ffffff;stop-opacity:1"
         offset="0" />
      <stop
         id="stop6070"
         style="stop-color:#ffffff;stop-opacity:0"
         offset="1" />
    </linearGradient>
    <linearGradient
       id="linearGradient5940">
      <stop
         id="stop5942"
         style="stop-color:#ffffff;stop-opacity:1"
         offset="0" />
      <stop
         id="stop5944"
         style="stop-color:#ffffff;stop-opacity:0"
         offset="1" />
    </linearGradient>
    <linearGradient
       id="linearGradient5902">
      <stop
         id="stop5904"
         style="stop-color:#ffffff;stop-opacity:1"
         offset="0" />
      <stop
         id="stop5906"
         style="stop-color:#ffffff;stop-opacity:0"
         offset="1" />
    </linearGradient>
    <linearGradient
       id="linearGradient5892">
      <stop
         id="stop5894"
         style="stop-color:#c9b400;stop-opacity:1"
         offset="0" />
      <stop
         id="stop5896"
         style="stop-color:#edd400;stop-opacity:1"
         offset="1" />
    </linearGradient>
    <linearGradient
       id="linearGradient5880">
      <stop
         id="stop5882"
         style="stop-color:#ffffff;stop-opacity:0"
         offset="0" />
      <stop
         id="stop5884"
         style="stop-color:#ffffff;stop-opacity:1"
         offset="0.5045045" />
      <stop
         id="stop5886"
         style="stop-color:#ffffff;stop-opacity:0"
         offset="1" />
    </linearGradient>
    <linearGradient
       id="linearGradient5776">
      <stop
         id="stop5778"
         style="stop-color:#ffffff;stop-opacity:1"
         offset="0" />
      <stop
         id="stop5780"
         style="stop-color:#ffffff;stop-opacity:0"
         offset="1" />
    </linearGradient>
    <linearGradient
       id="linearGradient5694">
      <stop
         id="stop5696"
         style="stop-color:#ffffff;stop-opacity:1"
         offset="0" />
      <stop
         id="stop5698"
         style="stop-color:#ffffff;stop-opacity:0"
         offset="1" />
    </linearGradient>
    <linearGradient
       id="linearGradient5666">
      <stop
         id="stop5668"
         style="stop-color:#ffffff;stop-opacity:0"
         offset="0" />
      <stop
         id="stop5682"
         style="stop-color:#ffffff;stop-opacity:1"
         offset="0.5" />
      <stop
         id="stop5670"
         style="stop-color:#ffffff;stop-opacity:0"
         offset="1" />
    </linearGradient>
    <linearGradient
       id="linearGradient5556">
      <stop
         id="stop5558"
         style="stop-color:#ef2929;stop-opacity:1"
         offset="0" />
      <stop
         id="stop5560"
         style="stop-color:#cc0000;stop-opacity:1"
         offset="1" />
    </linearGradient>
    <linearGradient
       id="linearGradient5541">
      <stop
         id="stop5543"
         style="stop-color:#fff8ff;stop-opacity:1"
         offset="0" />
      <stop
         id="stop5545"
         style="stop-color:#746f76;stop-opacity:1"
         offset="1" />
    </linearGradient>
    <linearGradient
       id="linearGradient15679">
      <stop
         id="stop15681"
         style="stop-color:#000000;stop-opacity:1"
         offset="0" />
      <stop
         id="stop15683"
         style="stop-color:#000000;stop-opacity:0"
         offset="1" />
    </linearGradient>
    <radialGradient
       cx="23.3125"
       cy="40.9375"
       r="17.1875"
       fx="23.3125"
       fy="40.9375"
       id="radialGradient5566"
       xlink:href="#linearGradient15679"
       gradientUnits="userSpaceOnUse"
       gradientTransform="matrix(1,0,0,0.316364,0,27.98636)" />
    <filter
       id="filter5652"
       height="1.7153735"
       y="-0.35768676"
       width="1.2263182"
       x="-0.11315908">
      <feGaussianBlur
         id="feGaussianBlur5654"
         stdDeviation="1.6207681"
         inkscape:collect="always" />
    </filter>
    <linearGradient
       x1="10.25"
       y1="23.75"
       x2="37.750107"
       y2="23.75"
       id="linearGradient5664"
       xlink:href="#linearGradient5541"
       gradientUnits="userSpaceOnUse"
       gradientTransform="translate(0,-1)" />
    <linearGradient
       x1="-1.7269465"
       y1="23.737246"
       x2="49.578896"
       y2="23.737246"
       id="linearGradient5672"
       xlink:href="#linearGradient5666"
       gradientUnits="userSpaceOnUse" />
    <radialGradient
       cx="33.35825"
       cy="25.90712"
       r="2.5625"
       fx="33.35825"
       fy="25.90712"
       id="radialGradient5700"
       xlink:href="#linearGradient5694"
       gradientUnits="userSpaceOnUse"
       gradientTransform="matrix(8.4634146,0,0,6.1219512,-258.8872,-133.28963)" />
    <filter
       id="filter5770"
       height="1.1850142"
       y="-0.092507079"
       width="2.1326478"
       x="-0.56632382">
      <feGaussianBlur
         id="feGaussianBlur5772"
         stdDeviation="1.2093374"
         inkscape:collect="always" />
    </filter>
    <linearGradient
       x1="27.875"
       y1="46.625"
       x2="28.25"
       y2="26.5"
       id="linearGradient5782"
       xlink:href="#linearGradient5776"
       gradientUnits="userSpaceOnUse"
       gradientTransform="translate(0,-1)" />
    <filter
       id="filter5852"
       height="1.9706548"
       y="-0.48532739"
       width="1.5577565"
       x="-0.27887827">
      <feGaussianBlur
         id="feGaussianBlur5854"
         stdDeviation="3.093806"
         inkscape:collect="always" />
    </filter>
    <linearGradient
       x1="18.5"
       y1="25.5"
       x2="29.252907"
       y2="25.5"
       id="linearGradient5868"
       xlink:href="#linearGradient5556"
       gradientUnits="userSpaceOnUse"
       gradientTransform="matrix(1.4883722,0,0,0.9817305,-11.472384,-0.5988031)" />
    <linearGradient
       x1="11"
       y1="4.375"
       x2="38.75"
       y2="4.375"
       id="linearGradient5878"
       xlink:href="#linearGradient5880"
       gradientUnits="userSpaceOnUse"
       gradientTransform="translate(8.8388348e-2,0.941222)" />
    <radialGradient
       cx="24"
       cy="32.169914"
       r="2"
       fx="24"
       fy="32.169914"
       id="radialGradient5908"
       xlink:href="#linearGradient5902"
       gradientUnits="userSpaceOnUse"
       gradientTransform="matrix(19.693848,0,0,2.5786779,-448.65235,-49.190333)" />
    <filter
       id="filter5934"
       height="1.2797666"
       y="-0.13988326"
       width="1.409822"
       x="-0.20491101">
      <feGaussianBlur
         id="feGaussianBlur5936"
         stdDeviation="0.34151836"
         inkscape:collect="always" />
    </filter>
    <linearGradient
       x1="20.875"
       y1="12.8125"
       x2="33.3125"
       y2="12.8125"
       id="linearGradient5946"
       xlink:href="#linearGradient5940"
       gradientUnits="userSpaceOnUse"
       gradientTransform="translate(0,-1)" />
    <filter
       id="filter5980"
       height="1.5278141"
       y="-0.26390705"
       width="1.1856633"
       x="-0.092831627">
      <feGaussianBlur
         id="feGaussianBlur5982"
         stdDeviation="0.48108057"
         inkscape:collect="always" />
    </filter>
    <filter
       id="filter6034"
       height="1.3181185"
       y="-0.1590592"
       width="1.133377"
       x="-0.066688523">
      <feGaussianBlur
         id="feGaussianBlur6036"
         stdDeviation="0.53252276"
         inkscape:collect="always" />
    </filter>
    <filter
       id="filter6060">
      <feGaussianBlur
         id="feGaussianBlur6062"
         stdDeviation="0.45237199"
         inkscape:collect="always" />
    </filter>
    <linearGradient
       x1="23.96875"
       y1="20.5625"
       x2="25.375"
       y2="24.625"
       id="linearGradient6072"
       xlink:href="#linearGradient6066"
       gradientUnits="userSpaceOnUse"
       gradientTransform="matrix(-0.7583621,0.6518335,-0.6518335,-0.7583621,61.809724,31.599971)" />
    <radialGradient
       cx="24.975599"
       cy="25.601711"
       r="9.5822678"
       fx="24.975599"
       fy="25.601711"
       id="radialGradient6077"
       xlink:href="#linearGradient5892"
       gradientUnits="userSpaceOnUse"
       gradientTransform="matrix(0.688706,0.8012609,-3.6519258,3.1389251,105.02195,-70.172568)" />
    <radialGradient
       cx="24.975599"
       cy="25.601711"
       r="9.5822678"
       fx="24.975599"
       fy="25.601711"
       id="radialGradient6081"
       xlink:href="#linearGradient5892"
       gradientUnits="userSpaceOnUse"
       gradientTransform="matrix(1.2288985e-7,-1.0565676,4.8155387,5.5559779e-6,-99.10926,50.013268)" />
    <radialGradient
       cx="24.975599"
       cy="25.601711"
       r="9.5822678"
       fx="24.975599"
       fy="25.601711"
       id="radialGradient6092"
       xlink:href="#linearGradient5892"
       gradientUnits="userSpaceOnUse"
       gradientTransform="matrix(-0.688706,0.8012609,3.6519258,3.1389251,-57.511851,-70.172568)" />
    <radialGradient
       cx="24"
       cy="32.169914"
       r="2"
       fx="24"
       fy="32.169914"
       id="radialGradient6094"
       xlink:href="#linearGradient5902"
       gradientUnits="userSpaceOnUse"
       gradientTransform="matrix(19.693848,0,0,2.5786779,-448.65235,-49.190333)" />
    <linearGradient
       x1="23.96875"
       y1="20.5625"
       x2="25.375"
       y2="24.625"
       id="linearGradient6096"
       xlink:href="#linearGradient6066"
       gradientUnits="userSpaceOnUse"
       gradientTransform="matrix(0.7583621,0.6518335,0.6518335,-0.7583621,-14.299629,31.599971)" />
    <filter
       id="filter6138"
       height="1.2469865"
       y="-0.12349327"
       width="1.2741866"
       x="-0.13709329">
      <feGaussianBlur
         id="feGaussianBlur6140"
         stdDeviation="0.12791896"
         inkscape:collect="always" />
    </filter>
    <filter
       id="filter6154"
       height="1.2164425"
       y="-0.10822123"
       width="1.2476606"
       x="-0.1238303">
      <feGaussianBlur
         id="feGaussianBlur6156"
         stdDeviation="0.11380111"
         inkscape:collect="always" />
    </filter>
  </defs>
  <g
     id="layer1">
    <path
       d="M 40.5,40.9375 A 17.1875,5.4375 0 1 1 6.125,40.9375 A 17.1875,5.4375 0 1 1 40.5,40.9375 z"
       transform="matrix(1.1163636,0,0,1.1565771,-2.5573973,-8.784877)"
       id="path5564"
       style="opacity:1;fill:url(#radialGradient5566);fill-opacity:1;fill-rule:nonzero;stroke:none;stroke-width:1.00000024;stroke-linecap:round;stroke-linejoin:round;marker:none;marker-start:none;marker-mid:none;marker-end:none;stroke-miterlimit:4;stroke-dasharray:none;stroke-dashoffset:0;stroke-opacity:1;visibility:visible;display:block;overflow:visible;filter:url(#filter5652)" />
    <path
       d="M 8.25,9.257583 C 9.9627303,17.821235 10.308604,26.382751 8,35.25 C 7.7954416,36.0357 7.6519728,36.691716 8.125,37.125 C 8.125,37.125 16.118777,44.815336 23.875,44.902728 C 31.7196,44.991117 39.146447,37.375 39.146447,37.375 C 39.808927,36.788955 39.67403,36.083304 39.521447,35.375 C 37.604819,28.93025 38.184874,16.60639 39.646447,4.874461 C 39.868459,3.8389884 39.377158,3.330747 38.646447,2.999461 C 28.408528,2.3452818 21.618546,2.3041748 11.25,2.999461 C 10.369135,3.1206864 9.77829,4.0775693 10.25,4.749461 L 12.25,6.983836 C 12.817087,7.6086313 12.206891,8.8890585 10.625,8.4294574 L 9.609375,8.1325824 C 8.859375,7.8825824 8.109375,8.5544575 8.25,9.257583 z"
       id="path5539"
       style="opacity:1;fill:url(#linearGradient5664);fill-opacity:1;fill-rule:nonzero;stroke:url(#linearGradient6256);stroke-width:1;stroke-linecap:round;stroke-linejoin:round;marker:none;marker-start:none;marker-mid:none;marker-end:none;stroke-miterlimit:4;stroke-dasharray:none;stroke-dashoffset:0;stroke-opacity:1;visibility:visible;display:inline;overflow:visible;enable-background:accumulate" />
    <path
       d="M 16.150888,3.0410214 C 17.478949,17.078525 16.932609,27.962497 15.9375,42 C 21.359264,45.260876 26.367291,44.595516 31.9375,42.331354 C 30.218576,28.4734 30.82195,17.350892 32.088388,3.1612308 C 26.457734,2.4142136 21.346725,2.747373 16.150888,3.0410214 z"
       id="path5549"
       style="opacity:1;fill:url(#linearGradient5868);fill-opacity:1;fill-rule:nonzero;stroke:none;stroke-width:1;stroke-linecap:round;stroke-linejoin:round;marker:none;marker-start:none;marker-mid:none;marker-end:none;stroke-miterlimit:4;stroke-dasharray:none;stroke-dashoffset:0;stroke-opacity:1;visibility:visible;display:inline;overflow:visible;enable-background:accumulate" />
    <path
       d="M 25,3.5 C 20.761548,3.4949035 16.495633,3.6551194 11.34375,4 C 11.331977,4.0007881 11.324283,3.9992099 11.3125,4 C 11.218695,4.0357493 11.129254,4.0958391 11.09375,4.15625 C 11.049084,4.2322508 11.065755,4.1921358 11.0625,4.1875 L 13,6.3125 C 13.633212,7.0101496 13.55367,8.0320346 13,8.71875 C 12.44633,9.4054654 11.408742,9.6844218 10.34375,9.375 L 9.34375,9.0625 C 9.333334,9.0626641 9.322916,9.0626641 9.3125,9.0625 C 9.2603078,9.0451026 9.2377144,9.1573219 9.21875,9.0625 C 10.951396,17.725733 11.322691,26.458614 8.96875,35.5 C 8.8691838,35.88243 8.813522,36.172441 8.8125,36.3125 C 8.811478,36.452559 8.7654,36.391732 8.78125,36.40625 C 8.791666,36.406086 8.802084,36.406086 8.8125,36.40625 C 8.8125,36.40625 10.738367,38.274875 13.625,40.15625 C 16.511633,42.037625 20.320916,43.866205 23.875,43.90625 C 31.07045,43.987324 38.4375,36.6875 38.4375,36.6875 C 38.457394,36.665748 38.478248,36.644894 38.5,36.625 C 38.658262,36.484998 38.643938,36.482491 38.65625,36.34375 C 38.668562,36.205009 38.637184,35.94044 38.5625,35.59375 L 38.59375,35.59375 C 36.58153,28.755348 37.223045,16.505064 38.6875,4.75 C 38.686022,4.7187675 38.686022,4.6874825 38.6875,4.65625 C 38.760096,4.317663 38.72656,4.2499218 38.6875,4.1875 C 38.660144,4.1437822 38.504491,4.078678 38.375,4 C 33.378659,3.684059 29.179871,3.5050261 25,3.5 z"
       id="path5662"
       style="opacity:0.56626503;fill:none;fill-opacity:1;fill-rule:nonzero;stroke:url(#linearGradient5672);stroke-width:1;stroke-linecap:round;stroke-linejoin:round;marker:none;marker-start:none;marker-mid:none;marker-end:none;stroke-miterlimit:4;stroke-dasharray:none;stroke-dashoffset:0;stroke-opacity:1;visibility:visible;display:inline;overflow:visible;enable-background:accumulate" />
    <path
       d="M 37,6.7499999 C 37,6.7499999 34.625,27.375 37.25,33.875 C 37.25,33.875 32.125,38.125 32.125,38.125 L 37,6.7499999 z"
       id="path5684"
       style="opacity:1;fill:url(#radialGradient5700);fill-opacity:1;fill-rule:nonzero;stroke:none;stroke-width:1;stroke-linecap:round;stroke-linejoin:round;marker:none;marker-start:none;marker-mid:none;marker-end:none;stroke-miterlimit:4;stroke-dasharray:none;stroke-dashoffset:0;stroke-opacity:1;visibility:visible;display:inline;overflow:visible;filter:url(#filter5770);enable-background:accumulate" />
    <path
       d="M 12.75,25.5 L 10.375,35.75 C 18.505783,40.753549 28.212016,44.172673 37,35.375 L 34.75,25.75 C 27.750301,28.335742 20.416365,28.247591 12.75,25.5 z"
       id="path5774"
       style="opacity:0.5;fill:url(#linearGradient5782);fill-opacity:1;fill-rule:nonzero;stroke:none;stroke-width:1;stroke-linecap:round;stroke-linejoin:round;marker:none;marker-start:none;marker-mid:none;marker-end:none;stroke-miterlimit:4;stroke-dasharray:none;stroke-dashoffset:0;stroke-opacity:1;visibility:visible;display:inline;overflow:visible;filter:url(#filter5852);enable-background:accumulate" />
    <path
       d="M 17.031078,14.8125 L 32.098984,14.8125 L 33.759045,8.570056 L 32.035801,9.90832 L 29.959005,9.838919 L 31.764417,10.8125 L 30.918508,12.8125 L 28.911113,12.837244 L 27.976816,11.8125 L 26.954131,12.8125 L 25.028905,12.8125 L 25.028905,9.8125 L 27.080494,9.845139 L 27.080494,8.746833 L 25.047892,8.746833 L 25.047892,6.777412 L 24,6.777412 L 24,8.854209 L 21.973947,8.746833 L 21.87279,9.851357 L 24.063182,9.788176 L 23.930599,12.862451 L 22.024361,12.8125 L 20.982688,11.65055 L 20.067379,12.79305 L 17.946387,12.8125 L 16.967897,10.855055 L 18.022008,9.781956 L 16,9.75675 L 14.594509,8.746833 L 17.031078,14.8125 z"
       id="path6008"
       style="fill:#000000;fill-opacity:1;fill-rule:nonzero;stroke:none;stroke-width:1;stroke-linecap:round;stroke-linejoin:round;marker:none;marker-start:none;marker-mid:none;marker-end:none;stroke-miterlimit:4;stroke-dasharray:none;stroke-dashoffset:0;stroke-opacity:1;visibility:visible;display:inline;overflow:visible;filter:url(#filter6034);enable-background:accumulate" />
    <path
       d="M 17.031078,14.0625 L 32.098984,14.0625 L 33.759045,7.820056 L 32.035801,9.15832 L 29.959005,9.088919 L 31.764417,10.0625 L 30.918508,12.0625 L 28.911113,12.087244 L 27.976816,11.0625 L 26.954131,12.0625 L 25.028905,12.0625 L 25.028905,9.0625 L 27.080494,9.095139 L 27.080494,7.996833 L 25.047892,7.996833 L 25.047892,6.027412 L 24,6.027412 L 24,8.104209 L 21.973947,7.996833 L 21.87279,9.101357 L 24.063182,9.038176 L 23.930599,12.112451 L 22.024361,12.0625 L 20.982688,10.90055 L 20.067379,12.04305 L 17.946387,12.0625 L 16.967897,10.105055 L 18.022008,9.031956 L 16,9.00675 L 14.594509,7.996833 L 17.031078,14.0625 z"
       id="path5656"
       style="fill:url(#radialGradient6081);fill-opacity:1;fill-rule:nonzero;stroke:none;stroke-width:1;stroke-linecap:round;stroke-linejoin:round;marker:none;marker-start:none;marker-mid:none;marker-end:none;stroke-miterlimit:4;stroke-dasharray:none;stroke-dashoffset:0;stroke-opacity:1;visibility:visible;display:inline;overflow:visible;enable-background:accumulate" />
    <path
       d="M 23.96875,17.4375 C 23.466687,17.4375 23.0625,17.841687 23.0625,18.34375 L 23.0625,21.4375 L 19.4375,21.4375 C 18.641125,21.4375 18,21.8835 18,22.4375 C 18,22.9915 18.641125,23.4375 19.4375,23.4375 L 22.0625,23.4375 C 22.056108,23.478513 22.0625,23.520379 22.0625,23.5625 L 22.0625,34.84375 C 22.0625,35.528216 22.926625,38.75 24,38.75 C 25.073375,38.75 25.9375,35.528216 25.9375,34.84375 L 25.9375,23.5625 C 25.9375,23.520379 25.943892,23.478513 25.9375,23.4375 L 28.625,23.4375 C 29.421375,23.4375 30.0625,22.9915 30.0625,22.4375 C 30.0625,21.8835 29.421375,21.4375 28.625,21.4375 L 24.875,21.4375 L 24.875,18.34375 C 24.875,17.841688 24.470813,17.4375 23.96875,17.4375 z"
       transform="matrix(-0.7583621,0.6518335,-0.6518335,-0.7583621,62.074888,32.483851)"
       id="path6038"
       style="fill:#000000;fill-opacity:1;fill-rule:nonzero;stroke:none;stroke-width:2;stroke-linecap:round;stroke-linejoin:round;marker:none;marker-start:none;marker-mid:none;marker-end:none;stroke-miterlimit:4;stroke-dashoffset:0;stroke-opacity:1;visibility:visible;display:inline;overflow:visible;filter:url(#filter6060);enable-background:accumulate" />
    <path
       d="M 32.551563,34.331449 C 32.932308,34.004187 32.975366,33.434204 32.648104,33.053459 L 30.631494,30.707276 L 33.380557,28.34438 C 33.984498,27.825276 34.179985,27.06914 33.818869,26.649007 C 33.457754,26.228874 32.680831,26.308551 32.07689,26.827655 L 30.08619,28.538718 C 30.064303,28.503449 30.032166,28.475866 30.00471,28.443923 L 22.651214,19.88865 C 22.205056,19.369577 19.44967,17.489564 18.635663,18.189225 C 17.821656,18.888887 19.266403,21.895432 19.712561,22.414505 L 27.066057,30.969778 C 27.093513,31.001721 27.115955,31.037637 27.147536,31.064573 L 25.109438,32.816375 C 24.505497,33.335479 24.31001,34.091616 24.671126,34.511748 C 25.032242,34.931881 25.809164,34.852204 26.413105,34.3331 L 29.256963,31.888724 L 31.273573,34.234907 C 31.600834,34.615652 32.170817,34.65871 32.551563,34.331449 z"
       id="rect5858"
       style="fill:url(#radialGradient6077);fill-opacity:1;fill-rule:nonzero;stroke:none;stroke-width:2;stroke-linecap:round;stroke-linejoin:round;marker:none;marker-start:none;marker-mid:none;marker-end:none;stroke-miterlimit:4;stroke-dashoffset:0;stroke-opacity:1;visibility:visible;display:inline;overflow:visible;enable-background:accumulate" />
    <path
       d="M 11.59283,4.2126685 C 19.208407,3.2737316 29.124703,3.1875029 39.0625,4.407751"
       id="path5870"
       style="opacity:1;fill:none;fill-opacity:1;fill-rule:nonzero;stroke:url(#linearGradient5878);stroke-width:1;stroke-linecap:round;stroke-linejoin:round;marker:none;marker-start:none;marker-mid:none;marker-end:none;stroke-miterlimit:4;stroke-dasharray:none;stroke-dashoffset:0;stroke-opacity:1;visibility:visible;display:inline;overflow:visible;enable-background:accumulate" />
    <path
       d="M 22.125,31.375 L 22,35.5 C 23.472909,33.829212 24.734868,33.424127 25.875,33.75 L 26,29.875 C 24.569017,29.399785 23.224455,29.529516 22.125,31.375 z"
       transform="matrix(-0.7583621,0.6518335,-0.6518335,-0.7583621,65.809724,36.224971)"
       id="path5900"
       style="opacity:1;fill:url(#radialGradient5908);fill-opacity:1;fill-rule:nonzero;stroke:none;stroke-width:1;stroke-linecap:round;stroke-linejoin:round;marker:none;marker-start:none;marker-mid:none;marker-end:none;stroke-miterlimit:4;stroke-dasharray:none;stroke-dashoffset:0;stroke-opacity:1;visibility:visible;display:inline;overflow:visible;filter:url(#filter5934);enable-background:accumulate" />
    <path
       d="M 20.875,14 L 25.25,14 L 32.5625,12.3125 L 33.3125,9.625 L 31.5625,10.5 L 30.875,12.125 L 28.8125,12.25 L 28,11.3125 L 27,12.0625 L 26,12.125 L 20.875,14 z"
       id="path5938"
       style="opacity:1;fill:url(#linearGradient5946);fill-opacity:1;fill-rule:nonzero;stroke:none;stroke-width:1;stroke-linecap:round;stroke-linejoin:round;marker:none;marker-start:none;marker-mid:none;marker-end:none;stroke-miterlimit:4;stroke-dasharray:none;stroke-dashoffset:0;stroke-opacity:1;visibility:visible;display:inline;overflow:visible;filter:url(#filter5980);enable-background:accumulate" />
    <path
       d="M 33.77813,26.601609 L 24.684442,34.335474 C 25.159652,34.640089 25.774809,34.659308 26.805602,33.830908 L 29.263621,31.800587 L 31.259861,34.123071 C 31.259861,34.123071 32.243478,34.596256 32.575261,34.311079 C 32.907045,34.025902 32.586995,32.982362 32.586995,32.982362 L 30.631494,30.707276 L 33.048774,28.629557 C 33.983343,27.819982 34.162222,27.156411 33.77813,26.601609 z"
       id="path6064"
       style="opacity:0.34939761;fill:url(#linearGradient6072);fill-opacity:1;fill-rule:nonzero;stroke:none;stroke-width:1;stroke-linecap:round;stroke-linejoin:round;marker:none;marker-start:none;marker-mid:none;marker-end:none;stroke-miterlimit:4;stroke-dasharray:none;stroke-dashoffset:0;stroke-opacity:1;visibility:visible;display:inline;overflow:visible;enable-background:accumulate" />
    <path
       d="M 23.96875,17.4375 C 23.466687,17.4375 23.0625,17.841687 23.0625,18.34375 L 23.0625,21.4375 L 19.4375,21.4375 C 18.641125,21.4375 18,21.8835 18,22.4375 C 18,22.9915 18.641125,23.4375 19.4375,23.4375 L 22.0625,23.4375 C 22.056108,23.478513 22.0625,23.520379 22.0625,23.5625 L 22.0625,34.84375 C 22.0625,35.528216 22.926625,38.75 24,38.75 C 25.073375,38.75 25.9375,35.528216 25.9375,34.84375 L 25.9375,23.5625 C 25.9375,23.520379 25.943892,23.478513 25.9375,23.4375 L 28.625,23.4375 C 29.421375,23.4375 30.0625,22.9915 30.0625,22.4375 C 30.0625,21.8835 29.421375,21.4375 28.625,21.4375 L 24.875,21.4375 L 24.875,18.34375 C 24.875,17.841688 24.470813,17.4375 23.96875,17.4375 z"
       transform="matrix(0.7583621,0.6518335,0.6518335,-0.7583621,-14.564793,32.483851)"
       id="path6084"
       style="fill:#000000;fill-opacity:1;fill-rule:nonzero;stroke:none;stroke-width:2;stroke-linecap:round;stroke-linejoin:round;marker:none;marker-start:none;marker-mid:none;marker-end:none;stroke-miterlimit:4;stroke-dashoffset:0;stroke-opacity:1;visibility:visible;display:inline;overflow:visible;filter:url(#filter6060);enable-background:accumulate" />
    <path
       d="M 27.310514,31.006697 L 28.959275,29.524925 L 18.743408,18.698195 C 17.851666,20.851684 22.703361,25.992796 27.310514,31.006697 z"
       id="path6100"
       style="opacity:0.34939761;fill:#ffffff;fill-opacity:1;fill-rule:nonzero;stroke:none;stroke-width:1;stroke-linecap:round;stroke-linejoin:round;marker:none;marker-start:none;marker-mid:none;marker-end:none;stroke-miterlimit:4;stroke-dasharray:none;stroke-dashoffset:0;stroke-opacity:1;visibility:visible;display:inline;overflow:visible;enable-background:accumulate" />
    <path
       d="M 14.958532,34.331449 C 14.577787,34.004187 14.534729,33.434204 14.861991,33.053459 L 16.878601,30.707276 L 14.129538,28.34438 C 13.525597,27.825276 13.33011,27.06914 13.691226,26.649007 C 14.052341,26.228874 14.829264,26.308551 15.433205,26.827655 L 17.423905,28.538718 C 17.445792,28.503449 17.477929,28.475866 17.505385,28.443923 L 24.858881,19.88865 C 25.305039,19.369577 28.060425,17.489564 28.874432,18.189225 C 29.688439,18.888887 28.243692,21.895432 27.797534,22.414505 L 20.444038,30.969778 C 20.416582,31.001721 20.39414,31.037637 20.362559,31.064573 L 22.400657,32.816375 C 23.004598,33.335479 23.200085,34.091616 22.838969,34.511748 C 22.477853,34.931881 21.700931,34.852204 21.09699,34.3331 L 18.253132,31.888724 L 16.236522,34.234907 C 15.909261,34.615652 15.339278,34.65871 14.958532,34.331449 z"
       id="path6086"
       style="fill:url(#radialGradient6092);fill-opacity:1;fill-rule:nonzero;stroke:none;stroke-width:2;stroke-linecap:round;stroke-linejoin:round;marker:none;marker-start:none;marker-mid:none;marker-end:none;stroke-miterlimit:4;stroke-dashoffset:0;stroke-opacity:1;visibility:visible;display:inline;overflow:visible;enable-background:accumulate" />
    <path
       d="M 22.125,31.375 L 22,35.5 C 23.472909,33.829212 24.734868,33.424127 25.875,33.75 L 26,29.875 C 24.569017,29.399785 23.224455,29.529516 22.125,31.375 z"
       transform="matrix(0.7583621,0.6518335,0.6518335,-0.7583621,-14.299629,31.599971)"
       id="path6088"
       style="opacity:1;fill:url(#radialGradient6094);fill-opacity:1;fill-rule:nonzero;stroke:none;stroke-width:1;stroke-linecap:round;stroke-linejoin:round;marker:none;marker-start:none;marker-mid:none;marker-end:none;stroke-miterlimit:4;stroke-dasharray:none;stroke-dashoffset:0;stroke-opacity:1;visibility:visible;display:inline;overflow:visible;filter:url(#filter5934);enable-background:accumulate" />
    <path
       d="M 13.731965,26.601609 L 22.825653,34.335474 C 22.350443,34.640089 21.735286,34.659308 20.704493,33.830908 L 18.246474,31.800587 L 16.250234,34.123071 C 16.250234,34.123071 15.266617,34.596256 14.934834,34.311079 C 14.60305,34.025902 14.9231,32.982362 14.9231,32.982362 L 16.878601,30.707276 L 14.461321,28.629557 C 13.526752,27.819982 13.347873,27.156411 13.731965,26.601609 z"
       id="path6090"
       style="opacity:0.33132528;fill:url(#linearGradient6096);fill-opacity:1;fill-rule:nonzero;stroke:none;stroke-width:1;stroke-linecap:round;stroke-linejoin:round;marker:none;marker-start:none;marker-mid:none;marker-end:none;stroke-miterlimit:4;stroke-dasharray:none;stroke-dashoffset:0;stroke-opacity:1;visibility:visible;display:inline;overflow:visible;enable-background:accumulate" />
    <path
       d="M 17.5625,28.4375 L 19.25,29.875 L 28.625,18.3125 C 26.372203,17.714477 21.920539,23.205621 17.5625,28.4375 z"
       id="path6098"
       style="opacity:0.34939761;fill:#ffffff;fill-opacity:1;fill-rule:nonzero;stroke:none;stroke-width:1;stroke-linecap:round;stroke-linejoin:round;marker:none;marker-start:none;marker-mid:none;marker-end:none;stroke-miterlimit:4;stroke-dasharray:none;stroke-dashoffset:0;stroke-opacity:1;visibility:visible;display:inline;overflow:visible;enable-background:accumulate" />
    <rect
       width="0.7924813"
       height="3.0140684"
       rx="0.39662635"
       ry="0.39665607"
       x="33.749203"
       y="11.231415"
       transform="matrix(0.7123524,0.7018219,-0.6466182,0.7628138,0,-1)"
       id="rect6102"
       style="opacity:1;fill:#ffffff;fill-opacity:1;fill-rule:nonzero;stroke:none;stroke-width:1;stroke-linecap:round;stroke-linejoin:round;marker:none;marker-start:none;marker-mid:none;marker-end:none;stroke-miterlimit:4;stroke-dasharray:none;stroke-dashoffset:0;stroke-opacity:1;visibility:visible;display:inline;overflow:visible;filter:url(#filter6154);enable-background:accumulate" />
    <rect
       width="0.79248118"
       height="3.0140684"
       rx="0.39662626"
       ry="0.39665604"
       x="2.4502528"
       y="44.130093"
       transform="matrix(0.8173621,-0.5761242,0.635602,0.7720169,0,-1)"
       id="rect6104"
       style="opacity:1;fill:#ffffff;fill-opacity:1;fill-rule:nonzero;stroke:none;stroke-width:1;stroke-linecap:round;stroke-linejoin:round;marker:none;marker-start:none;marker-mid:none;marker-end:none;stroke-miterlimit:4;stroke-dasharray:none;stroke-dashoffset:0;stroke-opacity:1;visibility:visible;display:inline;overflow:visible;filter:url(#filter6138);enable-background:accumulate" />
  </g>
</svg>
