/* XPM */
/*
repurposed /usr/share/icons/Adwaita/48x48/status/security-high.png
*/
static char *kingsquest[] = {
/* columns rows colors chars-per-pixel */
"48 48 221 2 ",
"   c #3E3E3C",
".  c #430F02",
"X  c #491509",
"o  c #531D11",
"O  c #4E2418",
"+  c #653A15",
"@  c #715010",
"#  c #766B36",
"$  c #494847",
"%  c #4C4B4A",
"&  c #484747",
"*  c #51514F",
"=  c #535352",
"-  c #5D5C5B",
";  c #595857",
":  c #6F5B54",
">  c #6C6753",
",  c #636362",
"<  c #6D6B6C",
"1  c #767376",
"2  c #7A767C",
"3  c #7A787B",
"4  c #706D71",
"5  c #AA0606",
"6  c #BA0908",
"7  c #B01A1A",
"8  c #8B3110",
"9  c #AB3C19",
"0  c #903228",
"q  c #B72627",
"w  c #BB3A3A",
"e  c #A62D2D",
"r  c #921919",
"t  c #CF0505",
"y  c #CC0A0A",
"u  c #C40B0A",
"i  c #D20707",
"p  c #D40B0B",
"a  c #D80E0E",
"s  c #CC1313",
"d  c #C81817",
"f  c #DD1414",
"g  c #D61818",
"h  c #CB0F10",
"j  c #E31B1B",
"k  c #CA330F",
"l  c #C72929",
"z  c #D62323",
"x  c #DB2323",
"c  c #DB2D2D",
"v  c #D72E2E",
"b  c #D93229",
"n  c #DB3434",
"m  c #D73C3C",
"M  c #DD3B3B",
"N  c #D53734",
"B  c #C53C37",
"V  c #E52222",
"C  c #EB2525",
"Z  c #E82B2B",
"A  c #E33434",
"S  c #E43C3C",
"D  c #EC3C3C",
"F  c #EA3535",
"G  c #825E1A",
"H  c #AB4F15",
"J  c #937210",
"K  c #B97716",
"L  c #9D4B24",
"P  c #BD5C24",
"I  c #896C32",
"U  c #D0430F",
"Y  c #DB790D",
"T  c #D6661A",
"R  c #D3512D",
"E  c #D37632",
"W  c #895856",
"Q  c #96524A",
"!  c #BE4040",
"~  c #87794D",
"^  c #886967",
"/  c #937375",
"(  c #AB6D72",
")  c #DA4646",
"_  c #C35052",
"`  c #E34444",
"'  c #EB4343",
"]  c #E54B4B",
"[  c #EB4C4C",
"{  c #ED5151",
"}  c #EE5B5B",
"|  c #F05151",
" . c #CF6E6F",
".. c #EC6869",
"X. c #EA7576",
"o. c #F37373",
"O. c #7F807E",
"+. c #94871E",
"@. c #B89804",
"#. c #A58D0B",
"$. c #BBA01A",
"%. c #95893C",
"&. c #AD9E21",
"*. c #AFA12F",
"=. c #CC8E0F",
"-. c #CCB706",
";. c #DABC01",
":. c #CFBB15",
">. c #D4BF1A",
",. c #CAA90A",
"<. c #E1B60A",
"1. c #C6B12E",
"2. c #D4A531",
"3. c #DBC503",
"4. c #D9C316",
"5. c #E7CB05",
"6. c #EDD401",
"7. c #ECD40C",
"8. c #EFD819",
"9. c #E8CA1D",
"0. c #D6C42D",
"q. c #D5C224",
"w. c #D6C537",
"e. c #F0DB2A",
"r. c #F1DE3B",
"t. c #E6CF2C",
"y. c #9A8D53",
"u. c #A69B50",
"i. c #B6A747",
"p. c #83817F",
"a. c #9D9368",
"s. c #CCBE4C",
"d. c #D5B545",
"f. c #D3B269",
"g. c #D8A25F",
"h. c #DACA45",
"j. c #DBC84B",
"k. c #DBCD54",
"l. c #E6D758",
"z. c #EDDB45",
"x. c #F2E14D",
"c. c #F3E359",
"v. c #D7C86E",
"b. c #E7D970",
"n. c #F3E465",
"m. c #F2E170",
"M. c #7F7A81",
"N. c #827D84",
"B. c #9B7E85",
"V. c #DF7D81",
"C. c #848285",
"Z. c #868288",
"A. c #8A858B",
"S. c #8C8B8B",
"D. c #8B8786",
"F. c #91928E",
"G. c #8E8A90",
"H. c #928D93",
"J. c #959294",
"K. c #979895",
"L. c #979398",
"P. c #9A959B",
"I. c #9C9B9C",
"U. c #999A97",
"Y. c #958C8C",
"T. c #B18B8B",
"R. c #AB8F91",
"E. c #BDB482",
"W. c #B0AB93",
"Q. c #9F9BA0",
"!. c #A19EA3",
"~. c #A4A3A3",
"^. c #A7A3A8",
"/. c #A9A5AA",
"(. c #ACAAAD",
"). c #AFACB1",
"_. c #B3AEB2",
"`. c #B9B6B7",
"'. c #B0B0AE",
"]. c #E38C8C",
"[. c #EB9495",
"{. c #F29393",
"}. c #F08284",
"|. c #DCB8BD",
" X c #F3A7A7",
".X c #F8B8B8",
"XX c #E3B0B6",
"oX c #DA8A8B",
"OX c #DDD186",
"+X c #D2CA94",
"@X c #E9DB93",
"#X c #ECE296",
"$X c #F5EB99",
"%X c #F6EA82",
"&X c #D2CDB2",
"*X c #F3ECB7",
"=X c #F3ECAD",
"-X c #C4BEC4",
";X c #E1BEC4",
":X c #C8C6C8",
">X c #D2CED2",
",X c #D6D2D5",
"<X c #D8D4D6",
"1X c #D9D2C9",
"2X c #E1C4CA",
"3X c #F9D6D6",
"4X c #EBCDC0",
"5X c #FAF6D7",
"6X c #FBF6C7",
"7X c #E4DDE4",
"8X c #EAE4EA",
"9X c #EFE8EF",
"0X c #E6E1E6",
"qX c #FCF9E2",
"wX c #F3EDF3",
"eX c #F6F1F6",
"rX c #FAF3FA",
"tX c #FEF9FE",
"yX c #FDF5F5",
"uX c #FCE9E9",
"iX c None",
/* pixels */
"iXiXiXiXiXiXiXiXiXiXiXiXiXiXiXiXiXiXiXiXiXiXiXiXiXiXiXiXiXiXiXiXiXiXiXiXiXiXiXiXiXiXiXiXiXiXiXiX",
"iXiXiXiXiXiXiXiXiXiXiXiXiXiXiXiXiXiXiXiXiXiXiXiXiXiXiXiXiXiXiXiXiXiXiXiXiXiXiXiXiXiXiXiXiXiXiXiX",
"iXiXiXiXiXiXiXiXiXiXiXD.S.D.S.D.p.p./ / ^ ^ W W W : : : , , - - ; ; * * % & iXiXiXiXiXiXiXiXiXiX",
"iXiXiXiXiXiXiXiXiXiXK.:X>X>X,X<X{.{. XXX.X3XuXuXyXyXuX3X.X X[.]._./.Q.H.Z.3 < & iXiXiXiXiXiXiXiX",
"iXiXiXiXiXiXiXiXiXiX~.tXeXwX9X8X}.} } | { ' A V g x Z A ) ) ] ] ).).^.!.L.G.J.= iXiXiXiXiXiXiXiX",
"iXiXiXiXiXiXiXiXiXiXK.`.eX9X8X0X..C C V j j j j f a a p p i y u G.A.N.M.M.1 J.% iXiXiXiXiXiXiXiX",
"iXiXiXiXiXiXiXiXiXiXiXF.>X9X8X0Xo.C C j V j j f f f a a p i t h G.A.M.M.1 1 J.$ iXiXiXiXiXiXiXiX",
"iXiXiXiXiXiXiXiXiXiXiXiX~.wX8X0XX.C C V j j j f f f a p p i i 7 G.A.M.M.M.1 J.$ iXiXiXiXiXiXiXiX",
"iXiXiXiXiXiXiXiXJ.'.U.F.>X9X4XOXX.C C C j j j j f a a a p i t q a.i.O.M.1 1 G.$ iXiXiXiXiXiXiXiX",
"iXiXiXiXiXiXiXiX~.tXtXtXwX9X:X4.6.=.j V j j j f f f a a p i k ,.5.%.M.M.2 M.A.$ iXiXiXiXiXiXiXiX",
"iXiXiXiXiXiXiXiXJ.tXtXrXwX9X,X%.6.9 V V j j j f k a a f p i 5 J 7., M.M.2 M.N.% iXiXiXiXiXiXiXiX",
"iXiXiXiXiXiXiXiXK.eXtXrXwX9X7XY.5.=.x g Y Y g s <.d g =.T y u >.$.1 C.M.2 M.M.$ iXiXiXiXiXiXiXiX",
"iXiXiXiXiXiXiXiXU.0XtXeXwX9X7X-X#.6.5.5.6.6.9.9.z.n.m.n.c.t.9.8.+./ O.M.2 C.1 $ iXiXiXiXiXiXiXiX",
"iXiXiXiXiXiXiXiXK.,XtXrXwX9X8X>X~ 6.6.6.6.e.n.$X$X%Xn.z.8.7.7.6.> N.C.M.2 Z.1 iXiXiXiXiXiXiXiXiX",
"iXiXiXiXiXiXiXiXiX:XtXrXwX9X8X7XR.o X X X o o O o o X X X . . O 4 N.Z.N.M.A.< iXiXiXiXiXiXiXiXiX",
"iXiXiXiXiXiXiXiXiX'.tXeXwXwX8X7X|.z z g d d d d h h u u 6 6 6 Q A.Z.Z.N.M.G., iXiXiXiXiXiXiXiXiX",
"iXiXiXiXiXiXiXiXiX~.tXrXwX9X8X7X;XC C j j j j f f f a a i i i ( G.A.Z.N.N.H.- iXiXiXiXiXiXiXiXiX",
"iXiXiXiXiXiXiXiXiXI.tXrXwX9X8X7X2XC V C V j j f f a a a i i t ( G.A.A.Z.N.L.; iXiXiXiXiXiXiXiXiX",
"iXiXiXiXiXiXiXiXiXK.tXrXwX9X8X7X2XV T <.Y g f f f j k 2.;.u t / G.A.G.A.N.P.* iXiXiXiXiXiXiXiXiX",
"iXiXiXiXiXiXiXiXiXJ.tXrXeX9X8X7X2XV K e.6.3.U g R g.x.r.5.6 t B.G.G.G.G.N.Q.% iXiXiXiXiXiXiXiXiX",
"iXiXiXiXiXiXiXiXiXF.tXeXwX9X8X7X2Xx H x.e.6.5.R #X6Xx.6.@.5 i Y.G.H.H.G.A.P.% iXiXiXiXiXiXiXiXiX",
"iXiXiXiXiXiXiXiXiXJ.rXeXwX9X8X7X2XC 7 1.c.e.6.b.qXqXc.6.8 u i Y.G.H.L.L.G.L.% iXiXiXiXiXiXiXiXiX",
"iXiXiXiXiXiXiXiXiXJ.eXeXwX9X8X7X2XC V 8 z.c.w.=X5XqX$X$.5 i h J.G.H.P.L.G.H.% iXiXiXiXiXiXiXiXiX",
"iXiXiXiXiXiXiXiXiXF.rXrXwX9X8X7X2XC Z d @ k.c.$X$X=X@X0 u p s H.H.L.Q.I.G.L.% iXiXiXiXiXiXiXiXiX",
"iXiXiXiXiXiXiXiXiXF.tXrXwX9X8X0X;XC V x H l.l.c.n.b.y.q h p s L.H.Q.Q.Q.H.Q.% iXiXiXiXiXiXiXiXiX",
"iXiXiXiXiXiXiXiXiXK.tXrXwX9X8X7XXXZ C b s.l.z.5.9.u.&Xf.g h h L.L.Q.!.Q.G.Q.% iXiXiXiXiXiXiXiXiX",
"iXiXiXiXiXiXiXiXiXI.tXrXwX1Xv.&XXXC v d.l.l.3.3.u.&X5X*XE g s L.u.u./.~.G.Q.% iXiXiXiXiXiXiXiXiX",
"iXiXiXiXiXiXiXiXiX~.tXeX8XE.w.-.g.A 2.l.l.4.5.@ f.9X5X#Xw.k d &.>.s.L.~.H.Q.% iXiXiXiXiXiXiXiXiX",
"iXiXiXiXiXiXiXiXiX(.tXrXwX_.*.h.,.$.k.l.4.;.J r Q =X*X#X1.,.@.q.j.> I.~.J.Q.* iXiXiXiXiXiXiXiXiX",
"iXiXiXiXiXiXiXiXiX:XtXrXrX7X/.%.j.:.>.>.-.#.r l q I @XOXh.-.1.j.> G./.~.L.!.* iXiXiXiXiXiXiXiXiX",
"iXiXiXiXiXiXiXiXI.<XtXrXwXwX7X(.y.j.:.-.#.8 v A b q I h.-.0.j.; H.^.).^.L.Q.- iXiXiXiXiXiXiXiXiX",
"iXiXiXiXiXiXiXiXI.8XtXrXwXwX8X>Xv.k.w.:.@.w S S A n H -.w.k.b.E.~.(.).^.L.P.4 iXiXiXiXiXiXiXiXiX",
"iXiXiXiXiXiXiXiXU.tXtXrXeX9X0X@X*Xi.+ *.4.,.R S M P -.0.G @ #X*XW.(.(.^.P.L.3 * iXiXiXiXiXiXiXiX",
"iXiXiXiXiXiXiXiX~.tXtXrXwX9X+X#XOX0 ! 0 &.:.@.m P :.q.G e e I #Xv.~.(.~.H.G.A.= iXiXiXiXiXiXiXiX",
"iXiXiXiXiXiXiXiX`.tXtXrXeX8X`.%.Q ) [ ) 0 G +.w L +.@ w M M e # ~ P.^.I.G.Z.J.% iXiXiXiXiXiXiXiX",
"iXiXiXiXiXiXiXJ.,XtXtXtXeX9X7X-X .| | | ] ! P ) ) e B m M M M / !.!.!.L.A.N.P.% iXiXiXiXiXiXiXiX",
"iXiXiXiXiXiXiXK.,XtXtXeXeXwX8X8Xo.| | | { { ] ] ] ` ` ` M m n  .^.!.P.H.Z.Z.L.= iXiXiXiXiXiXiXiX",
"iXiXiXiXiXiXiXiXU.,XtXtXwX9X8X8X} | [ [ ] [ [ [ ] ` ` ) M M A ( !.P.H.G.H.P., $ iXiXiXiXiXiXiXiX",
"iXiXiXiXiXiXiXiXiXK.`.eXeXwX8X8X| [ ' [ [ ] ] ` ` ` ` M M n v _ Q.L.H.Q.P.; & iXiXiXiXiXiXiXiXiX",
"iXiXiXiXiXiXiXiXiXiXC.I.8XwX8X8X[ ' ' ' ` ' ' ` S S M n v c z _ P.P./.H.=   iXiXiXiXiXiXiXiXiXiX",
"iXiXiXiXiXiXiXiXiXiXiX< F.<XwX8XD D D D D D F S S A n c c z z B (._.C.= iXiXiXiXiXiXiXiXiXiXiXiX",
"iXiXiXiXiXiXiXiXiXiXiXiXiXD.U.,XV.| F F F F A A Z c x c x x m ..Q., * iXiXiXiXiXiXiXiXiXiXiXiXiX",
"iXiXiXiXiXiXiXiXiXiXiXiXiXiXiXC.T.{.g.} D Z Z V c x z n ) X. .Q ; iXiXiXiXiXiXiXiXiXiXiXiXiXiXiX",
"iXiXiXiXiXiXiXiXiXiXiXiXiXiXiXiXiXB.B.oX{.{.V.o.X.X.oXoXV.^ - iXiXiXiXiXiXiXiXiXiXiXiXiXiXiXiXiX",
"iXiXiXiXiXiXiXiXiXiXiXiXiXiXiXiXiXiXiX3 3 p.Y.R.R.D.1 , , iXiXiXiXiXiXiXiXiXiXiXiXiXiXiXiXiXiXiX",
"iXiXiXiXiXiXiXiXiXiXiXiXiXiXiXiXiXiXiXiXiXiXiXiXiXiXiXiXiXiXiXiXiXiXiXiXiXiXiXiXiXiXiXiXiXiXiXiX",
"iXiXiXiXiXiXiXiXiXiXiXiXiXiXiXiXiXiXiXiXiXiXiXiXiXiXiXiXiXiXiXiXiXiXiXiXiXiXiXiXiXiXiXiXiXiXiXiX",
"iXiXiXiXiXiXiXiXiXiXiXiXiXiXiXiXiXiXiXiXiXiXiXiXiXiXiXiXiXiXiXiXiXiXiXiXiXiXiXiXiXiXiXiXiXiXiXiX"
};
