/* XPM */
/*
https://commons.wikimedia.org/wiki/File:Conical_flask_blue.svg
*/
static char *kyrandia2[] = {
/* columns rows colors chars-per-pixel */
"64 64 137 2 ",
"   c #575955",
".  c #666763",
"X  c #676864",
"o  c #696A66",
"O  c #6F706C",
"+  c #757672",
"@  c #767873",
"#  c #797B76",
"$  c #7D7E79",
"%  c #7F807B",
"&  c #81837E",
"*  c #6C8BAC",
"=  c #718DA8",
"-  c #7490AD",
";  c #6B8DB0",
":  c #6F90B1",
">  c #7293B5",
",  c #7996B3",
"<  c #7C99B7",
"1  c #7496BD",
"2  c #7997BC",
"3  c #7698BD",
"4  c #7C9ABD",
"5  c #638FC0",
"6  c #6691C1",
"7  c #6B94C2",
"8  c #6A97CA",
"9  c #6D9ACC",
"0  c #7096C1",
"q  c #769BC5",
"w  c #7B9DC3",
"e  c #739DCD",
"r  c #799FCA",
"t  c #7DA1C6",
"y  c #76A1CE",
"u  c #7CA3CD",
"i  c #7CA5D0",
"p  c #858783",
"a  c #878984",
"s  c #898A85",
"d  c #878B8A",
"f  c #8A8E8B",
"g  c #8E908C",
"h  c #91938E",
"j  c #879196",
"k  c #8D9394",
"l  c #86939C",
"z  c #88939C",
"x  c #949692",
"c  c #969893",
"v  c #989A96",
"b  c #939A9C",
"n  c #9FA09D",
"m  c #A1A29E",
"M  c #8695A1",
"N  c #8B98A1",
"B  c #8599AD",
"V  c #979FA3",
"C  c #829BB4",
"Z  c #829DBC",
"A  c #889FBC",
"S  c #99A2A7",
"D  c #9AA4AA",
"F  c #9FA9AF",
"G  c #84A0BE",
"H  c #8CA2BB",
"J  c #9CAAB7",
"K  c #94A9BE",
"L  c #9CABBF",
"P  c #95A5B3",
"I  c #A4A6A3",
"U  c #A8AAA5",
"Y  c #A7AAAA",
"T  c #ACADAA",
"R  c #A3ADB4",
"E  c #A6B1BA",
"W  c #A9B3BC",
"Q  c #B6B7B3",
"!  c #B7B8B6",
"~  c #B8B9B7",
"^  c #B5B8BD",
"/  c #BDBDBB",
"(  c #C0BFBF",
")  c #BFC0BE",
"_  c #C0C1BE",
"`  c #84A3C6",
"'  c #8BA6C3",
"]  c #8DA8C6",
"[  c #83A5CB",
"{  c #88A6C9",
"}  c #86A8CC",
"|  c #89AACC",
" . c #91A7C4",
".. c #94ACC5",
"X. c #9AAEC4",
"o. c #92AECB",
"O. c #95B1CF",
"+. c #9CB3CB",
"@. c #81A7D0",
"#. c #83A9D1",
"$. c #8BADD2",
"%. c #90AFD0",
"&. c #8EB0D4",
"*. c #93B3D5",
"=. c #9EB8D5",
"-. c #93B5D9",
";. c #98B7D9",
":. c #9AB9DA",
">. c #A5B5C3",
",. c #ADB9C2",
"<. c #A3B6CC",
"1. c #A6B9CB",
"2. c #AABBCC",
"3. c #B6BFCB",
"4. c #A3BAD3",
"5. c #ABBED1",
"6. c #A0BDDC",
"7. c #BEC0C3",
"8. c #B7C3CF",
"9. c #B8C0CD",
"0. c #ACC1D7",
"q. c #AAC3DD",
"w. c #B3C3D3",
"e. c #BBC8D4",
"r. c #C3C4C2",
"t. c #C7C9C4",
"y. c #C8C8C7",
"u. c #CCCCCC",
"i. c #D2D4CF",
"p. c #D5D5D4",
"a. c #D6D8D3",
"s. c #D9DCD7",
"d. c #DBDCDA",
"f. c #E4E4E4",
"g. c #EBEBEB",
"h. c #F9F9F9",
"j. c None",
/* pixels */
"j.j.j.j.j.j.j.j.j.j.j.j.j.j.j.j.j.j.j.j.j.j.j.j.j.j.j.j.j.j.j.j.j.j.j.j.j.j.j.j.j.j.j.j.j.j.j.j.j.j.j.j.j.j.j.j.j.j.j.j.j.j.j.j.",
"j.j.j.j.j.j.j.j.j.j.j.j.j.j.j.j.j.j.j.j.j.j.j.j.j.j.j.j.j.j.j.j.j.j.j.j.j.j.j.j.j.j.j.j.j.j.j.j.j.j.j.j.j.j.j.j.j.j.j.j.j.j.j.j.",
"j.j.j.j.j.j.j.j.j.j.j.j.j.j.j.j.j.j.j.j.j.j.j.j.j.j.j.j.j.j.j.j.j.j.j.j.j.j.j.j.j.j.j.j.j.j.j.j.j.j.j.j.j.j.j.j.j.j.j.j.j.j.j.j.",
"j.j.j.j.j.j.j.j.j.j.j.j.j.j.j.j.j.j.j.j.j.j.j.j.j.j.j.j.j.j.j.j.j.j.j.j.j.j.j.j.j.j.j.j.j.j.j.j.j.j.j.j.j.j.j.j.j.j.j.j.j.j.j.j.",
"j.j.j.j.j.j.j.j.j.j.j.j.j.j.j.j.j.j.j.j.j.j.j.j.j.j.j.j.j.j.j.j.j.j.j.j.j.j.j.j.j.j.j.j.j.j.j.j.j.j.j.j.j.j.j.j.j.j.j.j.j.j.j.j.",
"j.j.j.j.j.j.j.j.j.j.j.j.j.j.j.j.j.j.j.j.j.j.j.j.j.j.j.j.j.j.j.j.j.j.j.j.j.j.j.j.j.j.j.j.j.j.j.j.j.j.j.j.j.j.j.j.j.j.j.j.j.j.j.j.",
"j.j.j.j.j.j.j.j.j.j.j.j.j.j.j.j.j.j.j.j.j.j.j.j.j.j.a a a s s h g f s a a a j.j.j.j.j.j.j.j.j.j.j.j.j.j.j.j.j.j.j.j.j.j.j.j.j.j.",
"j.j.j.j.j.j.j.j.j.j.j.j.j.j.j.j.j.j.j.j.j.j.j.j.j.a c U Q / _ r._ _ / Q U c a j.j.j.j.j.j.j.j.j.j.j.j.j.j.j.j.j.j.j.j.j.j.j.j.j.",
"j.j.j.j.j.j.j.j.j.j.j.j.j.j.j.j.j.j.j.j.j.j.j.j.a a h U Q / _ r._ _ _ Q U c a a j.j.j.j.j.j.j.j.j.j.j.j.j.j.j.j.j.j.j.j.j.j.j.j.",
"j.j.j.j.j.j.j.j.j.j.j.j.j.j.j.j.j.j.j.j.j.j.j.j.f U m c h f g g h h s g v I T f j.j.j.j.j.j.j.j.j.j.j.j.j.j.j.j.j.j.j.j.j.j.j.j.",
"j.j.j.j.j.j.j.j.j.j.j.j.j.j.j.j.j.j.j.j.j.j.j.j.s T u.u.r._ / ~ ~ / t.a.d.d.~ s j.j.j.j.j.j.j.j.j.j.j.j.j.j.j.j.j.j.j.j.j.j.j.j.",
"j.j.j.j.j.j.j.j.j.j.j.j.j.j.j.j.j.j.j.j.j.j.j.j.a h U u.p.p.p.p.p.d.j.j.d.T h a j.j.j.j.j.j.j.j.j.j.j.j.j.j.j.j.j.j.j.j.j.j.j.j.",
"j.j.j.j.j.j.j.j.j.j.j.j.j.j.j.j.j.j.j.j.j.j.j.j.j.a h t.a.i.i.p.s.s.d.a.t.h a j.j.j.j.j.j.j.j.j.j.j.j.j.j.j.j.j.j.j.j.j.j.j.j.j.",
"j.j.j.j.j.j.j.j.j.j.j.j.j.j.j.j.j.j.j.j.j.j.j.j.j.j.h t.j.j.j.j.j.j.j.j.j.h j.j.j.j.j.j.j.j.j.j.j.j.j.j.j.j.j.j.j.j.j.j.j.j.j.j.",
"j.j.j.j.j.j.j.j.j.j.j.j.j.j.j.j.j.j.j.j.j.j.j.j.j.j.g _ j.j.j.j.j.j.j.j.j.g j.j.j.j.j.j.j.j.j.j.j.j.j.j.j.j.j.j.j.j.j.j.j.j.j.j.",
"j.j.j.j.j.j.j.j.j.j.j.j.j.j.j.j.j.j.j.j.j.j.j.j.j.j.g r.j.j.j.j.j.j.j.j.j.g j.j.j.j.j.j.j.j.j.j.j.j.j.j.j.j.j.j.j.j.j.j.j.j.j.j.",
"j.j.j.j.j.j.j.j.j.j.j.j.j.j.j.j.j.j.j.j.j.j.j.j.j.j.g r.j.j.j.j.j.j.j.j.j.g j.j.j.j.j.j.j.j.j.j.j.j.j.j.j.j.j.j.j.j.j.j.j.j.j.j.",
"j.j.j.j.j.j.j.j.j.j.j.j.j.j.j.j.j.j.j.j.j.j.j.j.j.j.h _ j.j.j.j.j.j.j.j.j.g j.j.j.j.j.j.j.j.j.j.j.j.j.j.j.j.j.j.j.j.j.j.j.j.j.j.",
"j.j.j.j.j.j.j.j.j.j.j.j.j.j.j.j.j.j.j.j.j.j.j.j.j.j.f ( j.j.j.j.j.j.j.j.j.g j.j.j.j.j.j.j.j.j.j.j.j.j.j.j.j.j.j.j.j.j.j.j.j.j.j.",
"j.j.j.j.j.j.j.j.j.j.j.j.j.j.j.j.j.j.j.j.j.j.j.j.j.j.h ( j.j.j.j.j.j.j.j.j.g j.j.j.j.j.j.j.j.j.j.j.j.j.j.j.j.j.j.j.j.j.j.j.j.j.j.",
"j.j.j.j.j.j.j.j.j.j.j.j.j.j.j.j.j.j.j.j.j.j.j.j.j.j.g r.j.j.j.j.j.j.j.j.j.h j.j.j.j.j.j.j.j.j.j.j.j.j.j.j.j.j.j.j.j.j.j.j.j.j.j.",
"j.j.j.j.j.j.j.j.j.j.j.j.j.j.j.j.j.j.j.j.j.j.j.j.j.j.g _ j.j.j.j.j.j.j.j.j.f j.j.j.j.j.j.j.j.j.j.j.j.j.j.j.j.j.j.j.j.j.j.j.j.j.j.",
"j.j.j.j.j.j.j.j.j.j.j.j.j.j.j.j.j.j.j.j.j.j.j.j.j.j.c r.j.j.j.j.j.j.j.j.j.c j.j.j.j.j.j.j.j.j.j.j.j.j.j.j.j.j.j.j.j.j.j.j.j.j.j.",
"j.j.j.j.j.j.j.j.j.j.j.j.j.j.j.j.j.j.j.j.j.j.j.j.j.a T f.j.j.j.j.j.j.j.j.g.T s j.j.j.j.j.j.j.j.j.j.j.j.j.j.j.j.j.j.j.j.j.j.j.j.j.",
"j.j.j.j.j.j.j.j.j.j.j.j.j.j.j.j.j.j.j.j.j.j.j.j.a f r.g.g.f.f.j.j.j.j.h.g.y.f a j.j.j.j.j.j.j.j.j.j.j.j.j.j.j.j.j.j.j.j.j.j.j.j.",
"j.j.j.j.j.j.j.j.j.j.j.j.j.j.j.j.j.j.j.j.j.j.j.j.a I u.u.u.d.f.j.j.j.j.j.j.j.m s j.j.j.j.j.j.j.j.j.j.j.j.j.j.j.j.j.j.j.j.j.j.j.j.",
"j.j.j.j.j.j.j.j.j.j.j.j.j.j.j.j.j.j.j.j.j.j.j.a h r.j.j.j.j.j.j.j.j.j.j.j.j.j.h a j.j.j.j.j.j.j.j.j.j.j.j.j.j.j.j.j.j.j.j.j.j.j.",
"j.j.j.j.j.j.j.j.j.j.j.j.j.j.j.j.j.j.j.j.j.j.j.s T j.u.r.j.j.j.j.j.j.j.j.j.j.j.T s j.j.j.j.j.j.j.j.j.j.j.j.j.j.j.j.j.j.j.j.j.j.j.",
"j.j.j.j.j.j.j.j.j.j.j.j.j.j.j.j.j.j.j.j.j.j.a v y.j.y.( j.j.j.j.j.j.j.j.j.j.j.j.v a j.j.j.j.j.j.j.j.j.j.j.j.j.j.j.j.j.j.j.j.j.j.",
"j.j.j.j.j.j.j.j.j.j.j.j.j.j.j.j.j.j.j.j.j.j.f Q j.u.r.( j.j.j.j.j.j.j.j.j.j.j.j./ g j.j.j.j.j.j.j.j.j.j.j.j.j.j.j.j.j.j.j.j.j.j.",
"j.j.j.j.j.j.j.j.j.j.j.j.j.j.j.j.j.j.j.j.j.a n u.u.y.r.( j.j.j.j.j.j.j.j.j.j.j.j.j.I s j.j.j.j.j.j.j.j.j.j.j.j.j.j.j.j.j.j.j.j.j.",
"j.j.j.j.j.j.j.j.j.j.j.j.j.j.j.j.j.j.j.j.a h _ j.u.7.^ W W j.j.j.j.j.j.j.j.j.j.j.j.t.h a j.j.j.j.j.j.j.j.j.j.j.j.j.j.j.j.j.j.j.j.",
"j.j.j.j.j.j.j.j.j.j.j.j.j.j.j.j.j.j.j.j.d Y 3.<.X.A Z Z w Z [ r u y j.j.j.j.#.' X.3.Y s j.j.j.j.j.j.j.j.j.j.j.j.j.j.j.j.j.j.j.j.",
"j.j.j.j.j.j.j.j.j.j.j.j.j.j.j.j.j.j.j.d j A ` ` 0 0 0 0 7 9 e 9 e e 9 9 e y r 0 2 Z  .k a j.j.j.j.j.j.j.j.j.j.j.j.j.j.j.j.j.j.j.",
"j.j.j.j.j.j.j.j.j.j.j.j.j.j.j.j.j.j.j.f B ` ` 8 7 7 6 6 6 8 9 9 9 9 9 9 e e e 0 0 0 w C f j.j.j.j.j.j.j.j.j.j.j.j.j.j.j.j.j.j.j.",
"j.j.j.j.j.j.j.j.j.j.j.j.j.j.j.j.j.j.p l ` 8 9 7 6 6 5 5 6 8 8 8 8 9 9 9 9 e y e 0 0 0 ` z a j.j.j.j.j.j.j.j.j.j.j.j.j.j.j.j.j.j.",
"j.j.j.j.j.j.j.j.j.j.j.j.j.j.j.j.j.f f A e e 0 7 7 6 6 6 7 8 8 9 9 9 9 9 9 e e e 0 0 1 ` G g s j.j.j.j.j.j.j.j.j.j.j.j.j.j.j.j.j.",
"j.j.j.j.j.j.j.j.j.j.j.j.j.j.j.j.j.g B [ ` ` q 0 0 0 7 0 8 e e 9 9 9 9 9 e e y y q 3 2 4 [ B s j.j.j.j.j.j.j.j.j.j.j.j.j.j.j.j.j.",
"j.j.j.j.j.j.j.j.j.j.j.j.j.j.j.j.p j r @.[ ` Z Z Z 0 2 0 q r e y y e e 9 e e i @.t 2 3 3 u u z s j.j.j.j.j.j.j.j.j.j.j.j.j.j.j.j.",
"j.j.j.j.j.j.j.j.j.j.j.j.j.j.j.j.s Z i i @.r 0 q q w Z Z ` [ [ y i y e j.j.e i i u q 0 1 t u < f j.j.j.j.j.j.j.j.j.j.j.j.j.j.j.j.",
"j.j.j.j.j.j.j.j.j.j.j.j.j.j.j.a M i y i r r q r q e q u u i i i e e e 9 9 y u u y q 1 1 0 y u l s j.j.j.j.j.j.j.j.j.j.j.j.j.j.j.",
"j.j.j.j.j.j.j.j.j.j.j.j.j.j.a g Z i i i r r q q t 9 t y u i i y i e e 9 9 y i y u y 3 0 1 t i t f a j.j.j.j.j.j.j.j.j.j.j.j.j.j.",
"j.j.j.j.j.j.j.j.j.j.j.j.j.j.s B i i i r q r r q t q u i i i i i y y e 9 9 y i u u y q 1 q q y u B f j.j.j.j.j.j.j.j.j.j.j.j.j.j.",
"j.j.j.j.j.j.j.j.j.j.j.j.j.s j u i i i r e q q r q t u u i i i i i y e 9 9 e y u u y t 0 3 3 q u t j a j.j.j.j.j.j.j.j.j.j.j.j.j.",
"j.j.j.j.j.j.j.j.j.j.j.j.j.f Z i i i u q r q r q t t y i i i i i i y y e e y i u u u t 1 3 q q y i Z f j.j.j.j.j.j.j.j.j.j.j.j.j.",
"j.j.j.j.j.j.j.j.j.j.j.j.s z u u u i t e q r r r t u i i #.#.#.#.#.i @.@.#.#.&.$.#.[ u q 1 q 3 q u u z a j.j.j.j.j.j.j.j.j.j.j.j.",
"j.j.j.j.j.j.j.j.j.j.j.j.f G i i i u t t u t t t t } #.#.i #.i i i i i i i [ $.%.&.%.| [ t t t t r i G d j.j.j.j.j.j.j.j.j.j.j.j.",
"j.j.j.j.j.j.j.j.j.j.j.a N [ #.#.@.u t u t t t t t i i i } i } i i i i i i u [ } | | } ` t t ` ` [ #.#.N a j.j.j.j.j.j.j.j.j.j.j.",
"j.j.j.j.j.j.j.j.j.j.j.a H -.:.-.| [ u t t t t t t i [ @.} i i i u u u t t t t ` ` } } ` t 4 t { O.=.:.H a j.j.j.j.j.j.j.j.j.j.j.",
"j.j.j.j.j.j.j.j.j.j.j.f ..6.;.&.| | | } } u t t u [ i [ i u i i u u u t t t t t ] ] | | ' ` { } } O.q.X.f j.j.j.j.j.j.j.j.j.j.j.",
"j.j.j.j.j.j.j.j.j.j.j.d K O.[ [ { } | } } | } { | #.&.#.} #.| i } #.u } } ] ] ] ] o.o.%.| ' { ` ` 4 +.X.d j.j.j.j.j.j.j.j.j.j.j.",
"j.j.j.j.j.j.j.j.j.j.j.a P O.4 , 3 4 ` ` { { | } &.&.&.&.&.&.&.%.$.$.} } } ` ] ] ] ..o.] ] w 2 , > , +.J a j.j.j.j.j.j.j.j.j.j.j.",
"j.j.j.j.j.j.j.j.j.j.j.# k 1.+.4 > > > > 1 3 4 t [ } } $.$.} %.| | } u t w 4 4 < < G , < < : * > < X.<.k $ j.j.j.j.j.j.j.j.j.j.j.",
"j.j.j.j.j.j.j.j.j.j.j.j.& b 2.0.X.G 2 > > > > > 3 3 3 3 3 t w 4 w 3 3 , ; * * = = = - , < , Z ..1.>.k p j.j.j.j.j.j.j.j.j.j.j.j.",
"j.j.j.j.j.j.j.j.j.j.j.j.j.% g D >.0.5.+...H Z 4 4 4 4 1 3 3 3 3 > 3 3 > : : - - < H J +.5.1.2.E D g % j.j.j.j.j.j.j.j.j.j.j.j.j.",
"j.j.j.j.j.j.j.j.j.j.j.j.j.j.. % d k S R >.2.w.2.0.0.0.0.0.=.=.+.4.4.4.4.+.0.0.w.8.e.8.^ R S k d % X j.j.j.j.j.j.j.j.j.j.j.j.j.j.",
"j.j.j.j.j.j.j.j.j.j.j.j.j.j.j.j.j.o @ & a g k b n D J E W W W W E E W E E F S n b g f a & @ o j.j.j.j.j.j.j.j.j.j.j.j.j.j.j.j.j.",
"j.j.j.j.j.j.j.j.j.j.j.j.j.j.j.j.j.j.j.j.j.  . O + @ $ % % & & & % % & % % % % + O X j.j.j.j.j.j.j.j.j.j.j.j.j.j.j.j.j.j.j.j.j.j.",
"j.j.j.j.j.j.j.j.j.j.j.j.j.j.j.j.j.j.j.j.j.j.j.j.j.j.j.j.j.j.j.j.j.j.j.j.j.j.j.j.j.j.j.j.j.j.j.j.j.j.j.j.j.j.j.j.j.j.j.j.j.j.j.j.",
"j.j.j.j.j.j.j.j.j.j.j.j.j.j.j.j.j.j.j.j.j.j.j.j.j.j.j.j.j.j.j.j.j.j.j.j.j.j.j.j.j.j.j.j.j.j.j.j.j.j.j.j.j.j.j.j.j.j.j.j.j.j.j.j.",
"j.j.j.j.j.j.j.j.j.j.j.j.j.j.j.j.j.j.j.j.j.j.j.j.j.j.j.j.j.j.j.j.j.j.j.j.j.j.j.j.j.j.j.j.j.j.j.j.j.j.j.j.j.j.j.j.j.j.j.j.j.j.j.j.",
"j.j.j.j.j.j.j.j.j.j.j.j.j.j.j.j.j.j.j.j.j.j.j.j.j.j.j.j.j.j.j.j.j.j.j.j.j.j.j.j.j.j.j.j.j.j.j.j.j.j.j.j.j.j.j.j.j.j.j.j.j.j.j.j.",
"j.j.j.j.j.j.j.j.j.j.j.j.j.j.j.j.j.j.j.j.j.j.j.j.j.j.j.j.j.j.j.j.j.j.j.j.j.j.j.j.j.j.j.j.j.j.j.j.j.j.j.j.j.j.j.j.j.j.j.j.j.j.j.j.",
"j.j.j.j.j.j.j.j.j.j.j.j.j.j.j.j.j.j.j.j.j.j.j.j.j.j.j.j.j.j.j.j.j.j.j.j.j.j.j.j.j.j.j.j.j.j.j.j.j.j.j.j.j.j.j.j.j.j.j.j.j.j.j.j."
};
