/* XPM */
static char *mm[] = {
/* columns rows colors chars-per-pixel */
"96 96 85 1 ",
"  c #BF1D1D",
". c #C31A1A",
"X c #C31B1B",
"o c #C51919",
"O c #C61818",
"+ c #C71818",
"@ c #C61919",
"# c #C71919",
"$ c #C41A1A",
"% c #C51A1A",
"& c #C41B1B",
"* c #C51B1B",
"= c #C61A1A",
"- c #C71A1A",
"; c #C21C1C",
": c #C31C1C",
"> c #C81818",
", c #C91818",
"< c #C81919",
"1 c #C91919",
"2 c #CA1818",
"3 c #CB1818",
"4 c #CA1919",
"5 c #CB1919",
"6 c #C81A1A",
"7 c #CD1818",
"8 c #CC1919",
"9 c #CE1818",
"0 c #CF1818",
"q c #CF1919",
"w c #D01818",
"e c #D11818",
"r c #D11919",
"t c #D21818",
"y c #D31818",
"u c #D21919",
"i c #D31919",
"p c #D41818",
"a c #D51818",
"s c #D41919",
"d c #D61818",
"f c #D71818",
"g c #D71919",
"h c #D81818",
"j c #D91818",
"k c #D91919",
"l c #DA1818",
"z c #DB1818",
"x c #DC1818",
"c c #DD1818",
"v c #DC1919",
"b c #DE1818",
"n c #DF1818",
"m c #E01818",
"M c #E11818",
"N c #E21818",
"B c #E31818",
"V c #E41818",
"C c #E51818",
"Z c #E61818",
"A c #E71818",
"S c #E81818",
"D c #E91818",
"F c #EA1818",
"G c #EB1818",
"H c #EC1818",
"J c #ED1818",
"K c #EE1818",
"L c #EF1818",
"P c #F01818",
"I c #F11818",
"U c #F21818",
"Y c #F31818",
"T c #F41818",
"R c #F51818",
"E c #F61818",
"W c #F71818",
"Q c #F81818",
"! c #F91818",
"~ c #FA1818",
"^ c #FB1818",
"/ c #FC1818",
"( c #FD1818",
") c #FF1818",
"_ c None",
/* pixels */
"________________________________________________________________________________________________",
"________________________________________________________________________________________________",
"________________________________________________________________________________________________",
"________________________________________________________________________________________________",
"________________________________________________________________________________________________",
"______________________________-O,,,6--__________________________:-O,O,-O________________________",
"__________________________-,,O,,,,,,,O,,,____________________-,,,,,,,,,,,,,O____________________",
"________________________O,,,yfznZmZmmnz7,,,________________,,,,fnmmZZmnnzy,,,,-_________________",
"______________________O,,7znZGGKKKYYYKGZmy,,-____________:,,7zZGKYKYKKKKGZmny,,,________________",
"_____________________,,7zmGKGKGGGGGKKYYYYGny,,__________O,,zGKYYYYKKGGGGGKKGZny,,-______________",
"____________________,OfZGKKZmnzfyffznZGKYYKZf,,________O,ymKYYKKZmnzffffnnZGKKZn7,,_____________",
"__________________-,,nZKKZmf,,,,,,,,,,fnZKYYGn,O______-,fmKYKGmf7,O,,,O,,,7nmGKGmy,,____________",
"__________________,,nGKKZf,,-________O,,7nGKYGn,,____,,fZKYGmf,,,_________,,7nGKYZfOO___________",
"_________________,,nGYKmyOO_____________,,fmKKGn7,__O,fZKKZz7,O_____________,,zGKYZf,O__________",
"________________O,zGYKmy,________________-,ymKYKmzf_fnGYKZf,,________________-,zGYKZy,__________",
"________________,yZYYZy,___________________,7ZKYRKGGKKYYZf,-__________________O,zKRKn,6_________",
"_______________,,mYYGzO_____________________,yZR!/////!Kz,-____________________O,mYYKf,-________",
"_______________,fKRKn,,______________________,fK//////Rm,O______________________,yGYYZ,,________",
"______________,,mYRGyO_______________________-,m!/////Gf,________________________,nKRKz,________",
"______________,yKRYm,O________________________,fY////!m,_________________________,yGRYm,,_______",
"_____________XOnYRKf,_________________________-,Z////Rf,_________________________O,mYRG7,_______",
"_____________,,mYRZyO__________________________,nR///G,-__________________________,zYRKz,_______",
"_____________,7GRYm,:__________________________,fY//!m,___________________________,yGRYnO-______",
"_____________,yGRYn,___________________________O7K//Rn,___________________________-,ZRYZ,,______",
"_____________,fKRYzO___________________________O,G!/Yz,____________________________,mRRG7,______",
"_____________,zY!Kf,___________________________-,Z!/Kf,____________________________,mRRG7,______",
"_____________,nYRKy,___________________________:,mR!Ky,____________________________,nYRKyO______",
"_____________OnYRGy,___________________________-,mR!Ky,____________________________,nYRKf,______",
"_____________,nY!K7,___________________________:,ZR!Gy,____________________________,zYRKy,______",
"_____________,nYRGy,___________________________:,mR!Gy,____________________________,zKRKf,______",
"_____________,mYRGy,___________________________-,mRRKy,____________________________,zYRYf,______",
"_____________,mY!G7,___________________________-,mR!Ky,____________________________OzYRKf,______",
"_____________,mYRGy,___________________________-OmR!Gy,____________________________,zYRKfO______",
"_____________,mY!G7,___________________________:,mR!Gy,____________________________,zYRKf,______",
"_____________,mYRK7,___________________________:,mR!Ky,____________________________,zYRKf,______",
"_____________,mYRGy,___________________________O,mRRKy,____________________________,zY!Kf,______",
"_____________,mY!G7,___________________________:,mRRKy,____________________________,zYRKfO______",
"_____________,mYRKy,___________________________:,ZR!Ky,____________________________,zKRKf,______",
"_____________,mYRG7,___________________________-,mR!KyO____________________________,zY!Kf,______",
"_____________,mYRGy,___________________________:,mR!Gy,____________________________OzYRKf,______",
"_____________,mY!Gy,___________________________:,mRRKy,____________________________,zYRKf,______",
"_____________,mYRG7,___________________________-,mR!Gy,____________________________,zKRKf,______",
"_____________,mY!G7,___________________________:,mR!Ky,____________________________,zY!Kf,______",
"_____________,mYRKy,___________________________:,ZRRGy,____________________________,zYRKf,______",
"_____________,mYRGy,___________________________-,mR!Gy,____________________________,zYRKfO______",
"_____________,mY!G7,___________________________:,mR!Gy,____________________________,zY!Kf,______",
"_____________,nYRK7,___________________________:,mR!Ky,____________________________,zYRKf,______",
"_____________,nRRGy,___________________________-,mRRKy,____________________________,zKRKfO______",
"_____________,nY!Gy,___________________________:,ZR!KyO____________________________,zKRKf,______",
"_____________,nYRG7,___________________________:,mRRGy,____________________________,zY!Kf,______",
"_____________,nY!Gy,___________________________O,mR!Ky,____________________________,zY!Kf,______",
"_____________,nYRG7,___________________________:,mR!Ky,____________________________OzYRKf,______",
"_____________,nYRK7,___________________________:,mR!Ky,____________________________,zYRKf,______",
"_____________,nYRGy,___________________________-,mY!Gy,____________________________,zKRKfO______",
"_____________,nYRKy,___________________________:,nYRG7,____________________________,zKRGf,______",
"_____________,nKRGy,___________________________:,nKYZ7,____________________________,fGYG7,______",
"_____________,nYRKy,___________________________-OfZGm,,____________________________,7ZGn,,______",
"_____________,nYRG7,___________________________:,,zzy,,____________________________,,fzy,,______",
"_____________,zYRKy,____________________________,,,,,,,____________________________,,,O,,,______",
"_____________,zYRGy,____________________________,,,,,,,____________________________,,,,,,,______",
"_____________,nYRKy,____________________________________________________________________________",
"_____________,nKRG7,____________________________________________________________________________",
"_____________,nKRGy,____________________________________________________________________________",
"_____________,zYRGy,____________________________________________________________________________",
"_____________,zYRGyO____________________________________________________________________________",
"_____________,zYRGy,____________________________________________________________________________",
"_____________,nKRGyO____________________________________________________________________________",
"_____________,zYRGy,____________________________________________________________________________",
"_____________,zYRG7,____________________________________________________________________________",
"_____________,zKRGy,____________________________________________________________________________",
"_____________,zYRGy,____________________________________________________________________________",
"_____________,zYRKyO____________________________________________________________________________",
"_____________,zKRGy,____________________________________________________________________________",
"_____:-:O----,qkvk,,----:-::____________________________________________________________________",
"___-,,,,,,O,,,,,,,,,O,,,OO,,,___________________________________________________________________",
"___-,,7fnmmmmmmnmmmmmmmmzf,,,___________________________________________________________________",
"___-,7nGKYYYYYYYRYYYYYKKKmf,,___________________________________________________________________",
"___-,7nGKYRYYYRYRYYYRYYYKZf,,___________________________________________________________________",
"___-,,fnmZZZmZZZZZZZZZZmnz,,,___________________________________________________________________",
"___-,,,,,,,,,,,,,,,O,,,,,O,,,___________________________________________________________________",
"___ :--O-,-,-,,yii6,6,-,-O--:___________________________________________________________________",
"_____________,zKRGy,____________________________________________________________________________",
"_____________,zKRGyO____________________________________________________________________________",
"_____________,zKRGy,____________________________________________________________________________",
"_____________,zKRKyO____________________________________________________________________________",
"_____________,fGYGy,____________________________________________________________________________",
"_____________,fGYZ7,____________________________________________________________________________",
"_____________,7ZGn,,____________________________________________________________________________",
"_____________,,fzf,,____________________________________________________________________________",
"_____________,,,,,,,____________________________________________________________________________",
"_____________,,,,,,,____________________________________________________________________________",
"________________________________________________________________________________________________",
"________________________________________________________________________________________________",
"________________________________________________________________________________________________",
"________________________________________________________________________________________________",
"________________________________________________________________________________________________"
};
