/* XPM */
static char *mm2[] = {
/* columns rows colors chars-per-pixel */
"64 64 68 1 ",
"  c #C31B1B",
". c #C51919",
"X c #C71818",
"o c #C61919",
"O c #C71919",
"+ c #C41A1A",
"@ c #C51A1A",
"# c #C41B1B",
"$ c #C61A1A",
"% c #C71A1A",
"& c #C31C1C",
"* c #C81818",
"= c #C91818",
"- c #C81919",
"; c #C91919",
": c #CA1818",
"> c #CB1818",
", c #C81A1A",
"< c #CC1818",
"1 c #CD1818",
"2 c #CE1818",
"3 c #CF1818",
"4 c #D01818",
"5 c #D11818",
"6 c #D21818",
"7 c #D31818",
"8 c #D41818",
"9 c #D51818",
"0 c #D61818",
"q c #D71818",
"w c #D81818",
"e c #D91818",
"r c #DA1818",
"t c #DB1818",
"y c #DC1818",
"u c #DD1818",
"i c #DE1818",
"p c #DF1818",
"a c #E01818",
"s c #E11818",
"d c #E21818",
"f c #E31818",
"g c #E41818",
"h c #E51818",
"j c #E61818",
"k c #E71818",
"l c #E81818",
"z c #E91818",
"x c #EA1818",
"c c #EB1818",
"v c #EC1818",
"b c #ED1818",
"n c #EE1818",
"m c #EF1818",
"M c #F01818",
"N c #F11818",
"B c #F21818",
"V c #F31818",
"C c #F41818",
"Z c #F51818",
"A c #F61818",
"S c #F71818",
"D c #F81818",
"F c #F91818",
"G c #FD1818",
"H c #FE1818",
"J c #FF1818",
"K c None",
/* pixels */
"KKKKKKKKKKKKKKKKKKKKKKKKKKKKKKKKKKKKKKKKKKKKKKKKKKKKKKKKKKKKKKKK",
"KKKKKKKKKKKKKKKKKKKKKKKKKKKKKKKKKKKKKKKKKKKKKKKKKKKKKKKKKKKKKKKK",
"KKKKKKKKKKKKKKKKKKKKKKKKKKKKKKKKKKKKKKKKKKKKKKKKKKKKKKKKKKKKKKKK",
"KKKKKKKKKKKKKKKKKKKKKKOOKKKKKKKKKKKKKKKKKKKK#OOKKKKKKKKKKKKKKKKK",
"KKKKKKKKKKKKKKKKKO=O=222===OKKKKKKKKKKKK#===242===OKKKKKKKKKKKKK",
"KKKKKKKKKKKKKKKO=2wkkzmmmzd2=#KKKKKKKKK=2uzzmmzzku4==KKKKKKKKKKK",
"KKKKKKKKKKKKKK=2dzmzkkzzmNCmd==KKKKKKO=uzNNmzkkkzzzd0=OKKKKKKKKK",
"KKKKKKKKKKKKK=wzzkw======0kmNz4=KKKKO=kNNzw2=====0dmzdOOKKKKKKKK",
"KKKKKKKKKKKK=umzu=#KKKKKKO=0kmz0=KKO2kmzw==KKKKKK#=0zmk=OKKKKKKK",
"KKKKKKKKKKK=wmmw=KKKKKKKKKK#=dmmu2K0kmk==KKKKKKKKKK,2kmd=KKKKKKK",
"KKKKKKKKKK=2mNu=KKKKKKKKKKKKK=dNCNmCCz2#KKKKKKKKKKKKO4mmu=KKKKKK",
"KKKKKKKKKK=dNk=KKKKKKKKKKKKKKK=zJJJJN4OKKKKKKKKKKKKKK=uNm=#KKKKK",
"KKKKKKKKKO2mN0OKKKKKKKKKKKKKKK=wFJJJd=KKKKKKKKKKKKKKKK=zNd=KKKKK",
"KKKKKKKKK=uCz=KKKKKKKKKKKKKKKKK=mJJF4KKKKKKKKKKKKKKKKK=uCz=KKKKK",
"KKKKKKKKK=kCuOKKKKKKKKKKKKKKKKK=dJJz=KKKKKKKKKKKKKKKKKK4NN4=KKKK",
"KKKKKKKKK=mCwOKKKKKKKKKKKKKKKKKK0FJk=KKKKKKKKKKKKKKKKKK=mCw=KKKK",
"KKKKKKKKK2NN2KKKKKKKKKKKKKKKKKKK4CFuOKKKKKKKKKKKKKKKKKK=zCd=KKKK",
"KKKKKKKKO4Nm=KKKKKKKKKKKKKKKKKKK2NFuOKKKKKKKKKKKKKKKKKK=kFk=KKKK",
"KKKKKKKKO0Nm=KKKKKKKKKKKKKKKKKKK=NCwOKKKKKKKKKKKKKKKKKK=dFz=KKKK",
"KKKKKKKKOwCz=KKKKKKKKKKKKKKKKKKK=mC0OKKKKKKKKKKKKKKKKKKOkCz=KKKK",
"KKKKKKKKO0Cm=KKKKKKKKKKKKKKKKKKK=mCwOKKKKKKKKKKKKKKKKKK=dFz=KKKK",
"KKKKKKKKOwCm=KKKKKKKKKKKKKKKKKKK=mCwOKKKKKKKKKKKKKKKKKK=dCm=KKKK",
"KKKKKKKKOwNm=KKKKKKKKKKKKKKKKKKK=NCwOKKKKKKKKKKKKKKKKKK=dFz=KKKK",
"KKKKKKKKOwNm=KKKKKKKKKKKKKKKKKKK=NCwOKKKKKKKKKKKKKKKKKK=dFz=KKKK",
"KKKKKKKKOwCm=KKKKKKKKKKKKKKKKKKK=mCw=KKKKKKKKKKKKKKKKKK=dCm=KKKK",
"KKKKKKKKO0Nm=KKKKKKKKKKKKKKKKKKK=mCwOKKKKKKKKKKKKKKKKKKOdFz=KKKK",
"KKKKKKKKOwNm=KKKKKKKKKKKKKKKKKKK=mCwOKKKKKKKKKKKKKKKKKK=dFz=KKKK",
"KKKKKKKKOwNm=KKKKKKKKKKKKKKKKKKK=mCwOKKKKKKKKKKKKKKKKKK=dFz=KKKK",
"KKKKKKKKO0Cm=KKKKKKKKKKKKKKKKKKK=NCwOKKKKKKKKKKKKKKKKKKOdFz=KKKK",
"KKKKKKKKOwCz=KKKKKKKKKKKKKKKKKKK=NCwOKKKKKKKKKKKKKKKKKK=dCm=KKKK",
"KKKKKKKKOwCm=KKKKKKKKKKKKKKKKKKK=mCwOKKKKKKKKKKKKKKKKKK=dFz=KKKK",
"KKKKKKKKO0Cm=KKKKKKKKKKKKKKKKKKK=mC0OKKKKKKKKKKKKKKKKKKOdFz=KKKK",
"KKKKKKKKOwCz=KKKKKKKKKKKKKKKKKKK=mCw=KKKKKKKKKKKKKKKKKKOdDx=KKKK",
"KKKKKKKKOwNm=KKKKKKKKKKKKKKKKKKK=mCwOKKKKKKKKKKKKKKKKKK=dDx=KKKK",
"KKKKKKKKO0Cm=KKKKKKKKKKKKKKKKKKK=mCwOKKKKKKKKKKKKKKKKKK=dDx=KKKK",
"KKKKKKKK#0Nm=KKKKKKKKKKKKKKKKKKK=mCwOKKKKKKKKKKKKKKKKKKOdDx=KKKK",
"KKKKKKKKO0Nm=KKKKKKKKKKKKKKKKKKKOmC0OKKKKKKKKKKKKKKKKKK=uCz=KKKK",
"KKKKKKKKO0Cz=KKKKKKKKKKKKKKKKKKK=kz4OKKKKKKKKKKKKKKKKKK=wmd=KKKK",
"KKKKKKKK 0Nm=KKKKKKKKKKKKKKKKKKK=24=OKKKKKKKKKKKKKKKKKK==w==KKKK",
"KKKKKKKKO0Nm=KKKKKKKKKKKKKKKKKKK====&KKKKKKKKKKKKKKKKKKO====KKKK",
"KKKKKKKK&0Nz=KKKKKKKKKKKKKKKKKKKKKKKKKKKKKKKKKKKKKKKKKKKKKKKKKKK",
"KKKKKKKKO0Nm=KKKKKKKKKKKKKKKKKKKKKKKKKKKKKKKKKKKKKKKKKKKKKKKKKKK",
"KKKKKKKKO4Nz=KKKKKKKKKKKKKKKKKKKKKKKKKKKKKKKKKKKKKKKKKKKKKKKKKKK",
"KKKKKKKKO0Nm=KKKKKKKKKKKKKKKKKKKKKKKKKKKKKKKKKKKKKKKKKKKKKKKKKKK",
"KKKKKKKKO4Nm=KKKKKKKKKKKKKKKKKKKKKKKKKKKKKKKKKKKKKKKKKKKKKKKKKKK",
"KKKKKKKK&0Nm=KKKKKKKKKKKKKKKKKKKKKKKKKKKKKKKKKKKKKKKKKKKKKKKKKKK",
"KKKKKKKKO4mm=KKKKKKKKKKKKKKKKKKKKKKKKKKKKKKKKKKKKKKKKKKKKKKKKKKK",
"KKKKKKKK#4Nm=KKKKKKKKKKKKKKKKKKKKKKKKKKKKKKKKKKKKKKKKKKKKKKKKKKK",
"KKKKKKKK&4Nm=KKKKKKKKKKKKKKKKKKKKKKKKKKKKK=====KKK====#KKKKKKKKK",
"KKO================KKKKKKKKKKKKKKKKKKKKKKK=4kw=KKK=uk2=KKKKKKKKK",
"KKO=wkkzzzkzzzzkd4=KKKKKKKKKKKKKKKKKKKKKKK=dNk=KKK2zNw=KKKKKKKKK",
"KK==kNCCCFCCCFCNmu=KKKKKKKKKKKKKKKKKKKKKKK=dFz=KKK2NCuOKKKKKKKKK",
"KKO=4uudduduuudu0==KKKKKKKKKKKKKKKKKKKKKKK=kCz=KKK2mCuOKKKKKKKKK",
"KK#OO=O=O=22==O==O#KKKKKKKKKKKKKKKKKKKKKKK=dFz=KKK2mCu=KKKKKKKKK",
"KKKKKKKKK4mm=KKKKKKKKKKKKKKKKKKKKKKKKKKKKK=dFz=KKK2mCu=KKKKKKKKK",
"KKKKKKKKK4mm=KKKKKKKKKKKKKKKKKKKKKKKKKKKKK=dCz=KKK2mCuOKKKKKKKKK",
"KKKKKKKKK2mm=KKKKKKKKKKKKKKKKKKKKKKKKKKKKK=kCz=KKK2mCw=KKKKKKKKK",
"KKKKKKKKK2mz=KKKKKKKKKKKKKKKKKKKKKKKKKKKKK=dCz=KKK2NCu,KKKKKKKKK",
"KKKKKKKKK=dd=KKKKKKKKKKKKKKKKKKKKKKKKKKKKK=dCk=KKK2zCu=KKKKKKKKK",
"KKKKKKKKK====KKKKKKKKKKKKKKKKKKKKKKKKKKKKK=0zu=KKK=uk2=KKKKKKKKK",
"KKKKKKKKK====KKKKKKKKKKKKKKKKKKKKKKKKKKKKK=====KKK====#KKKKKKKKK",
"KKKKKKKKKKKKKKKKKKKKKKKKKKKKKKKKKKKKKKKKKKKKKKKKKKKKKKKKKKKKKKKK",
"KKKKKKKKKKKKKKKKKKKKKKKKKKKKKKKKKKKKKKKKKKKKKKKKKKKKKKKKKKKKKKKK",
"KKKKKKKKKKKKKKKKKKKKKKKKKKKKKKKKKKKKKKKKKKKKKKKKKKKKKKKKKKKKKKKK"
};
