/* XPM */
static char *sfinx[] = {
/* columns rows colors chars-per-pixel */
"29 29 198 2 ",
"   c #141B17",
".  c #353A36",
"X  c #4B0002",
"o  c #581706",
"O  c #5F181C",
"+  c #650004",
"@  c #7A0002",
"#  c #781117",
"$  c #61210D",
"%  c #7D2D1A",
"&  c #673615",
"*  c #7D1E23",
"=  c #79292C",
"-  c #7A4824",
";  c #4F544F",
":  c #505753",
">  c #5C4745",
",  c #76625F",
"<  c #626862",
"1  c #7E746C",
"2  c #830005",
"3  c #87060B",
"4  c #960004",
"5  c #9A0004",
"6  c #96090A",
"7  c #95190C",
"8  c #A40104",
"9  c #AC0005",
"0  c #AA030C",
"q  c #A5020C",
"w  c #B80508",
"e  c #B71907",
"r  c #A90D16",
"t  c #BD0E15",
"y  c #AB131C",
"u  c #AC1408",
"i  c #85330E",
"p  c #AD3D09",
"a  c #AE1D25",
"s  c #822326",
"d  c #AE242A",
"f  c #BC272C",
"g  c #AE2833",
"h  c #BB3239",
"j  c #C90208",
"k  c #D00109",
"l  c #DC040A",
"z  c #D30809",
"x  c #C21009",
"c  c #CD0C11",
"v  c #D4121F",
"b  c #DD071C",
"n  c #EA050B",
"m  c #F2090B",
"M  c #EA1D0B",
"N  c #E6130B",
"B  c #E20016",
"V  c #FA150C",
"C  c #DC2809",
"Z  c #D42D15",
"A  c #EE2C0B",
"S  c #E6260B",
"D  c #F32F0B",
"F  c #ED370A",
"G  c #F73B0C",
"H  c #E5341B",
"J  c #D41A27",
"K  c #ED1F21",
"L  c #E60A22",
"P  c #CC272F",
"I  c #D2383B",
"U  c #D62D3A",
"Y  c #FD2F2C",
"T  c #F62838",
"R  c #E83837",
"E  c #EC2B3C",
"W  c #AE5309",
"Q  c #B4590A",
"!  c #B7620D",
"~  c #B04D26",
"^  c #D0450A",
"/  c #EF440C",
"(  c #EF4B0C",
")  c #ED550C",
"_  c #EF5B0C",
"`  c #F25E0C",
"'  c #F2530D",
"]  c #F24C0B",
"[  c #D8670C",
"{  c #F8630D",
"}  c #EE750D",
"|  c #FC7E0E",
" . c #F2760D",
".. c #DF423B",
"X. c #C64832",
"o. c #F14421",
"O. c #EE5E3F",
"+. c #AA3C44",
"@. c #D83440",
"#. c #EA2E40",
"$. c #F43444",
"%. c #914F4D",
"&. c #B45559",
"*. c #AC494C",
"=. c #AF6653",
"-. c #8D6F6F",
";. c #BD666E",
":. c #B16C70",
">. c #AD7375",
",. c #CF4045",
"<. c #DB434B",
"1. c #CB504F",
"2. c #D25E4E",
"3. c #C84E51",
"4. c #D95B5A",
"5. c #EA4549",
"6. c #F4424E",
"7. c #F0494E",
"8. c #F54D56",
"9. c #EC585B",
"0. c #F5525D",
"q. c #F35A5D",
"w. c #E74955",
"e. c #F95A62",
"r. c #EC5A63",
"t. c #D36466",
"y. c #DC6566",
"u. c #DE787C",
"i. c #EE6164",
"p. c #E7656B",
"a. c #F3666B",
"s. c #F4686B",
"d. c #F16B72",
"f. c #EF7275",
"g. c #EE767A",
"h. c #F27376",
"j. c #73847E",
"k. c #FA910E",
"l. c #FBA20E",
"z. c #EB7A80",
"x. c #F37D80",
"c. c #788882",
"v. c #979F9A",
"b. c #A98885",
"n. c #B08182",
"m. c #A8988D",
"M. c #B49B99",
"N. c #9CA09C",
"B. c #A2AFA8",
"V. c #A7B4AE",
"C. c #AFBAB3",
"Z. c #C08A8A",
"A. c #CF9D99",
"S. c #E98688",
"D. c #F3898D",
"F. c #F7868B",
"G. c #EA8F94",
"H. c #F48F92",
"J. c #ED9E9D",
"K. c #EC9397",
"L. c #F29495",
"P. c #F3969A",
"I. c #F29B9A",
"U. c #F1A19D",
"Y. c #EC9CA1",
"T. c #F49FA4",
"R. c #C4AAAA",
"E. c #D4A1A1",
"W. c #EFA9AB",
"Q. c #E1A2A2",
"!. c #F2A1A4",
"~. c #FAA4A5",
"^. c #F1ABAA",
"/. c #F8A8AB",
"(. c #F8B1AE",
"). c #ECBCB5",
"_. c #E1B3B3",
"`. c #F1B3B3",
"'. c #F5B8B5",
"]. c #E5B2AB",
"[. c #B6C3BD",
"{. c #E2C3BC",
"}. c #F2C2BE",
"|. c #B8CCC4",
" X c #C9CCC5",
".X c #CEDCD6",
"XX c #F1C6C2",
"oX c #F2CCC5",
"OX c #FAC2C0",
"+X c #F3D3CC",
"@X c #F2DDD6",
"#X c #EBC5C1",
"$X c #F4E5DB",
"%X c #DAEFE4",
"&X c #D9F3E7",
"*X c #EAF8EF",
"=X c #F4F1EA",
"-X c None",
/* pixels */
"-X-X-X-X-X-X-X-X-X-X-X-X-X-X-X-X-X-X-X-X-X-X-X-X-X-X-X-X-X",
"-X-X-X-X-X-X-X-X-X-X-X-X-X-X-X-X-X-X-X-X-X-X-X-X-X-X-X-X-X",
"-X-X-X-X-X-X-X-X-XQ W p u e 6 + -X-X-X-X-X-X-X-X-X-X-X-X-X",
"-X-X-X-X-X-X-XQ } { ` G V N w 5 -X-X-X-X-X-X-X-X-X-X-X-X-X",
"-X-X-X-X-X-X-Xk.] A S m j 8 5 8 G { k.l. .{ ' -X-X-X-X-X-X",
"-X-X-X-X-X-X[ _ A m w 8 5 I p.S.F F _  .} { ' i -X-X-X-X-X",
"-X-X-X-X-X! { A M j r f h g.K.U.O.H C ^ ) ) / Z 7 -X-X-X-X",
"-X-X-X-X-X} / m k q <.g.!.}.oXXXW.U j 4 x D F m n 4 -X-X-X",
"-X-X-X-XS ]  .e q <.g.L.'.oX@X@X).S.q.L q w M m k 5 -X-X-X",
"-X-X-Xz F _ F w a L.I.^.oX+X+XXX}.L.f.6.Z e 0 n k 4 -X-X-X",
"-X-Xw S ( _ n 9 d ~.G.Q.{.{.{.`.].G.u.y.o.C 5 l j -X-X-X-X",
"-X-X-X6 z M 5 4 r q.% o o & =.D.- o o o v B 5 3 X -X-X-X-X",
"-X-X-X-X@ t t.t.u.#Xm.-., P y.W.P %.-.m.Z.&.@ @ X -X-X-X-X",
"-X-X-X-X-X# L.x.K.&XC.N.v.E a.^.$.>.V.V.|.b.3 2 X -X-X-X-X",
"-X-X-X-X-X-X8.K ...X: <  X9.f.U.7.A.B.. V.E.E 3 -X-X-X-X-X",
"-X-X-X-X-X-X= Y ..|.. : C.G.!.`.H.M.c.  c.n.$.-X-X-X-X-X-X",
"-X-X-X-X-X-X-XR 5.R., -.R._.+X@X(.Z.-.> -.t.#.-X-X-X-X-X-X",
"-X-X-X-X-X-X-X-Xw.H.'.'.g.).$X=X'.a.a./.F.0.B -X-X-X-X-X-X",
"-X-X-X-X-X-X-X-X-X~.oXoXJ.f.2.~ 5.f.!.oX/.>.-X-X-X-X-X-X-X",
"-X-X-X-X-X-X-X-X-X(.U.U.`.L.2.X.a.P.!.J.(.>.-X-X-X-X-X-X-X",
"-X-X-X-X-X-X-X-X-XOXq.i.!.'.L.s.W.Y.S.5./.b.-X-X-X-X-X-X-X",
"-X-X-X-X-X-X-X-X-XP.s.I 4  X&X*X&X*.0 q.F.:.-X-X-X-X-X-X-X",
"-X-X-X-X-X-X-X-X-Xs.a.p.4.3.&.&.1.,.<.i.e.+.-X-X-X-X-X-X-X",
"-X-X-X-X-X-X-X-X-Xs e.g.D.J c y c 5.a.q.@.* -X-X-X-X-X-X-X",
"-X-X-X-X-X-X-X-X-X-Xs 0.g.D.^.oXK.g.8.J -X-X-X-X-X-X-X-X-X",
"-X-X-X-X-X-X-X-X-X-X-X-X$.0.6.T T T P -X-X-X-X-X-X-X-X-X-X",
"-X-X-X-X-X-X-X-X-X-X-X-XO g y 9 0 y -X-X-X-X-X-X-X-X-X-X-X",
"-X-X-X-X-X-X-X-X-X-X-X-X-X-X-X-X-X-X-X-X-X-X-X-X-X-X-X-X-X",
"-X-X-X-X-X-X-X-X-X-X-X-X-X-X-X-X-X-X-X-X-X-X-X-X-X-X-X-X-X"
};
