/* XPM */
/*
https://www.iconfinder.com/icons/416398/aliens_exploration_fuel_nasa_rocket_space_spaceship_icon
*/
static char *spacequest[] = {
/* columns rows colors chars-per-pixel */
"64 64 194 2 ",
"   c #4B4B4B",
".  c #4D4C4B",
"X  c #4C4C4C",
"o  c #4D4C4C",
"O  c #4D4D4C",
"+  c #4D4D4D",
"@  c #4D5154",
"#  c #4D5255",
"$  c #4D5256",
"%  c #4C575F",
"&  c #4C585F",
"*  c #505050",
"=  c #515151",
"-  c #5D5D5D",
";  c #5E5E5E",
":  c #5F5F5F",
">  c #4C5860",
",  c #4C5961",
"<  c #4C5962",
"1  c #4C5E6A",
"2  c #4C5E6B",
"3  c #4C5F6B",
"4  c #4C5F6D",
"5  c #4C606D",
"6  c #4C606E",
"7  c #4C6577",
"8  c #4B6679",
"9  c #4B677A",
"0  c #4B687C",
"q  c #606060",
"w  c #717171",
"e  c #737373",
"r  c #747474",
"t  c #757575",
"y  c #767676",
"u  c #E97163",
"i  c #ED7061",
"p  c #ED7161",
"a  c #EE7061",
"s  c #EE7161",
"d  c #EE7461",
"f  c #EA7B63",
"g  c #EF7B62",
"h  c #EB7E63",
"j  c #EF7C62",
"k  c #F07E62",
"l  c #F08062",
"z  c #F08162",
"x  c #F18462",
"c  c #F18762",
"v  c #F28C63",
"b  c #F38F63",
"n  c #F39063",
"m  c #F59863",
"M  c #F59963",
"N  c #F59A63",
"B  c #F59B63",
"V  c #F8A964",
"C  c #F8AB64",
"Z  c #FBB264",
"A  c #FBB664",
"S  c #FBB865",
"D  c #FCBC65",
"F  c #FCBD65",
"G  c #FCBE65",
"H  c #FCBF65",
"J  c #FDC165",
"K  c #FDC466",
"L  c #FEC566",
"P  c #FEC666",
"I  c #FEC766",
"U  c #FFCA66",
"Y  c #FFCC66",
"T  c #FFCD66",
"R  c #F9C968",
"E  c #F8CA68",
"W  c #F9CA68",
"Q  c #377AA7",
"!  c #387AA7",
"~  c #3C79A5",
"^  c #3C7AA5",
"/  c #3E7DA5",
"(  c #3F7DA5",
")  c #3D7DA6",
"_  c #387BA8",
"`  c #4B6F87",
"'  c #4B6F88",
"]  c #4B7089",
"[  c #4B708A",
"{  c #4B718A",
"}  c #4B718B",
"|  c #4B718C",
" . c #4B728C",
".. c #927584",
"X. c #927684",
"o. c #498AB6",
"O. c #498AB7",
"+. c #498BB7",
"@. c #498BB8",
"#. c #498BB9",
"$. c #498CBA",
"%. c #498DBA",
"&. c #408DC1",
"*. c #4996CB",
"=. c #4996CC",
"-. c #4997CC",
";. c #4997CD",
":. c #4998CD",
">. c #4898CE",
",. c #4998CE",
"<. c #4898CF",
"1. c #4899CF",
"2. c #4899D0",
"3. c #489BD3",
"4. c #489BD4",
"5. c #489CD4",
"6. c #489CD5",
"7. c #479EDA",
"8. c #479FDA",
"9. c #479FDB",
"0. c #469FDC",
"q. c #479FDC",
"w. c #489ED9",
"e. c #489FDA",
"r. c #489FDB",
"t. c #47A0DC",
"y. c #48A0DB",
"u. c #4BA1DB",
"i. c #4FA2DB",
"p. c #48A0DC",
"a. c #49A0DC",
"s. c #48A0DD",
"d. c #48A1DD",
"f. c #4AA0DC",
"g. c #48A1DE",
"h. c #53A3D9",
"j. c #53A3DA",
"k. c #55A3D9",
"l. c #57A5D9",
"z. c #54A4DA",
"x. c #56A4DA",
"c. c #58A5D9",
"v. c #5AA6D9",
"b. c #5FA7D8",
"n. c #6DACD7",
"m. c #6FACD6",
"M. c #71ADD6",
"N. c #74AED5",
"B. c #74AED6",
"V. c #7DB1D4",
"C. c #8B9C8C",
"Z. c #989386",
"A. c #989686",
"S. c #929F8A",
"D. c #9BA387",
"F. c #BEBEBE",
"G. c #BFBFBF",
"H. c #84B3D4",
"J. c #8DB6D2",
"K. c #92B8D2",
"L. c #93B9D2",
"P. c #97BAD1",
"I. c #94B9D2",
"U. c #9BBBD1",
"Y. c #A5BED0",
"T. c #ACC1CF",
"R. c #AEC2CF",
"E. c #AFC2CF",
"W. c #B2C3CE",
"Q. c #B3C3CE",
"!. c #B7C5CE",
"~. c #BCC6CD",
"^. c #C1C1C1",
"/. c #C2C2C2",
"(. c #C3C3C3",
"). c #C4C4C4",
"_. c #C3C9CD",
"`. c #C5C9CC",
"'. c #C6CACC",
"]. c #C7CACC",
"[. c #C8CACC",
"{. c #CACBCC",
"}. c #CBCCCC",
"|. c #CCCCCC",
" X c #CDCCCC",
".X c #CECDCC",
"XX c #E2E2E2",
"oX c #E3E3E3",
"OX c #E4E4E4",
"+X c #E6E6E6",
"@X c #E7E7E7",
"#X c #E9E9E9",
"$X c white",
"%X c None",
/* pixels */
"%X%X%X%X%X%X%X%X%X%X%X%X%X%X%X%X%X%X%X%X%X%X%X%X%X%X%X%X%X%X%X%X%X%X%X%X%X%X%X%X%X%X%X%X%X%X%X%X%X%X%X%X%X%Xt.0.r.r.t.r.a.0.e.%X",
"%X%X%X%X%X%X%X%X%X%X%X%X%X%X%X%X%X%X%X%X%X%X%X%X%X%X%X%X%X%X%X%X%X%X%X%X%X%X%X%X%X%X%X%X%X%X%X%X%X%X9.r.a.t.a.a.a.a.a.t.a.t.r.9.",
"%X%X%X%X%X%X%X%X%X%X%X%X%X%X%X%X%X%X%X%X%X%X%X%X%X%X%X%X%X%X%X%X%X%X%X%X%X%X%X%X%X%X%X%X%X%X%X0.r.t.a.a.a.a.a.a.t.t.a.a.a.t.a.r.",
"%X%X%X%X%X%X%X%X%X%X%X%X%X%X%X%X%X%X%X%X%X%X%X%X%X%X%X%X%X%X%X%X%X%X%X%X%X%X%X%X%X%X%X%X%Xa.a.a.a.a.a.t.t.a.t.t.a.a.t.a.a.a.a.r.",
"%X%X%X%X%X%X%X%X%X%X%X%X%X%X%X%X%X%X%X%X%X%X%X%X%X%X%X%X%X%X%X%X%X%X%X%X%X%X%X%X%X%X%Xt.a.a.a.a.a.t.a.t.a.t.g.a.t.a.a.t.t.t.a.t.",
"%X%X%X%X%X%X%X%X%X%X%X%X%X%X%X%X%X%X%X%X%X%X%X%X%X%X%X%X%X%X%X%X%X%X%X%X%X%X%X%X%Xa.a.a.a.a.a.a.t.a.a.t.a.a.a.t.a.t.a.a.a.a.a.t.",
"%X%X%X%X%X%X%X%X%X%X%X%X%X%X%X%X%X%X%X%X%X%X%X%X%X%X%X%X%X%X%X%X%X%X%X%X%X%X%X0.a.t.t.a.t.a.a.a.a.a.t.a.t.t.a.a.a.t.t.a.a.t.a.0.",
"%X%X%X%X%X%X%X%X%X%X%X%X%X%X%X%X%X%X%X%X%X%X%X%X%X%X%X%X%X%X%X%X%X%X%X%X%X%Xr.a.t.a.a.a.g.t.4.<.2.4.a.g.a.a.t.a.a.a.a.t.a.a.a.e.",
"%X%X%X%X%X%X%X%X%X%X%X%X%X%X%X%X%X%X%X%X%X%X%X%X%X%X%X%X%X%X%X%X%X%X%X%Xt.a.a.t.a.t.a.a.$.] 5 < < 5  .%.r.g.t.a.t.a.a.t.a.a.t.t.",
"%X%X%X%X%X%X%X%X%X%X%X%X%X%X%X%X%X%X%X%X%X%X%X%X%X%X%X%X%X%X%X%X%X%X%Xe.a.t.t.a.a.g.2.| # X . X X X X $ | 2.a.a.t.a.a.t.t.a.a.%X",
"%X%X%X%X%X%X%X%X%X%X%X%X%X%X%X%X%X%X%X%X%X%X%X%X%X%X%X%X%X%X%X%X%X%Xa.a.t.a.a.a.a.<.8 X X X X . X X X X X 0 2.a.a.a.t.g.a.a.a.%X",
"%X%X%X%X%X%X%X%X%X%X%X%X%X%X%X%X%X%X%X%X%X%X%X%X%X%X%X%X%X%X%X%X%Xt.a.t.a.a.t.t.e.] X X X   = - ; =   * X X | u.t.a.a.a.t.t.a.%X",
"%X%X%X%X%X%X%X%X%X%X%X%X%X%X%X%X%X%X%X%X%X%X%X%X%X%X%X%X%X%X%X%Xa.a.a.a.t.a.t.a.@.# X X X y /.oXoXG.w X X X $ $.g.t.t.a.a.a.t.%X",
"%X%X%X%X%X%X%X%X%X%X%X%X%X%X%X%X%X%X%X%X%X%X%X%X%X%X%X%X%X%X9.a.a.t.t.a.a.t.a.a.' . X X y #X$X$X$X$X+Xw X X X  .a.a.a.t.a.t.0.%X",
"%X%X%X%X%X%X%X%X%X%X%X%X%X%X%X%X%X%X%X%X%X%X%X%X%X%X%X%X%Xt.t.a.a.t.a.a.a.a.t.4.1 . X = /.$X$X$X$X$X$XF.= X X 6 4.a.a.a.a.a.%X%X",
"%X%X%X%X%X%X%X%X%X%X%X%X%X%X%X%X%X%X%X%X%X%X%X%X%X%X%X%X%Xt.a.a.t.a.a.t.t.a.g.;.% X X q +X$X$X$X$X$X$XXX- X X < 2.g.t.a.a.r.%X%X",
"%X%X%X%X%X%X%X%X%X%X%X%X%X%X%X%X%X%X%X%X%X%X%X%X%X%X%X%Xa.t.a.t.a.t.t.a.a.t.t.<.% * X q +X$X$X$X$X$X$XXX- X X < <.a.a.a.t.t.%X%X",
"%X%X%X%X%X%X%X%X%X%X%X%X%X%X%X%X%X%X%X%X%X%X%X%X%X%X%Xa.a.a.a.t.a.a.a.t.t.a.a.4.1 X X = ).$X$X$X$X$X$XF.= X X 5 4.a.t.a.a.%X%X%X",
"%X%X%X%X%X%X%X%X%X%X%X%X%X%X%X%X%X%X%X%X%X%X%X%X%X%Xt.a.t.t.a.a.t.a.a.a.a.a.a.a.` . X X y #X$X$X$X$X+Xw X X . | a.a.a.t.a.%X%X%X",
"%X%X%X%X%X%X%X%X%X%X%X%X%X%X%X%X%X%X%X%X%X%X%X%X%Xt.a.t.a.a.a.t.a.t.t.a.a.t.t.g.+.@ X X X y ).#X+X/.y X X X # $.g.a.a.a.%X%X%X%X",
"%X%X%X%X%X%X%X%X%X%X%X%X%X%X%X%X%X%X%X%X%X%X%X%Xt.a.a.a.t.a.t.a.g.a.a.t.a.t.a.a.4.] . X X X = q - = . X X * | 9.a.t.t.a.%X%X%X%X",
"%X%X%X%X%X%X%X%X%X%X%X%X%X%X%X%X%X%X%X%X%X%X%Xe.t.a.a.t.a.g.a.t.a.t.a.a.a.t.t.a.a.<.7 X X X X X X X X X X 8 2.a.t.a.a.%X%X%X%X%X",
"%X%X%X%X%X%X%X%X%X%X%X%X%X%X%X%X%X%X%X%X%X%X%Xa.t.a.t.a.a.t.a.a.t.g.t.a.a.a.a.a.a.a.<.' # . X X X X . # ] <.a.a.a.a.a.%X%X%X%X%X",
"%X%X%X%X%X%X%X%X%X%X%X%X%X%X%X%X%X%X%X%X%X%Xa.a.g.a.a.t.a.a.t.a.a.a.a.t.t.a.t.a.a.a.a.e.+.' 1 < & 1 ] $.u.a.a.t.a.t.%X%X%X%X%X%X",
"%X%X%X%X%X%X%X%X%X%X%X%X%X%X|.|.|.%X%X%X%Xa.a.a.a.t.a.a.g.a.t.a.a.t.a.a.t.a.a.t.a.a.t.a.g.a.4.<.<.4.a.a.a.t.a.a.a.0.%X%X%X%X%X%X",
"%X%X%X%X%X%X%X%X%X%X%X%X%X|.|.|.|.|.|.[.B.t.a.t.t.a.a.t.a.t.a.t.a.a.t.a.a.t.a.a.t.a.a.t.t.g.a.g.a.a.t.t.a.a.t.a.r.%X%X%X%X%X%X%X",
"%X%X%X%X%X%X%X%X%X%X%X%X|.|.|.|.|.|.|.U.a.a.a.t.t.a.a.t.a.a.t.a.t.a.a.g.t.a.g.t.t.a.t.a.a.a.a.t.t.a.t.a.t.a.a.0.%X%X%X%X%X%X%X%X",
"%X%X%X%X%X%X%X%X%X%X%X|.|.|.|.|.|.|.W.l.t.a.t.a.a.t.a.a.t.a.a.t.a.t.t.a.a.t.a.a.g.a.a.t.a.t.t.a.a.t.a.a.t.a.a.9.%X%X%X%X%X%X%X%X",
"%X%X%X%X%X%X%X%X%X%X|.|.|.|.|.|.|.].M.t.t.a.t.a.a.g.a.g.a.t.a.a.a.t.t.a.a.a.t.a.t.a.a.a.a.t.a.t.a.a.t.a.a.a.9.%X%X%X%X%X%X%X%X%X",
"%X%X%X%X%X%X%X%X%X|.|.|.|.|.|.|.|.K.a.a.t.a.a.a.a.t.t.a.a.a.t.g.a.a.a.g.t.a.a.g.a.t.t.a.a.g.a.a.t.a.t.a.a.0.%X%X%X%X%X%X%X%X%X%X",
"%X%X%X%X%X%X%X%X|.|.|.|.|.|.|.|.W.l.t.t.a.a.t.t.a.a.t.a.t.a.a.a.t.a.t.a.a.t.t.a.g.a.a.t.t.a.t.a.a.t.a.g.a.%X%X%X%X%X%X%X%X%X%X%X",
"%X%X%X%X%X%X%X|.|.|.|.|.|.|.|.].B.0.a.a.a.t.a.a.t.a.a.t.a.t.t.a.a.t.a.t.a.a.a.t.a.t.a.a.a.t.a.t.a.a.a.t.%X%X%X%X%X%X%X%X%X%X%X%X",
"%X%X%X%X%X%X|.|.|.|.|.|.|.|.|.U.a.t.a.a.a.a.a.t.g.a.a.t.a.t.a.a.a.g.a.g.a.a.t.a.t.a.t.t.a.a.t.a.t.t.a.%X%X%X%X%X%X%X%X%X%X%X%X%X",
"%X%X%X%X%X|.|.|.|.|.|.|.|.|.~.b.a.a.t.t.t.t.a.a.a.t.a.a.a.a.t.t.a.t.t.a.t.a.a.t.a.a.a.a.a.t.a.a.a.a.t.%X%X%X%X%X%X%X%X%X%X%X%X%X",
"%X%X%X%X|.|.|.|.|.|.|.|.|.|.H.t.a.a.a.a.a.t.a.g.t.a.a.t.g.t.a.a.a.a.t.a.a.t.a.t.a.t.t.a.a.t.a.t.a.0.%X%X%X%X%X%X%X%X%X%X%X%X%X%X",
"%X%X%X|.|.|.|.|.|.|.|.|.|.R.j.t.t.g.t.g.a.a.t.a.t.a.a.t.a.a.t.a.t.a.a.t.a.g.a.a.a.t.a.a.t.a.g.a.%X%X%X%X%X%X%X%X%X%X%X%X%X%X%X%X",
"%X%X|.|.|.|.|.|.|.|.|.%X%Xk.a.a.a.a.a.t.a.a.t.t.a.a.t.a.a.t.a.g.t.a.t.a.t.a.a.t.a.a.t.t.a.t.a.%X%X%X%X%X%X%X%X%X%X%X%X%X%X%X%X%X",
"|.|.|.|.|.|.|.|.|.|.%X%X%Xt.a.t.a.t.t.a.t.a.a.a.t.a.g.a.a.t.t.a.a.g.a.t.a.t.a.a.t.a.a.a.a.a.%X%X%X%X%X%X%X%X%X%X%X%X%X%X%X%X%X%X",
"|.|.|.|.|.|.|.|.%X%X%X%Xa.t.a.a.t.a.a.a.t.a.a.a.a.t.t.a.a.a.t.g.a.t.a.a.t.a.g.t.a.t.a.t.t.%X%X%X%X%X%X%X%X%X%X%X%X%X%X%X%X%X%X%X",
"%X|.|.|.|.|.%X%X%X%X%X%Xt.a.t.t.a.g.a.t.g.a.t.t.a.a.t.a.t.a.a.a.a.a.t.a.a.t.a.a.a.t.a.a.%X%X%X%X%X%X%X%X%X%X%X%X%X%X%X%X%X%X%X%X",
"%X|.|.|.|.%X%X%X%X%X%X9.a.a.a.a.a.t.a.t.a.a.a.t.a.t.a.a.t.a.a.t.t.a.a.g.t.a.a.t.a.a.t.%X%X%X%X%X%X%X%X%X%X%X%X%X%X%X%X%X%X%X%X%X",
"%X%X|.%X%X%X%X%X%X%X%X&.9.t.t.a.t.a.t.a.a.t.g.a.a.t.t.a.g.a.a.t.a.t.a.t.a.a.t.a.t.%X%X%X%X%X%X%X%X%X%X%X%X%X%X%X%X%X%X%X%X%X%X%X",
"%X%X%X%X%X%X%X%X%X%X! _ &.e.a.t.a.a.a.a.t.a.a.t.g.a.a.t.t.a.a.a.t.a.a.t.a.a.t.a.%X%X%X%X%X%X%X%X%X%X%X%X%X%X%X%X%X%X%X%X%X%X%X%X",
"%X%X%X%X%X%X%X%X%X%X! ! _ &.9.a.a.t.g.t.a.a.t.a.a.t.a.a.a.t.t.a.a.t.a.a.a.a.M.%X%X%X%X%X%X%X%X%X%X%X%X%X%X%X%X%X%X%X%X%X%X%X%X%X",
"%X%X%X%X%X%X%X%X%X! ! ! ! _ &.9.a.a.a.a.a.a.g.t.a.a.t.t.a.t.t.a.a.g.t.t.z.L.[.%X%X%X%X%X%X%X%X%X%X%X%X%X%X%X%X%X%X%X%X%X%X%X%X%X",
"%X%X%X%X%X%X%X%X%XQ ! ! ! ! _ &.t.g.t.t.t.a.t.a.t.a.a.a.a.a.a.a.a.t.t.n.E.|.|.%X%X%X%X%X%X%X%X%X%X%X%X%X%X%X%X%X%X%X%X%X%X%X%X%X",
"%X%X%X%X%X%X%X%XS.( Q ! ! ! ! _ &.t.a.a.a.t.a.a.t.a.a.t.t.a.a.t.t.z.J.].|.|.|.%X%X%X%X%X%X%X%X%X%X%X%X%X%X%X%X%X%X%X%X%X%X%X%X%X",
"%X%X%X%X%X%X%XT E D.( Q ! ! _ _ _ &.t.a.t.a.a.t.a.t.a.a.a.t.a.a.n.R.|.|.|.|.|.|.%X%X%X%X%X%X%X%X%X%X%X%X%X%X%X%X%X%X%X%X%X%X%X%X",
"%X%X%X%X%X%X%XU T R Z.^ ! ! ! ! ! _ &.9.a.a.t.a.a.a.t.a.t.0.v.I.].|.|.|.|.|.|.|.%X%X%X%X%X%X%X%X%X%X%X%X%X%X%X%X%X%X%X%X%X%X%X%X",
"%X%X%X%X%X%XT T T Z f X.^ ! ! ! ! ! _ &.9.t.a.a.t.a.a.t.j.V.!.|.|.|.|.|.|.|.|.|.%X%X%X%X%X%X%X%X%X%X%X%X%X%X%X%X%X%X%X%X%X%X%X%X",
"%X%X%X%X%XT T T S k i u X.^ Q ! ! ! ! _ &.9.a.t.a.t.t.j.Y.|.|.|.|.|.|.|.|.|.|.%X%X%X%X%X%X%X%X%X%X%X%X%X%X%X%X%X%X%X%X%X%X%X%X%X",
"%X%X%X%X%XT T G x i i i u X.^ Q ! ! ! ! _ &.9.a.a.a.%X%X|.|.|.|.|.|.|.|.|.|.%X%X%X%X%X%X%X%X%X%X%X%X%X%X%X%X%X%X%X%X%X%X%X%X%X%X",
"%X%X%X%XT T L v i i i i i u X.^ Q Q Q ! ! _ &.9.%X%X%X%X|.|.|.|.|.|.|.|.|.%X%X%X%X%X%X%X%X%X%X%X%X%X%X%X%X%X%X%X%X%X%X%X%X%X%X%X",
"%X%X%XT U U N i i d i d i i l Z.( Q ! ! ! ! %X%X%X%X%X|.|.|.|.|.|.|.|.|.%X%X%X%X%X%X%X%X%X%X%X%X%X%X%X%X%X%X%X%X%X%X%X%X%X%X%X%X",
"%X%XT U T V d i i d i i i l A R D.( ! ! %X%X%X%X%X%X|.|.|.|.|.|.|.|.|.%X%X%X%X%X%X%X%X%X%X%X%X%X%X%X%X%X%X%X%X%X%X%X%X%X%X%X%X%X",
"%X%XT T G k i i i i i i c D T T E C.%X%X%X%X%X%X%X%X|.|.|.|.|.|.|.|.%X%X%X%X%X%X%X%X%X%X%X%X%X%X%X%X%X%X%X%X%X%X%X%X%X%X%X%X%X%X",
"%XU U T B i i i i i i n J T T T %X%X%X%X%X%X%X%X%X|.|.|.|.|.|.|.|.%X%X%X%X%X%X%X%X%X%X%X%X%X%X%X%X%X%X%X%X%X%X%X%X%X%X%X%X%X%X%X",
"%XT T L l i i i i d B L T T T %X%X%X%X%X%X%X%X%X%X|.|.|.|.|.|.|.%X%X%X%X%X%X%X%X%X%X%X%X%X%X%X%X%X%X%X%X%X%X%X%X%X%X%X%X%X%X%X%X",
"T T T J k i i i l C U T U T %X%X%X%X%X%X%X%X%X%X|.|.|.|.|.|.|.%X%X%X%X%X%X%X%X%X%X%X%X%X%X%X%X%X%X%X%X%X%X%X%X%X%X%X%X%X%X%X%X%X",
"T U U U n f l B J T T T %X%X%X%X%X%X%X%X%X%X%X|.|.|.|.|.|.|.%X%X%X%X%X%X%X%X%X%X%X%X%X%X%X%X%X%X%X%X%X%X%X%X%X%X%X%X%X%X%X%X%X%X",
"T T U T L J L U T T T %X%X%X%X%X%X%X%X%X%X%X%X|.|.|.|.|.|.%X%X%X%X%X%X%X%X%X%X%X%X%X%X%X%X%X%X%X%X%X%X%X%X%X%X%X%X%X%X%X%X%X%X%X",
"U T U T T T T T U %X%X%X%X%X%X%X%X%X%X%X%X%X|.|.|.|.|.|.%X%X%X%X%X%X%X%X%X%X%X%X%X%X%X%X%X%X%X%X%X%X%X%X%X%X%X%X%X%X%X%X%X%X%X%X",
"%XT T T T T T T %X%X%X%X%X%X%X%X%X%X%X%X%X%X%X|.|.|.|.%X%X%X%X%X%X%X%X%X%X%X%X%X%X%X%X%X%X%X%X%X%X%X%X%X%X%X%X%X%X%X%X%X%X%X%X%X",
"%X%XT U U T %X%X%X%X%X%X%X%X%X%X%X%X%X%X%X%X%X%X%X|.|.%X%X%X%X%X%X%X%X%X%X%X%X%X%X%X%X%X%X%X%X%X%X%X%X%X%X%X%X%X%X%X%X%X%X%X%X%X"
};
