<?xml version="1.0" encoding="UTF-8" standalone="no"?>
<!-- Created with Inkscape (http://www.inkscape.org/) -->

<svg
   xmlns:dc="http://purl.org/dc/elements/1.1/"
   xmlns:cc="http://creativecommons.org/ns#"
   xmlns:rdf="http://www.w3.org/1999/02/22-rdf-syntax-ns#"
   xmlns:svg="http://www.w3.org/2000/svg"
   xmlns="http://www.w3.org/2000/svg"
   xmlns:sodipodi="http://sodipodi.sourceforge.net/DTD/sodipodi-0.dtd"
   xmlns:inkscape="http://www.inkscape.org/namespaces/inkscape"
   width="64"
   height="64"
   id="svg4152"
   version="1.1"
   inkscape:version="0.91 r13725"
   viewBox="0 0 64 64"
   sodipodi:docname="tentacle.svg">
  <defs
     id="defs4154" />
  <sodipodi:namedview
     id="base"
     pagecolor="#ffffff"
     bordercolor="#666666"
     borderopacity="1.0"
     inkscape:pageopacity="0.0"
     inkscape:pageshadow="2"
     inkscape:zoom="15.556349"
     inkscape:cx="40.603813"
     inkscape:cy="30.211964"
     inkscape:current-layer="layer1"
     showgrid="true"
     inkscape:document-units="px"
     inkscape:grid-bbox="true"
     inkscape:window-width="1920"
     inkscape:window-height="1001"
     inkscape:window-x="-3"
     inkscape:window-y="-3"
     inkscape:window-maximized="1" />
  <metadata
     id="metadata4157">
    <rdf:RDF>
      <cc:Work
         rdf:about="">
        <dc:format>image/svg+xml</dc:format>
        <dc:type
           rdf:resource="http://purl.org/dc/dcmitype/StillImage" />
        <dc:title></dc:title>
        <dc:creator>
          <cc:Agent>
            <dc:title>Alexandre Detiste</dc:title>
          </cc:Agent>
        </dc:creator>
        <cc:license
           rdf:resource="http://www.gnu.org/licenses/gpl-2.0" />
        <dc:date>2015/07/16</dc:date>
      </cc:Work>
    </rdf:RDF>
  </metadata>
  <g
     id="layer1"
     inkscape:label="Layer 1"
     inkscape:groupmode="layer">
    <path
       style="fill:#aa00ff;fill-opacity:1;fill-rule:evenodd;stroke:#000000;stroke-width:1.69850361px;stroke-linecap:butt;stroke-linejoin:miter;stroke-opacity:1"
       d="m 14.591681,55.254448 c 3.476701,-1.610792 4.815146,-9.975377 6.867467,-12.512775 2.293465,-3.876768 0.949087,-8.707614 1.799273,-14.462176 1.368087,-6.099655 0.339964,-5.381129 1.763817,-11.480784 l 4.897146,-8.6703622 c 1.172566,-2.4566647 3.824334,7.1522842 4.287511,11.1044272 0.972646,8.299281 -1.166781,-1.230272 3.114294,11.318453 3.275664,9.601669 9.331649,20.728482 9.584614,25.779619 0.07253,1.448178 -6.031425,6.193926 -32.266312,-1.221817"
       id="path4719"
       inkscape:connector-curvature="0"
       sodipodi:nodetypes="cccccsssc" />
    <ellipse
       style="fill:#008000;fill-opacity:1;stroke:none;stroke-opacity:0.78431373"
       id="path4725"
       cx="29.363636"
       cy="23"
       rx="4.181818"
       ry="4.3636365" />
    <ellipse
       style="fill:#008000;fill-opacity:1;stroke:none;stroke-opacity:0.78431373"
       id="path4729"
       cx="31.363638"
       cy="36"
       rx="4.9090905"
       ry="4.818182" />
    <ellipse
       style="fill:#008000;fill-opacity:1;stroke:none;stroke-opacity:0.78431373"
       id="path4731"
       cx="32.954544"
       cy="48.227272"
       rx="5.681818"
       ry="5.5" />
    <ellipse
       style="fill:#00c600;fill-opacity:1;stroke:none;stroke-opacity:0.78431373"
       id="path4733"
       cx="31.318182"
       cy="36.136368"
       rx="3.6818182"
       ry="3.7727273" />
    <ellipse
       style="fill:#00c600;fill-opacity:1;stroke:none;stroke-opacity:0.78431373"
       id="path4733-6"
       cx="29.636366"
       cy="23.090908"
       rx="3.318182"
       ry="3.409091" />
    <ellipse
       style="fill:#00c600;fill-opacity:1;stroke:none;stroke-opacity:0.78431373"
       id="path4733-6-4"
       cx="32.799355"
       cy="48.162994"
       rx="4.5408864"
       ry="4.4123211" />
    <path
       style="fill:none;fill-rule:evenodd;stroke:#006a00;stroke-width:1px;stroke-linecap:butt;stroke-linejoin:miter;stroke-opacity:1"
       d="m 18.545455,51.545455 c 1.018696,0.423451 5.122481,1.971874 6.778665,2.207815 3.378059,0.511488 6.219421,1.443312 9.180034,2.216944 3.849398,-0.394135 6.244833,-0.0413 8.052173,-0.603769 1.853899,-0.576962 2.534727,-0.800056 3.175514,-0.950894"
       id="path4769"
       inkscape:connector-curvature="0"
       sodipodi:nodetypes="cccsc" />
    <ellipse
       style="opacity:0.61000001;fill:#008000;fill-opacity:1;stroke:#006a00;stroke-width:0.24150786;stroke-miterlimit:4;stroke-dasharray:none;stroke-opacity:1"
       id="path4777"
       cx="32.742867"
       cy="48.178585"
       rx="3.3759696"
       ry="3.4857066" />
    <ellipse
       style="opacity:0.61000001;fill:#008000;fill-opacity:1;stroke:#006a00;stroke-width:0.24281639;stroke-miterlimit:4;stroke-dasharray:none;stroke-opacity:1"
       id="path4779"
       cx="31.360407"
       cy="36.050022"
       rx="2.9928513"
       ry="2.9662247" />
    <ellipse
       style="opacity:0.61000001;fill:#008000;fill-opacity:1;stroke:#006a00;stroke-width:0.21995801;stroke-miterlimit:4;stroke-dasharray:none;stroke-opacity:1"
       id="path4781"
       cx="29.710728"
       cy="23.144161"
       rx="2.5143633"
       ry="2.5841603" />
    <path
       style="opacity:0.61000001;fill:#00ff00;fill-opacity:1;stroke:#00c600;stroke-width:0.00909091;stroke-miterlimit:4;stroke-dasharray:none;stroke-opacity:1"
       d="m 36.170279,58.257236 c -4.555568,-0.197709 -10.042478,-1.099038 -16.480968,-2.707311 -1.170727,-0.292437 -2.728733,-0.694973 -2.988226,-0.772057 -0.06587,-0.01957 -0.03821,-0.07444 0.16504,-0.327393 0.366217,-0.455773 0.751633,-1.053561 1.144347,-1.774908 0.193694,-0.355781 0.374534,-0.637598 0.401868,-0.626259 1.475485,0.612069 4.440749,1.636337 5.670691,1.958783 0.333454,0.08742 1.085595,0.242227 1.671424,0.344017 1.862802,0.32367 3.097245,0.611383 5.753038,1.340867 0.875,0.240342 1.894962,0.519042 2.266584,0.619332 l 0.675675,0.182347 0.869779,-0.07014 c 1.160207,-0.09356 1.577939,-0.113243 3.528871,-0.166296 2.697763,-0.07336 2.928298,-0.10765 4.986185,-0.74159 1.581566,-0.487207 1.962307,-0.595791 1.990444,-0.567653 0.02601,0.02601 0.144929,0.715114 0.184954,1.071775 0.03913,0.34866 -0.0064,0.430763 -0.402363,0.725244 -1.521817,1.131854 -5.073644,1.700622 -9.437343,1.51124 z"
       id="path4783"
       inkscape:connector-curvature="0" />
    <path
       style="opacity:0.61000001;fill:#00ff00;fill-opacity:1;stroke:#006f00;stroke-width:0.00909091;stroke-miterlimit:4;stroke-dasharray:none;stroke-opacity:1"
       d="m 35.984765,58.230716 c -0.1125,-0.0075 -0.552272,-0.03587 -0.977272,-0.06306 -4.40101,-0.281525 -9.714196,-1.219896 -16.175162,-2.856724 -1.868599,-0.473393 -2.120293,-0.54406 -2.120293,-0.595306 0,-0.02098 0.07859,-0.137564 0.174632,-0.259074 0.286736,-0.362747 0.699742,-0.998682 1.072155,-1.650873 0.192719,-0.3375 0.376417,-0.640336 0.408217,-0.67297 0.04741,-0.04866 0.140592,-0.02636 0.51786,0.123948 1.424996,0.567716 4.160931,1.495754 5.182227,1.757828 0.3328,0.0854 1.161209,0.258113 1.840909,0.383808 2.147854,0.397197 2.936169,0.588581 7.063056,1.714746 l 1.463602,0.399395 1.036398,-0.07807 c 0.57002,-0.04293 1.987535,-0.110331 3.150035,-0.149767 3.084203,-0.104628 3.09352,-0.10605 5.522727,-0.842616 0.75,-0.227409 1.434842,-0.417587 1.521871,-0.422617 l 0.158234,-0.0091 0.07809,0.431818 c 0.04295,0.2375 0.07913,0.546827 0.0804,0.687393 0.0022,0.244078 -0.0065,0.26368 -0.193183,0.435775 -0.925687,0.853267 -3.167727,1.463807 -6.053731,1.648517 -0.644599,0.04125 -3.212004,0.05288 -3.750776,0.01699 z"
       id="path4785"
       inkscape:connector-curvature="0" />
    <path
       style="opacity:0.61000001;fill:#00ff00;fill-opacity:1;stroke:#005700;stroke-width:0.01285649;stroke-miterlimit:4;stroke-dasharray:none;stroke-opacity:1"
       d="m 35.846912,58.204494 c -0.123743,-0.01403 -0.673358,-0.05637 -1.221366,-0.0941 -3.815467,-0.262652 -8.57727,-1.077665 -14.077853,-2.409512 -2.851171,-0.69035 -3.799649,-0.948704 -3.769675,-1.026815 0.0144,-0.03752 0.186054,-0.291048 0.381462,-0.563406 0.195408,-0.272359 0.548818,-0.828473 0.785355,-1.235809 0.236538,-0.407337 0.45584,-0.740612 0.487339,-0.740612 0.0315,0 0.364329,0.116765 0.739623,0.259478 1.07708,0.409581 3.327344,1.183216 4.172182,1.434384 0.424264,0.126133 1.71152,0.420007 2.860568,0.653053 2.363391,0.479335 3.026192,0.639953 6.010408,1.456519 l 2.12132,0.580452 1.349931,-0.07111 c 0.742463,-0.03911 2.058645,-0.09918 2.924851,-0.133492 2.741784,-0.108603 3.234025,-0.170363 4.632651,-0.581251 1.62619,-0.477741 2.511906,-0.717546 2.541381,-0.688071 0.04932,0.04932 0.153397,0.768531 0.153794,1.062754 3.21e-4,0.237389 -0.03371,0.307867 -0.240687,0.498498 -0.474204,0.436749 -1.61359,0.896097 -2.925675,1.179495 -1.350277,0.291648 -2.535717,0.398778 -4.675723,0.422553 -1.113693,0.01237 -2.126142,0.01102 -2.249886,-0.003 z"
       id="path4787"
       inkscape:connector-curvature="0" />
    <path
       style="opacity:0.61000001;fill:#00ff00;fill-opacity:1;stroke:#005700;stroke-width:0.01285649;stroke-miterlimit:4;stroke-dasharray:none;stroke-opacity:1"
       d="m 34.72197,58.105076 c -3.136811,-0.263717 -5.849929,-0.656678 -9.320953,-1.350024 -3.088774,-0.616991 -8.581705,-1.950619 -8.581705,-2.083552 0,-0.01296 0.253112,-0.412991 0.562471,-0.888967 0.309359,-0.475976 0.669293,-1.040908 0.799853,-1.255406 l 0.237381,-0.389995 0.630432,0.231377 c 3.231406,1.185972 4.563517,1.588735 6.769404,2.046726 2.200988,0.456975 4.304121,0.966382 6.723689,1.628569 1.028702,0.281535 1.939905,0.500886 2.024897,0.487448 0.08499,-0.01344 1.470714,-0.08316 3.079382,-0.154932 4.105478,-0.183175 3.990107,-0.167408 6.547015,-0.894734 1.378628,-0.392157 1.616854,-0.440885 1.616854,-0.33072 0,0.0328 0.02986,0.274334 0.06636,0.536748 0.08324,0.598468 0.03112,0.745105 -0.369178,1.038782 -0.901714,0.661532 -3.028999,1.221596 -5.257614,1.384207 -1.049216,0.07656 -4.594095,0.07301 -5.528289,-0.0055 z"
       id="path4789"
       inkscape:connector-curvature="0" />
    <path
       style="opacity:0.61000001;fill:#e3dedb;fill-opacity:1;stroke:#00c600;stroke-width:0.01285649;stroke-miterlimit:4;stroke-dasharray:none;stroke-opacity:1"
       d="m 35.332653,58.130267 c -1.524,-0.08162 -4.419109,-0.421289 -6.492526,-0.761737 -3.983388,-0.654059 -11.956533,-2.471956 -11.956533,-2.72612 0,-0.03245 0.21187,-0.385875 0.470822,-0.785393 0.258952,-0.399518 0.598846,-0.935871 0.755319,-1.191894 0.156473,-0.256023 0.31661,-0.465745 0.355859,-0.466048 0.03925,-3.02e-4 0.66503,0.214063 1.390624,0.476368 2.851875,1.030963 3.769973,1.29273 6.769593,1.930137 1.998849,0.424748 3.368097,0.761291 5.781991,1.421139 1.620523,0.442976 1.854365,0.491377 2.346309,0.485649 1.211347,-0.01411 6.056557,-0.275489 6.722791,-0.362673 0.399219,-0.05224 1.275237,-0.250489 1.992755,-0.450969 0.704205,-0.19676 1.493257,-0.416561 1.75345,-0.488446 0.319031,-0.08814 0.494252,-0.109524 0.53811,-0.06567 0.03577,0.03577 0.07961,0.320696 0.09743,0.63317 l 0.03239,0.568135 -0.209657,0.204979 c -0.574124,0.561312 -2.231298,1.132601 -4.053807,1.397496 -1.325478,0.192653 -4.42275,0.28214 -6.294923,0.181873 z"
       id="path4793"
       inkscape:connector-curvature="0" />
    <path
       style="opacity:0.61000001;fill:#e3dedb;fill-opacity:1;stroke:#00c600;stroke-width:0.01285649;stroke-miterlimit:4;stroke-dasharray:none;stroke-opacity:1"
       d="m 34.914817,58.075265 c -0.106066,-0.0142 -0.554436,-0.05727 -0.996378,-0.09572 -1.288311,-0.112075 -3.77898,-0.434943 -5.239018,-0.679139 -3.935756,-0.658266 -11.530366,-2.385641 -11.700734,-2.661301 -0.0396,-0.06408 1.167272,-2.037196 1.393865,-2.278827 0.118865,-0.126754 0.124873,-0.125659 1.002726,0.182761 3.442838,1.209589 4.035089,1.382876 6.86141,2.007585 2.384485,0.527049 3.730788,0.855329 5.946126,1.449893 2.374576,0.6373 1.998197,0.618733 6.942503,0.342485 2.564532,-0.143285 2.802123,-0.181881 5.148066,-0.836289 0.692438,-0.193158 1.305828,-0.351196 1.363089,-0.351196 0.109159,0 0.137426,0.108762 0.20262,0.779606 0.035,0.360154 0.03393,0.362905 -0.240397,0.615768 -0.419061,0.386276 -1.261234,0.748786 -2.444152,1.052073 -1.499434,0.38444 -2.253679,0.451649 -5.347016,0.476462 -1.484925,0.01191 -2.786644,0.01004 -2.89271,-0.0042 z"
       id="path4795"
       inkscape:connector-curvature="0" />
    <path
       style="opacity:0.61000001;fill:#e3dedb;fill-opacity:1;stroke:#00c600;stroke-width:0.01285649;stroke-miterlimit:4;stroke-dasharray:none;stroke-opacity:1"
       d="M 34.143428,57.979776 C 33.860585,57.946733 33.224189,57.875243 32.729214,57.820909 31.406238,57.675684 28.833306,57.301661 27.618761,57.078012 23.706838,56.35766 17.30848,54.885607 17.060559,54.648913 c -0.09227,-0.0881 1.225546,-2.232417 1.417145,-2.305941 0.05294,-0.02031 0.316154,0.03768 0.584929,0.128869 0.268775,0.09119 1.226323,0.415749 2.127884,0.721239 1.83091,0.620398 3.000941,0.937449 5.592572,1.515458 1.630505,0.36365 2.518478,0.58157 5.978267,1.467144 0.704626,0.180357 1.492763,0.340071 1.799908,0.364747 0.884719,0.07108 6.126876,-0.217696 7.199632,-0.396605 0.572909,-0.09555 1.005197,-0.200772 3.034621,-0.738673 0.564446,-0.149608 0.837492,-0.195898 0.883591,-0.149799 0.03669,0.03669 0.08499,0.282896 0.107325,0.547116 l 0.04061,0.4804 -0.262997,0.237602 c -0.330704,0.298772 -0.713538,0.493314 -1.524509,0.774699 -0.784908,0.272343 -1.637315,0.474918 -2.53208,0.60175 -0.812232,0.115133 -6.536434,0.17954 -7.364027,0.08286 z"
       id="path4797"
       inkscape:connector-curvature="0" />
    <path
       style="opacity:0.61000001;fill:#00ff00;fill-opacity:1;stroke:#00c600;stroke-width:0.01285649;stroke-miterlimit:4;stroke-dasharray:none;stroke-opacity:1"
       d="m 34.079146,57.945528 c -0.106067,-0.01557 -0.699072,-0.08744 -1.31779,-0.159718 -3.110431,-0.363334 -5.319741,-0.73588 -8.944465,-1.508263 -2.717031,-0.578965 -6.070183,-1.386915 -6.561092,-1.580911 l -0.174196,-0.06884 0.215466,-0.427177 c 0.118506,-0.234947 0.420593,-0.738143 0.671305,-1.118213 0.349783,-0.530259 0.488673,-0.691036 0.596964,-0.691036 0.07762,0 1.141176,0.330134 2.363459,0.733631 2.257053,0.745093 3.390301,1.056765 5.982857,1.645437 0.795495,0.180628 2.646829,0.628782 4.114076,0.995898 1.467246,0.367117 2.870211,0.702392 3.117698,0.745056 0.530524,0.09146 2.607177,0.04845 4.885465,-0.101182 2.603379,-0.17098 2.815882,-0.203786 5.019314,-0.77488 0.745368,-0.193188 1.416612,-0.35125 1.491653,-0.35125 0.142905,0 0.158732,0.04831 0.231639,0.707107 0.03002,0.271267 0.01723,0.301581 -0.205458,0.487059 -0.521287,0.43418 -1.305757,0.763899 -2.595048,1.090717 -1.316714,0.33377 -1.644999,0.357465 -5.292031,0.381977 -1.873833,0.01259 -3.49375,0.01016 -3.599816,-0.0054 z"
       id="path4799"
       inkscape:connector-curvature="0" />
    <path
       style="opacity:0.61000001;fill:#009100;fill-opacity:1;stroke:#004e00;stroke-width:0;stroke-miterlimit:3.7;stroke-dasharray:none;stroke-opacity:1"
       d="M 32.88992,57.788328 C 30.771529,57.508609 29.453621,57.318651 28.39015,57.139749 24.90232,56.553012 17.140724,54.79612 17.140724,54.593363 c 0,-0.179599 1.212008,-2.095706 1.362004,-2.15324 0.04639,-0.01779 0.850919,0.210855 1.787835,0.508111 2.987836,0.947952 3.712811,1.152743 6.075342,1.716163 1.272434,0.303452 3.499527,0.84906 4.949096,1.212462 l 2.63558,0.66073 1.896331,-0.0047 c 1.953893,-0.0049 4.515583,-0.149633 5.702654,-0.322207 0.361065,-0.05249 1.415351,-0.282545 2.342858,-0.511231 0.927506,-0.228686 1.708808,-0.39336 1.736226,-0.365942 0.02742,0.02742 0.06879,0.253613 0.09193,0.502655 l 0.04208,0.452805 -0.261451,0.207073 c -0.403898,0.319893 -1.265425,0.693607 -2.174635,0.943315 -1.557881,0.427861 -1.596096,0.430872 -5.744044,0.452495 -3.407472,0.01776 -3.848031,0.008 -4.692618,-0.103474 z"
       id="path4801"
       inkscape:connector-curvature="0" />
  </g>
</svg>
