/* XPM */
/*
https://commons.wikimedia.org/wiki/File:Weather-clear.svg
*/
static char *zork_nemesis[] = {
/* columns rows colors chars-per-pixel */
"64 64 206 2 ",
"   c #0C0B04",
".  c #050502",
"X  c #100F05",
"o  c #141307",
"O  c #191708",
"+  c #1D1B0A",
"@  c #171508",
"#  c #201E0B",
"$  c #25220C",
"%  c #29260E",
"&  c #2E2B0F",
"*  c #312E10",
"=  c #353211",
"-  c #3A3613",
";  c #3D3914",
":  c #423E16",
">  c #593E16",
",  c #464117",
"<  c #4A4518",
"1  c #4E491A",
"2  c #5C4117",
"3  c #534D1B",
"4  c #5E4318",
"5  c #57511D",
"6  c #5B551E",
"7  c #5E581F",
"8  c #614419",
"9  c #6B4A1B",
"0  c #614317",
"q  c #75511D",
"w  c #7B551E",
"e  c #7F591F",
"r  c #704E1C",
"t  c #635C21",
"y  c #7F5922",
"u  c #7E5721",
"i  c #676022",
"p  c #6B6423",
"a  c #6F6825",
"s  c #736B26",
"d  c #7B7329",
"f  c #875E21",
"g  c #8A5F22",
"h  c #8B6323",
"j  c #876022",
"k  c #916524",
"l  c #966925",
"z  c #9D6D27",
"x  c #9E6E28",
"c  c #80772A",
"v  c #847B2B",
"b  c #887F2D",
"n  c #9F7129",
"m  c #A06F28",
"M  c #A06F27",
"N  c #A47329",
"B  c #AA762A",
"V  c #AE792B",
"C  c #B17C2C",
"Z  c #A47B32",
"A  c #AB7E3A",
"S  c #A97C31",
"D  c #8C822E",
"F  c #90862F",
"G  c #918731",
"H  c #948A32",
"J  c #968D3A",
"K  c #9D923A",
"L  c #8E8530",
"P  c #B5822F",
"I  c #BC852F",
"U  c #AD8234",
"Y  c #AC833C",
"T  c #AC873C",
"R  c #BE8630",
"E  c #B98C34",
"W  c #B2863A",
"Q  c #B68B3A",
"!  c #A2983D",
"~  c #B9913D",
"^  c #C58A31",
"/  c #C78C32",
"(  c #CC9335",
")  c #CA9939",
"_  c #C3933A",
"`  c #D49535",
"'  c #DB9A36",
"]  c #D99A38",
"[  c #DAA23E",
"{  c #E5A23A",
"}  c #E9A33B",
"|  c #F9AE3E",
" . c #F7AF3F",
".. c #FCB13F",
"X. c #AE8D44",
"o. c #BB9343",
"O. c #BC9D47",
"+. c #BC9C49",
"@. c #B69649",
"#. c #B5954A",
"$. c #B6A040",
"%. c #BBAD43",
"&. c #BEA349",
"*. c #B9AB4F",
"=. c #BCB04F",
"-. c #B7A551",
";. c #BAA953",
":. c #BEB252",
">. c #BDB35E",
",. c #BBAA62",
"<. c #BCB263",
"1. c #BEB66C",
"2. c #C18E41",
"3. c #C19444",
"4. c #C3A64D",
"5. c #C7B846",
"6. c #C7B748",
"7. c #C7AA58",
"8. c #C3B357",
"9. c #C3B45A",
"0. c #C5B95A",
"q. c #CBBB5D",
"w. c #CAB156",
"e. c #D5B75A",
"r. c #D7AA4B",
"t. c #EDB143",
"y. c #FCB442",
"u. c #F6B544",
"i. c #EAAF42",
"p. c #C6BA63",
"a. c #CCBF61",
"s. c #C5BA6C",
"d. c #C9BE6C",
"f. c #C9B269",
"g. c #D6BC62",
"h. c #C6BB70",
"j. c #CBBE78",
"k. c #C2AA63",
"l. c #D2C657",
"z. c #DBCC4A",
"x. c #CDC26B",
"c. c #DBC465",
"v. c #DBCB6A",
"b. c #D6C669",
"n. c #CAC27A",
"m. c #D5C672",
"M. c #DCCD73",
"N. c #D7CC77",
"B. c #DDD07C",
"V. c #DCD06F",
"C. c #E4C563",
"Z. c #E7CC6B",
"A. c #F1CF6D",
"S. c #EECE75",
"D. c #E5D372",
"F. c #EEDE7A",
"G. c #EAD978",
"H. c #F2DF7B",
"J. c #FCDA7C",
"K. c #F6D474",
"L. c #F1CF71",
"P. c #F4E27E",
"I. c #CDC586",
"U. c #D5CB84",
"Y. c #D1C98B",
"T. c #DCD18D",
"R. c #DAD287",
"E. c #D3CB92",
"W. c #DBD294",
"Q. c #DBD498",
"!. c #F6D881",
"~. c #E6DD94",
"^. c #E3DB9B",
"/. c #E6DB9B",
"(. c #E8DC8B",
"). c #EFE485",
"_. c #F5E681",
"`. c #F9E581",
"'. c #FDEB85",
"]. c #F8EA89",
"[. c #FFF18B",
"{. c #ECE295",
"}. c #FDF29A",
"|. c #FFF394",
" X c #F5EA9D",
".X c #DED7A6",
"XX c #DEDAB2",
"oX c #E1DAA2",
"OX c #EADFA4",
"+X c #ECE4A2",
"@X c #EDE6AA",
"#X c #F7ECA6",
"$X c #FCF3AB",
"%X c #FFF5A4",
"&X c #ECE7BC",
"*X c #FAEFB2",
"=X c #F4EEB5",
"-X c #FEF3B3",
";X c #FBF4BD",
":X c #FFF8B9",
">X c #F1ECC0",
",X c #FFF9C5",
"<X c #EAE7D1",
"1X c #E7E3CD",
"2X c #FEFBE1",
"3X c None",
/* pixels */
"3X3X3X3X3X3X3X3X3X3X3X3X3X3X3X3X3X3X3X3X3X3X3X3X3X3X3X3X3X3X3X3X3X3X3X3X3X3X3X3X3X3X3X3X3X3X3X3X3X3X3X3X3X3X3X3X3X3X3X3X3X3X3X3X",
"3X3X3X3X3X3X3X3X3X3X3X3X3X3X3X3X3X3X3X3X3X3X3X3X3X3X3X3X3X3X3X3X3X3X3X3X3X3X3X3X3X3X3X3X3X3X3X3X3X3X3X3X3X3X3X3X3X3X3X3X3X3X3X3X",
"3X3X3X3X3X3X3X3X3X3X3X3X3X3X3X3X3X3X3X3X3X3X3X3X3X3X3X3X3X3X3Xy...3X3X3X3X3X3X3X3X3X3X3X3X3X3X3X3X3X3X3X3X3X3X3X3X3X3X3X3X3X3X3X",
"3X3X3X3X3X3X3X3X3X3X3X3X3X3X3X3X3X3X3X3X3X3X3X3X3X3X3X3X3X3X3Xy.y.3X3X3X3X3X3X3X3X3X3X3X3X3X3X3X3X3X3X3X3X3X3X3X3X3X3X3X3X3X3X3X",
"3X3X3X3X3X3X3X3X3X3X3X3X3X3X3X3X3X3X3X3X3X3X3X3X3X3X3X3X3X3X3XJ.J.3X3X3X3X3X3X3X3X3X3X3X3X3X3X3X3X3X3X3X3X3X3X3X3X3X3X3X3X3X3X3X",
"3X3X3X3X3X3X3X3X3X3X3X3X3X3X3X3X3X3X3X3X3X3X3X3X3X3X3X3X3X3X..-X-X..3X3X3X3X3X3X3X3X3X3X3X3X3X3X3X3X3X3X3X3X3X3X3X3X3X3X3X3X3X3X",
"3X3X3X3X3X3X3X3X3X3X3X3X3X3X3X3X3X3X3X3X3X3X3X3X3X3X3X3X3X3Xt.&X>Xt.3X3X3X3X3X3X3X3X3X3X3X3X3X3X3X3X3X3X3X3X3X3X3X3X3X3X3X3X3X3X",
"3X3X3X3X3X3X3X3X3X3X3X3X3X3X3X3X3X3X3X3X3X3X3X3X3X3X3X3X3X' C.^./.C.{ 3X3X3X3X3X3X3X3X3X3X3X3X3X3X3X3X3X3X3X3X3X3X3X3X3X3X3X3X3X",
"3X3X3X3X3X3X3X3X3X3X3X3X3X3X3X3X3X3X3X3X3X3X3X3X3X3X3X3X3X` N.v.v.M.' 3X3X3X3X3X3X3X3X3X3X3X3X3X3X3X3X3X3X3X3X3X3X3X3X3X3X3X3X3X",
"3X3X3X3X3X3X3X3X3X3X3X3X3X3X3X3X3X3X3X3X3X3X3X3X3X3X3X3X3X) x.5.5.x.) 3X3X3X3X3X3X3X3X3X3X3X3X3X3X3X3X3X3X3X3X3X3X3X3X3X3X3X3X3X",
"3X3X3X3X3X3X3X3X3X3X..3X3X3X3X3X3X3X3X3X3X3X3X3X3X3X3X3XC ~ +.o.+.3.3.I 3X3X3X3X3X3X3X3X3X3X3X3X3X3X3X3X3X| 3X3X3X3X3X3X3X3X3X3X",
"3X3X3X3X3X3X3X3X3X3X3X......3X3X3X3X3X3X3X3X3X3X3X3X3X3Xz k 3X3X3X3X3XM 3X3X3X3X3X3X3X3X3X3X3X3X3X3Xy.....3X3X3X3X3X3X3X3X3X3X3X",
"3X3X3X3X3X3X3X3X3X3X3X..$X!.} ' 3X3X3X3X3X3X3X3X3X3X3X3X3X3X3X3X3X3X3X3X3X3X3X3X3X3X3X3X3X3X3X3X| ..K.-X| 3X3X3X3X3X3X3X3X3X3X3X",
"3X3X3X3X3X3X3X3X3X3X3X3XL.<XoXc.` ^ 3X3X3X3X3X3X3X3X3X3X3X3Xu u f q 3X3X3X3X3X3X3X3X3X3X3X3X' { A.-X2XJ.y.3X3X3X3X3X3X3X3X3X3X3X",
"3X3X3X3X3X3X3X3X3X3X3X3X} oXQ.Y.h.4.I V 3X3X3X3X3X3Xh N B N B B N B B C B k 3X3X3X3X3X3XR ( e.B.~.+X*Xy.3X3X3X3X3X3X3X3X3X3X3X3X",
"3X3X3X3X3X3X3X3X3X3X3X3X' e.Y.5.:.;.W k 3X3X3X9 M N Y f.T.@X;X,X,X;X@XT.f.Q C B q 3X3X3XN 2.q.l.z.~.A. .3X3X3X3X3X3X3X3X3X3X3X3X",
"3X3X3X3X3X3X3X3X3X3X3X3X3X( d.:.~ T 3X3X3X3Xz N -.^.,X,X@XE.n.s.s.n.R.+X;X:X~.4.V N 3X3X3X3X2.6.l.B.{ 3X3X3X3X3X3X3X3X3X3X3X3X3X",
"3X3X3X3X3X3X3X3X3X3X3X3X3XR 4.;.Y 3X3X3X9 N X.^.,X@Xh.J F G F F D F H H ! s.+X-X(.o.C w 3X3X3X2.q.e.` 3X3X3X3X3X3X3X3X3X3X3X3X3X",
"3X3X3X3X3X3X3X3X3X3X3X3X3X3XP Y 3X3X3Xe m k.;X=X,.D D D b b v b b b D D F H H >.#X$X7.C k 3X3X3X2.( 3X3X3X3X3X3X3X3X3X3X3X3X3X3X",
"3X3X3X3X3X3X3X3X3X3X3X3X3X3XB h 3X3Xy M j.,XW.H D v v d d d d d d d d v v D F F K R.$Xm.C k 3X3Xn I 3X3X3X3X3X3X3X3X3X3X3X3X3X3X",
"3X3X3X3X3X3X3X3X3X3X3X3X3X3X3X3X3X9 m j.,Xj.D v v d d d s s s s s s d d d v b D F H x.%Xm.B w 3X3X3X3X3X3X3X3X3X3X3X3X3X3X3X3X3X",
"3X3X3X3X3X3X3X3X3X3X3X3X3X3X3X3X3XM k.,Xj.b v d d s a p p p p p p p p s s d d b b F H x.%X8.C 3X3X3X3X3X3X3X3X3X3X3X3X3X3X3X3X3X",
"3X3X3X3X3X3X3X3X3X3X3X3X3X3X3X3Xk Y >XQ.D v d d s p p t t 7 7 7 7 t t p p s d d c D F H B.}.Q B 3X3X3X3X3X3X3X3X3X3X3X3X3X3X3X3X",
"3X3X3X3X3X3X3X3X3X3X3X3X3X3X3X8 z ^.=XJ v d s a p t t 6 6 6 5 5 6 6 6 7 t p p s d v D F K ].G.V q 3X3X3X3X3X3X3X3X3X3X3X3X3X3X3X",
"3X3X3X3X3X3X3X3X3X3X3X3X3X3X3Xl #.,X,.v d d a p t 6 6 3 3 1 1 1 1 3 3 5 6 7 p p s d D D D =.|.$.B 3X3X3X3X3X3X3X3X3X3X3X3X3X3X3X",
"3X3X3X3X3X3X3X3X3X3X3X3X3X3X3Xx W.@XD d s s p 7 6 5 3 < , , , : : , < 1 3 6 7 p a s d D D H ).D.V 3X3X3X3X3X3X3X3X3X3X3X3X3X3X3X",
"3X3X3X3X3X3X3X3X3X3X3X3X3X3Xf Z ;X1.v d s p t 7 5 1 < : : ; - - ; ; : , < 3 6 7 p a d d D L 0.[.U k 3X3X3X3X3X3X3X3X3X3X3X3X3X3X",
"3X3X3X3X3X3X3X3X3X3X3X3X3X3Xk ,.:XJ d d a i 7 5 3 , : ; = = * * * = - : , 1 3 6 t p s d D D ! [.4.B 3X3X3X3X3X3X3X3X3X3X3X3X3X3X",
"3X3X3X3X3X3X3X3X3X3XB j 3X3Xx U.+Xb d s p t 6 3 < : ; = & % % % % & * = : : 1 3 7 i a d d D H P.c.B 3X3Xz C 3X3X3X3X3X3X3X3X3X3X",
"3X3X3X3X3X3X3X^ ^ ~ W y 3X3Xz {.U.v d s p t 5 1 , ; = * % $ # # # $ % * - : < 3 6 t p s d D L v.G.B 3X3Xk ~ ) ` ' 3X3X3X3X3X3X3X",
"3X3X3X3X3X} r.g.s.,.X.3X3X0 z #Xd.v s a i 7 5 < : - * % $ + o o O + $ & = ; , 3 5 t p s d D L b.P.B r 3X3X+.d.m.C.t...3X3X3X3X3X",
"3X3X..y.!.@XoXE.q.%.T 3X3X9 z $X1.v d a t 7 3 < : = * $ + o     X O + % * - : < 5 7 i s d d D q._.N w 3X3Xo.5.b.^.&X*XJ.y.y.3X3X",
"3X3X..y.K./.XXE.p.%.T 3X3X9 z $X<.v d a i 6 3 < : = & $ O o   .   o + % & - : < 3 7 i a d v D >.'.N w 3X3Xo.6.b.W.&X*XJ.y...3X3X",
"3X3X3X3X3X} ' w.p.<.X.3X3X> z  Xx.v s a i 7 3 < : - & $ + o   .   o + $ * - : < 3 7 i s s v D l.P.N 9 3X3X@.d.m.C.i.| 3X3X3X3X3X",
"3X3X3X3X3X3X3X^ ^ E U y 3X3Xz (.N.v d a i 7 5 < , - * % + O o o o O # % * - : < 5 7 i s d v D v.G.N 3X3Xj ~ _ ` ` 3X3X3X3X3X3X3X",
"3X3X3X3X3X3X3X3X3X3XN f 3X3Xm N.{.v d s p t 5 1 , ; = & $ $ O O + + $ & = ; , 1 5 7 p s d v D F.c.B 3X3Xl V 3X3X3X3X3X3X3X3X3X3X",
"3X3X3X3X3X3X3X3X3X3X3X3X3X3Xl ;.}.J d s p t 6 3 < : - = & $ $ $ $ $ & * - : < 3 6 t p s d b K '.4.M 3X3X3X3X3X3X3X3X3X3X3X3X3X3X",
"3X3X3X3X3X3X3X3X3X3X3X3X3X3Xw N }.p.v d s p 7 6 1 < : - = * & & & * = - : , 1 3 7 t a s d D 8.'.S f 3X3X3X3X3X3X3X3X3X3X3X3X3X3X",
"3X3X3X3X3X3X3X3X3X3X3X3X3X3X3Xx N.).D d s p t 7 5 1 < : ; - = = = - - : : < 3 6 t p s d b D P.v.N 3X3X3X3X3X3X3X3X3X3X3X3X3X3X3X",
"3X3X3X3X3X3X3X3X3X3X3X3X3X3X3Xk X.|.:.d d s p t 6 5 1 < , , : ; ; : : < 1 3 6 t i s s d b *.'.X.z 3X3X3X3X3X3X3X3X3X3X3X3X3X3X3X",
"3X3X3X3X3X3X3X3X3X3X3X3X3X3X3X2 n M._.G d d a p t 6 5 3 1 1 < < < < < 3 5 6 t t a s d v H P.Z.n 8 3X3X3X3X3X3X3X3X3X3X3X3X3X3X3X",
"3X3X3X3X3X3X3X3X3X3X3X3X3X3X3X3Xk Z '.V.D d d a p i t 6 5 3 3 3 3 3 3 6 6 t t a s d c b v.`.S l 3X3X3X3X3X3X3X3X3X3X3X3X3X3X3X3X",
"3X3X3X3X3X3X3X3X3X3X3X3X3X3X3X3X3Xn O.[.x.v d d s p p t 7 7 6 6 6 7 t t t p a s d c b q.'.O.m 3X3X3X3X3X3X3X3X3X3X3X3X3X3X3X3X3X",
"3X3X3X3X3X3X3X3X3X3X3X3X3X3X3X3X3X0 z 8.[.x.v d d s a s p i i t t t t p a s s d c b q.'.w.M 9 3X3X3X3X3X3X3X3X3X3X3X3X3X3X3X3X3X",
"3X3X3X3X3X3X3X3X3X3X3X3X3X3XB j 3X3Xq z 8.'.v.H v d d s s p a a s s a s s d d v H b.'.w.M q 3X3Xh B 3X3X3X3X3X3X3X3X3X3X3X3X3X3X",
"3X3X3X3X3X3X3X3X3X3X3X3X3X3XP A 3X3X3Xq z O._._.*.b d d d d d s d s d d c v b *.P.`.+.M q 3X3X3XY P 3X3X3X3X3X3X3X3X3X3X3X3X3X3X",
"3X3X3X3X3X3X3X3X3X3X3X3X3XR &.-.A 3X3X3X4 z Z v.[.P.9.J b v b v c c v b K 8.H.'.v.Z z 8 3X3X3XA ;.&.R 3X3X3X3X3X3X3X3X3X3X3X3X3X",
"3X3X3X3X3X3X3X3X3X3X3X3X3X( d.:.$.A 3X3X3X3Xk z T b.'.'.F.c.q.8.q.a.b.P.'.`.c.T M k 3X3X3X3XA $.=.h.( 3X3X3X3X3X3X3X3X3X3X3X3X3X",
"3X3X3X3X3X3X3X3X3X3X3X3X' e.Y.6.:.-.Y j 3X3X3X> k z N &.g.D.P.P.H.G.D.q.@.n x k > 3X3X3Xf Y -.=.5.I.e.' 3X3X3X3X3X3X3X3X3X3X3X3X",
"3X3X3X3X3X3X3X3X3X3X3X3X} oXW.I.h.4.P B 3X3X3X3X3X3Xu l z x z l z z z z l w 3X3X3X3X3X3XN C O.h.I.E..X{ 3X3X3X3X3X3X3X3X3X3X3X3X",
"3X3X3X3X3X3X3X3X3X3X3X3XL.<XoXe.( R 3X3X3X3X3X3X3X3X3X3X3X3X> 8 0 2 3X3X3X3X3X3X3X3X3X3X3X3XP ( e..X1XS. .3X3X3X3X3X3X3X3X3X3X3X",
"3X3X3X3X3X3X3X3X3X3X3X..#XK.} ' 3X3X3X3X3X3X3X3X3X3X3X3X3X3X3X3X3X3X3X3X3X3X3X3X3X3X3X3X3X3X3X3X( { S.#X..3X3X3X3X3X3X3X3X3X3X3X",
"3X3X3X3X3X3X3X3X3X3X3X..y.3X3X3X3X3X3X3X3X3X3X3X3X3X3X3Xg y 3X3X3X3Xf f 3X3X3X3X3X3X3X3X3X3X3X3X3X3X3X....3X3X3X3X3X3X3X3X3X3X3X",
"3X3X3X3X3X3X3X3X3X3X..3X3X3X3X3X3X3X3X3X3X3X3X3X3X3X3X3XN W X.T T X.U N 3X3X3X3X3X3X3X3X3X3X3X3X3X3X3X3X3X..3X3X3X3X3X3X3X3X3X3X",
"3X3X3X3X3X3X3X3X3X3X3X3X3X3X3X3X3X3X3X3X3X3X3X3X3X3X3X3X3XE <.%.%.,.E 3X3X3X3X3X3X3X3X3X3X3X3X3X3X3X3X3X3X3X3X3X3X3X3X3X3X3X3X3X",
"3X3X3X3X3X3X3X3X3X3X3X3X3X3X3X3X3X3X3X3X3X3X3X3X3X3X3X3X3X^ s.0.p.s.^ 3X3X3X3X3X3X3X3X3X3X3X3X3X3X3X3X3X3X3X3X3X3X3X3X3X3X3X3X3X",
"3X3X3X3X3X3X3X3X3X3X3X3X3X3X3X3X3X3X3X3X3X3X3X3X3X3X3X3X3X^ e.E.Y.e.^ 3X3X3X3X3X3X3X3X3X3X3X3X3X3X3X3X3X3X3X3X3X3X3X3X3X3X3X3X3X",
"3X3X3X3X3X3X3X3X3X3X3X3X3X3X3X3X3X3X3X3X3X3X3X3X3X3X3X3X3X3X] XXoXr.3X3X3X3X3X3X3X3X3X3X3X3X3X3X3X3X3X3X3X3X3X3X3X3X3X3X3X3X3X3X",
"3X3X3X3X3X3X3X3X3X3X3X3X3X3X3X3X3X3X3X3X3X3X3X3X3X3X3X3X3X3X} +XOX} 3X3X3X3X3X3X3X3X3X3X3X3X3X3X3X3X3X3X3X3X3X3X3X3X3X3X3X3X3X3X",
"3X3X3X3X3X3X3X3X3X3X3X3X3X3X3X3X3X3X3X3X3X3X3X3X3X3X3X3X3X3X3XK.K.3X3X3X3X3X3X3X3X3X3X3X3X3X3X3X3X3X3X3X3X3X3X3X3X3X3X3X3X3X3X3X",
"3X3X3X3X3X3X3X3X3X3X3X3X3X3X3X3X3X3X3X3X3X3X3X3X3X3X3X3X3X3X3Xy.y.3X3X3X3X3X3X3X3X3X3X3X3X3X3X3X3X3X3X3X3X3X3X3X3X3X3X3X3X3X3X3X",
"3X3X3X3X3X3X3X3X3X3X3X3X3X3X3X3X3X3X3X3X3X3X3X3X3X3X3X3X3X3X3Xy.y.3X3X3X3X3X3X3X3X3X3X3X3X3X3X3X3X3X3X3X3X3X3X3X3X3X3X3X3X3X3X3X",
"3X3X3X3X3X3X3X3X3X3X3X3X3X3X3X3X3X3X3X3X3X3X3X3X3X3X3X3X3X3X3X3X3X3X3X3X3X3X3X3X3X3X3X3X3X3X3X3X3X3X3X3X3X3X3X3X3X3X3X3X3X3X3X3X",
"3X3X3X3X3X3X3X3X3X3X3X3X3X3X3X3X3X3X3X3X3X3X3X3X3X3X3X3X3X3X3X3X3X3X3X3X3X3X3X3X3X3X3X3X3X3X3X3X3X3X3X3X3X3X3X3X3X3X3X3X3X3X3X3X"
};
