<?xml version="1.0" encoding="UTF-8" standalone="no"?>
<svg
   xmlns:sketch="http://www.bohemiancoding.com/sketch/ns"
   xmlns:dc="http://purl.org/dc/elements/1.1/"
   xmlns:cc="http://creativecommons.org/ns#"
   xmlns:rdf="http://www.w3.org/1999/02/22-rdf-syntax-ns#"
   xmlns:svg="http://www.w3.org/2000/svg"
   xmlns="http://www.w3.org/2000/svg"
   xmlns:sodipodi="http://sodipodi.sourceforge.net/DTD/sodipodi-0.dtd"
   xmlns:inkscape="http://www.inkscape.org/namespaces/inkscape"
   viewBox="0 0 96 96"
   version="1.1"
   x="0px"
   y="0px"
   id="svg2"
   inkscape:version="0.91 r13725"
   sodipodi:docname="zork-inquisitor.svg"
   width="96"
   height="96">
  <metadata
     id="metadata36">
    <rdf:RDF>
      <cc:Work
         rdf:about="">
        <dc:format>image/svg+xml</dc:format>
        <dc:type
           rdf:resource="http://purl.org/dc/dcmitype/StillImage" />
        <dc:title>lamp</dc:title>
        <dc:creator>
          <cc:Agent>
            <dc:title>Sri Kadimisetty</dc:title>
          </cc:Agent>
        </dc:creator>
        <dc:publisher>
          <cc:Agent>
            <dc:title>the Noun Project</dc:title>
          </cc:Agent>
        </dc:publisher>
        <dc:source>https://thenounproject.com/term/kerosene-lantern-lamp/64456/</dc:source>
        <cc:license
           rdf:resource="http://creativecommons.org/licenses/by/3.0/us/" />
      </cc:Work>
    </rdf:RDF>
  </metadata>
  <defs
     id="defs34" />
  <sodipodi:namedview
     pagecolor="#ffffff"
     bordercolor="#666666"
     borderopacity="1"
     objecttolerance="10"
     gridtolerance="10"
     guidetolerance="10"
     inkscape:pageopacity="0"
     inkscape:pageshadow="2"
     inkscape:window-width="1202"
     inkscape:window-height="600"
     id="namedview32"
     showgrid="false"
     inkscape:zoom="3.3167751"
     inkscape:cx="23.218264"
     inkscape:cy="58.225605"
     inkscape:window-x="0"
     inkscape:window-y="27"
     inkscape:window-maximized="0"
     inkscape:current-layer="svg2" />
  <title
     id="title4">lamp</title>
  <desc
     id="desc6">Created with Sketch.</desc>
  <g
     sketch:type="MSPage"
     id="g8"
     style="fill:none;fill-rule:evenodd;stroke:none;stroke-width:1"
     transform="translate(25.017769,2.0471401)">
    <g
       sketch:type="MSArtboardGroup"
       transform="translate(-27,-4)"
       id="g10">
      <g
         sketch:type="MSLayerGroup"
         transform="translate(28,5)"
         id="g12">
        <path
           d="m 24.361352,5.910711 c 3.434356,0.3988696 7.732614,1.6028077 7.732614,1.6028077 0.253028,0.068045 0.447701,0.3269893 0.447701,0.5805438 0,0.1265352 -0.103084,0.2460395 -0.230243,0.2596743 0,0 -1.372408,0.1500617 -3.176858,0.3129142 l 0.407101,4.52101 0.237562,0 c 1.018623,0 1.883887,0.827349 1.930906,1.847937 l 0.05343,1.159775 0,0 1.517206,0 c 4.138826,0 7.719198,3.358476 7.976153,7.501367 l 2.756924,44.449979 c 0.249945,4.029865 -2.812229,7.277446 -6.838082,7.277446 l -30.4792634,0 c -4.0308533,0 -7.04302314,-3.251583 -6.73903862,-7.262613 L 3.3273261,23.69674 c 0.3143096,-4.147268 3.9312492,-7.501367 8.0794019,-7.501367 l 0.829706,0 0.05343,-1.159775 c 0.04685,-1.016838 0.911515,-1.847937 1.930906,-1.847937 l 0.216729,0 0,0 0.428545,-4.5428405 C 13.036497,8.4898727 11.688108,8.3520693 11.688108,8.3520693 11.562332,8.3395381 11.458333,8.2238419 11.458333,8.0940625 c 0,-0.254606 0.193287,-0.5060286 0.431719,-0.5639167 0,0 4.316963,-1.076566 7.898113,-1.5390297 C 19.35912,5.8124977 19.020833,5.326875 19.020833,4.85879 l 0,-2.3136503 c 0,-0.7642759 0.538559,-1.69134406 1.202906,-2.06513411 0,0 0.739683,-0.57428078 1.776261,-0.57428078 0.949533,0 1.756871,0.58159243 1.756871,0.58159243 0.676588,0.35379289 1.222296,1.29107046 1.222296,2.05782246 l 0,2.3136503 c 0,0.4140386 -0.259219,0.8326903 -0.617815,1.051921 l 0,0 z m -8.814993,19.53916 -3.856887,0 c -0.620884,0 -1.147805,-0.517922 -1.147805,-1.156812 0,-0.643344 0.51389,-1.156812 1.147805,-1.156812 l 20.850223,0 c 0.620884,0 1.147805,0.517922 1.147805,1.156812 0,0.643344 -0.51389,1.156812 -1.147805,1.156812 l -3.613302,0 1.757766,5.798132 c 0.07329,0.241739 -0.06841,0.448655 -0.320574,0.448655 l -16.15709,0 c -0.240757,0 -0.398822,-0.20087 -0.327564,-0.448655 l 1.667428,-5.798132 0,0 z m -3.41716,-6.926858 C 8.5796399,18.749106 5.5679088,21.682262 5.3040034,25.260064 L 2.2402471,66.795825 c -0.2666712,3.615299 2.4532815,6.546077 6.0852483,6.546077 l 27.4630866,0 c 3.627461,0 6.391308,-2.928669 6.172941,-6.546077 L 39.45419,25.260064 c -0.225073,-3.728511 -3.445907,-6.751067 -7.175161,-6.751067 l -0.408874,0 0.213178,4.62725 -20.166666,0 0.212532,-4.613234 0,0 z m 6.100429,-9.0371518 c -0.702117,0 -1.271295,0.5618358 -1.271295,1.2744148 l 0,0.22752 c 0,0.70384 0.573564,1.274415 1.271295,1.274415 l 1.582411,0 c 0.702116,0 1.271294,-0.561836 1.271294,-1.274415 l 0,-0.22752 c 0,-0.70384 -0.573563,-1.2744148 -1.271294,-1.2744148 l -1.582411,0 z m 5.958333,0 c -0.702116,0 -1.271294,0.5618358 -1.271294,1.2744148 l 0,0.22752 c 0,0.70384 0.573563,1.274415 1.271294,1.274415 l 1.582411,0 c 0.702117,0 1.271295,-0.561836 1.271295,-1.274415 l 0,-0.22752 c 0,-0.70384 -0.573564,-1.2744148 -1.271295,-1.2744148 l -1.582411,0 z M 22,1.1568123 c -0.637894,0 -1.065788,0.3545362 -1.065788,0.3545362 -0.423904,0.2476687 -0.767545,0.8489761 -0.767545,1.3556454 l 0,1.4616847 c 0,0.3319237 0.248111,0.6765165 0.580027,0.7693719 0,0 0.635505,0.2232863 1.253306,0.2232863 0.604421,0 1.26591,-0.2278286 1.26591,-0.2278286 0.313379,-0.09048 0.567423,-0.4379051 0.567423,-0.7648296 l 0,-1.4616847 c 0,-0.5010336 -0.350314,-1.1181751 -0.78907,-1.3556454 0,0 -0.459935,-0.3545362 -1.044263,-0.3545362 z"
           sketch:type="MSShapeGroup"
           id="path14"
           inkscape:connector-curvature="0"
           style="fill:#000000" />
        <path
           d="m 28.766781,70.570084 c 4.0683,0.919951 6.849391,2.657616 6.978523,4.661864 0.0086,-0.0014 0.01293,-0.0021 0.01293,-0.0021 1.009839,-0.152655 1.825102,0.548364 1.825102,1.570436 l 0,6.30265 c 0.0011,-2.26e-4 0.0017,-3.39e-4 0.0017,-3.39e-4 1.319608,-0.240363 2.397057,0.646682 2.397057,1.995029 l 0,0.147349 c 0,1.349931 -1.038455,2.763467 -2.319455,3.16076 0,0 -3.095584,1.594262 -15.536728,1.594262 C 9.6847364,90 6.4050372,88.393111 6.4050372,88.393111 5.113068,88.037765 4.0757634,86.593325 4.0757634,85.244978 l 0,-0.147349 c 0,-1.334421 1.0439422,-2.21983 2.3409033,-2.000448 l 0,0 0,-6.296892 c 0,-1.01391 0.809954,-1.723472 1.8090829,-1.566622 0,0 0.089441,0.01497 0.2557274,0.04183 l 0,0 c 0.098003,-2.17018 3.304943,-4.033657 7.898159,-4.894765 -0.933337,-0.812994 -1.483803,-1.813411 -1.483803,-2.895191 0,-2.723268 15.583334,-2.723268 15.583334,0 0,1.167349 -0.640994,2.239955 -1.712389,3.084544 z"
           sketch:type="MSShapeGroup"
           id="path16"
           inkscape:connector-curvature="0"
           style="fill:#000000" />
        <path
           d="m 31.840856,66.257359 c 0,0 -3.252568,-7.115721 -6.564017,-9.920277 -3.65717,-3.097356 -10.968924,-4.572107 -14.626095,-7.669463 l 0.201174,-0.790812 c 3.244695,3.045872 11.088544,4.736589 14.918712,7.908121 3.329537,2.75699 6.560403,9.877445 6.560403,9.877445 l -0.490177,0.594986 z"
           sketch:type="MSShapeGroup"
           id="path18"
           inkscape:connector-curvature="0"
           style="fill:#000000" />
        <path
           d="m 12.966192,66.257359 c 0,0 3.286806,-7.115721 6.633112,-9.920277 3.695667,-3.097356 11.084387,-4.572107 14.780053,-7.669463 l -0.203291,-0.790812 c -3.278849,3.045872 -11.205266,4.736589 -15.075751,7.908121 -3.364585,2.75699 -6.62946,9.877445 -6.62946,9.877445 l 0.495337,0.594986 z"
           sketch:type="MSShapeGroup"
           id="path20"
           inkscape:connector-curvature="0"
           style="fill:#000000" />
        <path
           d="m 14.208333,31.696658 c 0,8.329049 -4.583333,15.18397 -4.583333,24.375254 0,9.191283 4.176593,10.803754 4.176593,10.803754 0.224636,0.121199 0.612464,0.21945 0.876147,0.21945 l 15.33202,0 c 0.259246,0 0.659034,-0.08506 0.87799,-0.201286 0,0 4.584238,-1.649614 4.584238,-10.821918 0,-9.172305 -4.992821,-16.192805 -4.992821,-24.375254 l -16.270834,0 z"
           sketch:type="MSShapeGroup"
           id="path22"
           inkscape:connector-curvature="0"
           style="stroke:#000000;stroke-width:1.8508997" />
        <path
           d="m 2.7254877,64.610291 4.9732838,0 c 1.0190606,0 1.8451724,0.837384 1.8451724,1.858649 l 0,0.231242 c 0,1.026504 0.8302071,1.85865 1.8472341,1.85865 l 3.392217,0"
           sketch:type="MSShapeGroup"
           id="path24"
           inkscape:connector-curvature="0"
           style="stroke:#000000;stroke-width:0.92544985;stroke-linecap:round" />
        <path
           d="m 30.340071,64.838114 4.973284,0 c 1.01906,0 1.845172,0.824762 1.845172,1.858137 l 0,0 c 0,1.026221 0.830207,1.858137 1.847235,1.858137 l 3.392216,0"
           sketch:type="MSShapeGroup"
           transform="matrix(-1,0,0,1,72.645834,0)"
           id="path26"
           inkscape:connector-curvature="0"
           style="stroke:#000000;stroke-width:0.92544985;stroke-linecap:round" />
      </g>
    </g>
  </g>
</svg>
