/* XPM */
/*
(c) Sri Kadimisetty
https://thenounproject.com/term/kerosene-lantern-lamp/64456/
*/
static char *zork_inquisitor[] = {
/* columns rows colors chars-per-pixel */
"64 64 2 1 ",
"  c black",
". c None",
/* pixels */
"................................................................",
"...............................   ..............................",
".............................. .................................",
".............................. .................................",
"..............................    ..............................",
"...........................           ..........................",
"..........................             .........................",
"...........................  ..   .  ...........................",
"...........................  ... ...  ..........................",
"...........................           ..........................",
"..........................             .........................",
".........................              .........................",
".......................                   ......................",
".....................                       ....................",
"....................   ..              ...   ...................",
"....................  ...              ....  ...................",
"...................  ....              .....  ..................",
"...................  ...                ....  ..................",
"...................  ....               ..... ..................",
"...................  .......         ........ ..................",
"................... .......           ....... ..................",
"................... .......           ....... ..................",
"................... ......             ...... ..................",
"................... ......             ...... ..................",
"................... ...... ........... ...... ..................",
"................... ...... ........... ...... ..................",
"................... ...... ........... ...... ..................",
"..................  ...... ...........  .....  .................",
"..................  .....  ............ .....  .................",
"..................  ..... ............. .....  .................",
"..................  ..... .............  ....  .................",
"..................  ..... .............  ....  .................",
"..................  ....  .............. ....  .................",
"..................  .... ............... ..... .................",
".................. ..... ...............  .... .................",
".................. ....  ...............  .... .................",
".................. ....  ................ .... .................",
".................. ....  ................ .... .................",
".................. .... ........  ....... .... .................",
".................. .... ................. .... .................",
".................  .... ................. .... .................",
".................  .... ................. .... .................",
".................  .... ................. .... .................",
".................  ....  ................ ....  ................",
".................  ..... ...............  ....  ................",
".................  ..... ............... .....  ................",
".................  .....  .............  . ...  ................",
"................. ..... .               ......  ................",
"................. ........              . ....  ................",
".................  .........          ........  ................",
".................  ........           ........  ................",
"..................  .....               .....  .................",
"..................                            ..................",
"....................                         ...................",
".....................                      .....................",
".....................                      .....................",
".....................                      .....................",
".....................                      .....................",
".....................                      .....................",
"....................                        ....................",
"....................                         ...................",
"....................                         ...................",
".....................                       ....................",
"........................                 ......................."
};
